solid OpenBeamKosselProSDCardHolder
facet normal 1.0 9.399888275159661e-17 1.4099832412739473e-15
  outer loop
    vertex 36.75 83.61932701803084 27.5
    vertex 36.75 70.61932701803083 29.500000000000004
    vertex 36.75000000000001 70.61932701803083 27.5
  endloop
endfacet
facet normal 1.0 9.399888275159661e-17 1.4099832412739473e-15
  outer loop
    vertex 36.75 70.61932701803083 29.500000000000004
    vertex 36.75 83.61932701803084 27.5
    vertex 36.75 83.61932701803084 29.500000000000004
  endloop
endfacet
facet normal -1.0 0.0 0.0
  outer loop
    vertex 38.25 83.61932701803084 29.500000000000004
    vertex 38.25 70.61932701803083 27.5
    vertex 38.25 70.61932701803083 29.500000000000004
  endloop
endfacet
facet normal -1.0 0.0 0.0
  outer loop
    vertex 38.25 70.61932701803083 27.5
    vertex 38.25 83.61932701803084 29.500000000000004
    vertex 38.25 83.61932701803084 27.5
  endloop
endfacet
facet normal 0.0 0.0 -1.0
  outer loop
    vertex 30.000000000000018 95.91932701803087 0.0
    vertex 30.0 69.61932701803084 0.0
    vertex 30.0 84.61932701803087 0.0
  endloop
endfacet
facet normal 0.0 0.0 -1.0
  outer loop
    vertex 30.0 69.61932701803084 0.0
    vertex 30.000000000000018 95.91932701803087 0.0
    vertex 30.000000000000007 58.31932701803085 0.0
  endloop
endfacet
facet normal 0.0 0.0 -1.0
  outer loop
    vertex 30.000000000000007 58.31932701803085 0.0
    vertex 30.000000000000018 95.91932701803087 0.0
    vertex 30.06814834742187 57.8016889278258 0.0
  endloop
endfacet
facet normal 0.0 0.0 -1.0
  outer loop
    vertex 30.06814834742187 57.8016889278258 0.0
    vertex 30.000000000000018 95.91932701803087 0.0
    vertex 30.068148347421882 96.43696510823591 0.0
  endloop
endfacet
facet normal 0.0 0.0 -1.0
  outer loop
    vertex 30.06814834742187 57.8016889278258 0.0
    vertex 30.068148347421882 96.43696510823591 0.0
    vertex 30.152240934977435 57.553960153300665 0.0
  endloop
endfacet
facet normal 0.0 0.0 -1.0
  outer loop
    vertex 30.152240934977435 57.553960153300665 0.0
    vertex 30.068148347421882 96.43696510823591 0.0
    vertex 30.152240934977446 96.68469388276104 0.0
  endloop
endfacet
facet normal 0.0 0.0 -1.0
  outer loop
    vertex 30.152240934977435 57.553960153300665 0.0
    vertex 30.152240934977446 96.68469388276104 0.0
    vertex 30.267949192431132 57.31932701803085 0.0
  endloop
endfacet
facet normal 0.0 0.0 -1.0
  outer loop
    vertex 30.267949192431132 57.31932701803085 0.0
    vertex 30.152240934977446 96.68469388276104 0.0
    vertex 30.267949192431143 96.91932701803087 0.0
  endloop
endfacet
facet normal 0.0 0.0 -1.0
  outer loop
    vertex 30.267949192431132 57.31932701803085 0.0
    vertex 30.267949192431143 96.91932701803087 0.0
    vertex 30.413293319417537 57.10180416001341 0.0
  endloop
endfacet
facet normal 0.0 0.0 -1.0
  outer loop
    vertex 30.413293319417537 57.10180416001341 0.0
    vertex 30.267949192431143 96.91932701803087 0.0
    vertex 30.413293319417544 97.1368498760483 0.0
  endloop
endfacet
facet normal 0.0 0.0 -1.0
  outer loop
    vertex 30.413293319417537 57.10180416001341 0.0
    vertex 30.413293319417544 97.1368498760483 0.0
    vertex 30.58578643762691 56.90511345565776 0.0
  endloop
endfacet
facet normal 0.0 0.0 -1.0
  outer loop
    vertex 30.58578643762691 56.90511345565776 0.0
    vertex 30.413293319417544 97.1368498760483 0.0
    vertex 30.585786437626922 97.33354058040396 0.0
  endloop
endfacet
facet normal 0.0 0.0 -1.0
  outer loop
    vertex 30.58578643762691 56.90511345565776 0.0
    vertex 30.585786437626922 97.33354058040396 0.0
    vertex 30.782477141982564 56.732620337448374 0.0
  endloop
endfacet
facet normal 0.0 0.0 -1.0
  outer loop
    vertex 30.782477141982564 56.732620337448374 0.0
    vertex 30.585786437626922 97.33354058040396 0.0
    vertex 30.78247714198257 97.50603369861334 0.0
  endloop
endfacet
facet normal 0.0 0.0 -1.0
  outer loop
    vertex 30.782477141982564 56.732620337448374 0.0
    vertex 30.78247714198257 97.50603369861334 0.0
    vertex 31.000000000000004 56.58727621046197 0.0
  endloop
endfacet
facet normal 0.0 0.0 -1.0
  outer loop
    vertex 31.000000000000004 56.58727621046197 0.0
    vertex 30.78247714198257 97.50603369861334 0.0
    vertex 31.00000000000001 97.65137782559974 0.0
  endloop
endfacet
facet normal 0.0 0.0 -1.0
  outer loop
    vertex 31.000000000000004 56.58727621046197 0.0
    vertex 31.00000000000001 97.65137782559974 0.0
    vertex 31.234633135269828 56.471567953008275 0.0
  endloop
endfacet
facet normal 0.0 0.0 -1.0
  outer loop
    vertex 31.234633135269828 56.471567953008275 0.0
    vertex 31.00000000000001 97.65137782559974 0.0
    vertex 31.234633135269828 97.76708608305343 0.0
  endloop
endfacet
facet normal 0.0 0.0 -1.0
  outer loop
    vertex 31.234633135269828 56.471567953008275 0.0
    vertex 31.234633135269828 97.76708608305343 0.0
    vertex 31.482361909794964 97.85117867060899 0.0
  endloop
endfacet
facet normal 0.0 0.0 -1.0
  outer loop
    vertex 31.234633135269828 56.471567953008275 0.0
    vertex 31.482361909794964 97.85117867060899 0.0
    vertex 31.482361909794964 56.387475365452715 0.0
  endloop
endfacet
facet normal 0.0 0.0 -1.0
  outer loop
    vertex 31.482361909794964 56.387475365452715 0.0
    vertex 31.482361909794964 97.85117867060899 0.0
    vertex 32.0 97.91932701803086 0.0
  endloop
endfacet
facet normal 0.0 0.0 -1.0
  outer loop
    vertex 31.482361909794964 56.387475365452715 0.0
    vertex 32.0 97.91932701803086 0.0
    vertex 32.0 56.319327018030855 0.0
  endloop
endfacet
facet normal 0.0 0.0 -1.0
  outer loop
    vertex 32.0 56.319327018030855 0.0
    vertex 32.0 97.91932701803086 0.0
    vertex 35.49999999999999 93.11932701803083 3.0763270718705474e-17
  endloop
endfacet
facet normal 0.0 0.0 -1.0
  outer loop
    vertex 35.49999999999999 93.11932701803083 3.0763270718705474e-17
    vertex 32.0 97.91932701803086 0.0
    vertex 42.99999999999999 97.91932701803086 0.0
  endloop
endfacet
facet normal 0.0 0.0 -1.0
  outer loop
    vertex 35.49999999999999 93.11932701803083 3.0763270718705474e-17
    vertex 42.99999999999999 97.91932701803086 0.0
    vertex 39.49999997010695 93.11932701803083 0.0
  endloop
endfacet
facet normal 0.0 0.0 -1.0
  outer loop
    vertex 39.49999997010695 93.11932701803083 0.0
    vertex 42.99999999999999 97.91932701803086 0.0
    vertex 39.49999997010695 61.11932701803087 0.0
  endloop
endfacet
facet normal 0.0 0.0 -1.0
  outer loop
    vertex 32.0 56.319327018030855 0.0
    vertex 35.49999999999999 61.11932701803087 3.0763270718705474e-17
    vertex 42.99999999999999 56.319327018030855 0.0
  endloop
endfacet
facet normal 0.0 0.0 -1.0
  outer loop
    vertex 35.49999999999999 61.11932701803087 3.0763270718705474e-17
    vertex 32.0 56.319327018030855 0.0
    vertex 35.49999999999999 93.11932701803083 3.0763270718705474e-17
  endloop
endfacet
facet normal 0.0 0.0 -1.0
  outer loop
    vertex 42.99999999999999 56.319327018030855 0.0
    vertex 35.49999999999999 61.11932701803087 3.0763270718705474e-17
    vertex 39.49999997010695 61.11932701803087 0.0
  endloop
endfacet
facet normal 0.0 0.0 -1.0
  outer loop
    vertex 42.99999999999999 56.319327018030855 0.0
    vertex 39.49999997010695 61.11932701803087 0.0
    vertex 42.99999999999999 97.91932701803086 0.0
  endloop
endfacet
facet normal 0.0 0.0 -1.0
  outer loop
    vertex 42.99999999999999 56.319327018030855 0.0
    vertex 42.99999999999999 97.91932701803086 0.0
    vertex 43.51763809020503 97.85117867060899 0.0
  endloop
endfacet
facet normal 0.0 0.0 -1.0
  outer loop
    vertex 42.99999999999999 56.319327018030855 0.0
    vertex 43.51763809020503 97.85117867060899 0.0
    vertex 43.51763809020503 56.387475365452715 0.0
  endloop
endfacet
facet normal 0.0 0.0 -1.0
  outer loop
    vertex 43.51763809020503 56.387475365452715 0.0
    vertex 43.51763809020503 97.85117867060899 0.0
    vertex 43.76536686473017 97.76708608305343 0.0
  endloop
endfacet
facet normal 0.0 0.0 -1.0
  outer loop
    vertex 43.51763809020503 56.387475365452715 0.0
    vertex 43.76536686473017 97.76708608305343 0.0
    vertex 43.76536686473017 56.471567953008275 0.0
  endloop
endfacet
facet normal 0.0 0.0 -1.0
  outer loop
    vertex 43.76536686473017 56.471567953008275 0.0
    vertex 43.76536686473017 97.76708608305343 0.0
    vertex 43.99999999999999 97.65137782559974 0.0
  endloop
endfacet
facet normal 0.0 0.0 -1.0
  outer loop
    vertex 43.76536686473017 56.471567953008275 0.0
    vertex 43.99999999999999 97.65137782559974 0.0
    vertex 43.99999999999999 56.58727621046197 0.0
  endloop
endfacet
facet normal 0.0 0.0 -1.0
  outer loop
    vertex 43.99999999999999 56.58727621046197 0.0
    vertex 43.99999999999999 97.65137782559974 0.0
    vertex 44.21752285801743 97.50603369861334 0.0
  endloop
endfacet
facet normal 0.0 0.0 -1.0
  outer loop
    vertex 43.99999999999999 56.58727621046197 0.0
    vertex 44.21752285801743 97.50603369861334 0.0
    vertex 44.21752285801743 56.732620337448374 0.0
  endloop
endfacet
facet normal 0.0 0.0 -1.0
  outer loop
    vertex 44.21752285801743 56.732620337448374 0.0
    vertex 44.21752285801743 97.50603369861334 0.0
    vertex 44.414213562373085 97.33354058040395 0.0
  endloop
endfacet
facet normal 0.0 0.0 -1.0
  outer loop
    vertex 44.21752285801743 56.732620337448374 0.0
    vertex 44.414213562373085 97.33354058040395 0.0
    vertex 44.414213562373085 56.90511345565776 0.0
  endloop
endfacet
facet normal 0.0 0.0 -1.0
  outer loop
    vertex 44.414213562373085 56.90511345565776 0.0
    vertex 44.414213562373085 97.33354058040395 0.0
    vertex 44.58670668058246 97.1368498760483 0.0
  endloop
endfacet
facet normal 0.0 0.0 -1.0
  outer loop
    vertex 44.414213562373085 56.90511345565776 0.0
    vertex 44.58670668058246 97.1368498760483 0.0
    vertex 44.58670668058246 57.10180416001341 0.0
  endloop
endfacet
facet normal 0.0 0.0 -1.0
  outer loop
    vertex 44.58670668058246 57.10180416001341 0.0
    vertex 44.58670668058246 97.1368498760483 0.0
    vertex 44.73205080756887 96.91932701803086 0.0
  endloop
endfacet
facet normal 0.0 0.0 -1.0
  outer loop
    vertex 44.58670668058246 57.10180416001341 0.0
    vertex 44.73205080756887 96.91932701803086 0.0
    vertex 44.73205080756887 57.31932701803085 0.0
  endloop
endfacet
facet normal 0.0 0.0 -1.0
  outer loop
    vertex 44.73205080756887 57.31932701803085 0.0
    vertex 44.73205080756887 96.91932701803086 0.0
    vertex 44.847759065022565 96.68469388276104 0.0
  endloop
endfacet
facet normal 0.0 0.0 -1.0
  outer loop
    vertex 44.73205080756887 57.31932701803085 0.0
    vertex 44.847759065022565 96.68469388276104 0.0
    vertex 44.847759065022565 57.553960153300665 0.0
  endloop
endfacet
facet normal 0.0 0.0 -1.0
  outer loop
    vertex 44.847759065022565 57.553960153300665 0.0
    vertex 44.847759065022565 96.68469388276104 0.0
    vertex 44.931851652578125 96.43696510823591 0.0
  endloop
endfacet
facet normal 0.0 0.0 -1.0
  outer loop
    vertex 44.847759065022565 57.553960153300665 0.0
    vertex 44.931851652578125 96.43696510823591 0.0
    vertex 44.931851652578125 57.8016889278258 0.0
  endloop
endfacet
facet normal 0.0 0.0 -1.0
  outer loop
    vertex 44.931851652578125 57.8016889278258 0.0
    vertex 44.931851652578125 96.43696510823591 0.0
    vertex 44.99999999999999 95.91932701803086 0.0
  endloop
endfacet
facet normal 0.0 0.0 -1.0
  outer loop
    vertex 44.931851652578125 57.8016889278258 0.0
    vertex 44.99999999999999 95.91932701803086 0.0
    vertex 44.9999998882413 84.61932701803084 0.0
  endloop
endfacet
facet normal 0.0 0.0 -1.0
  outer loop
    vertex 44.9999998882413 84.61932701803084 0.0
    vertex 44.99999999999999 58.31932701803085 0.0
    vertex 44.931851652578125 57.8016889278258 0.0
  endloop
endfacet
facet normal 0.0 0.0 -1.0
  outer loop
    vertex 44.99999999999999 58.31932701803085 0.0
    vertex 44.9999998882413 84.61932701803084 0.0
    vertex 44.99999999999999 69.61932701803087 0.0
  endloop
endfacet
facet normal 0.0 0.0 -1.0
  outer loop
    vertex 22.755556302831984 79.06046985629976 0.0
    vertex 22.755556302831987 75.17818417976196 0.0
    vertex 22.5 77.11932701803086 0.0
  endloop
endfacet
facet normal 0.0 0.0 -1.0
  outer loop
    vertex 22.755556302831987 75.17818417976196 0.0
    vertex 22.755556302831984 79.06046985629976 0.0
    vertex 23.504809471616706 80.86932701803086 0.0
  endloop
endfacet
facet normal 0.0 0.0 -1.0
  outer loop
    vertex 22.755556302831987 75.17818417976196 0.0
    vertex 23.504809471616706 80.86932701803086 0.0
    vertex 23.50480947161671 73.36932701803086 0.0
  endloop
endfacet
facet normal 0.0 0.0 -1.0
  outer loop
    vertex 23.50480947161671 73.36932701803086 0.0
    vertex 23.504809471616706 80.86932701803086 0.0
    vertex 24.696699141100893 82.42262787692997 0.0
  endloop
endfacet
facet normal 0.0 0.0 -1.0
  outer loop
    vertex 23.50480947161671 73.36932701803086 0.0
    vertex 24.696699141100893 82.42262787692997 0.0
    vertex 24.696699141100893 71.81602615913175 0.0
  endloop
endfacet
facet normal 0.0 0.0 -1.0
  outer loop
    vertex 24.696699141100893 71.81602615913175 0.0
    vertex 24.696699141100893 82.42262787692997 0.0
    vertex 26.250000000000004 83.61451754641415 0.0
  endloop
endfacet
facet normal 0.0 0.0 -1.0
  outer loop
    vertex 24.696699141100893 71.81602615913175 0.0
    vertex 26.250000000000004 83.61451754641415 0.0
    vertex 26.250000000000004 70.62413648964755 0.0
  endloop
endfacet
facet normal 0.0 0.0 -1.0
  outer loop
    vertex 26.250000000000004 70.62413648964755 0.0
    vertex 26.250000000000004 83.61451754641415 0.0
    vertex 28.058857161731098 84.36377071519887 0.0
  endloop
endfacet
facet normal 0.0 0.0 -1.0
  outer loop
    vertex 26.250000000000004 70.62413648964755 0.0
    vertex 28.058857161731098 84.36377071519887 0.0
    vertex 28.058857161731098 69.87488332086285 0.0
  endloop
endfacet
facet normal 0.0 0.0 -1.0
  outer loop
    vertex 28.058857161731098 69.87488332086285 0.0
    vertex 28.058857161731098 84.36377071519887 0.0
    vertex 30.0 84.61932701803087 0.0
  endloop
endfacet
facet normal 0.0 0.0 -1.0
  outer loop
    vertex 28.058857161731098 69.87488332086285 0.0
    vertex 30.0 84.61932701803087 0.0
    vertex 30.0 69.61932701803084 0.0
  endloop
endfacet
facet normal 0.0 0.0 -1.0
  outer loop
    vertex 46.94114273931417 84.36377074171371 0.0
    vertex 44.99999999999999 69.61932701803087 0.0
    vertex 44.9999998882413 84.61932701803084 0.0
  endloop
endfacet
facet normal 0.0 0.0 -1.0
  outer loop
    vertex 44.99999999999999 69.61932701803087 0.0
    vertex 46.94114273931417 84.36377074171371 0.0
    vertex 46.94114284726478 69.8748833232733 0.0
  endloop
endfacet
facet normal 0.0 0.0 -1.0
  outer loop
    vertex 46.94114284726478 69.8748833232733 0.0
    vertex 46.94114273931417 84.36377074171371 0.0
    vertex 48.74999991934509 83.61451759298026 0.0
  endloop
endfacet
facet normal 0.0 0.0 -1.0
  outer loop
    vertex 46.94114284726478 69.8748833232733 0.0
    vertex 48.74999991934509 83.61451759298026 0.0
    vertex 48.75000001613096 70.6241364989608 0.0
  endloop
endfacet
facet normal 0.0 0.0 -1.0
  outer loop
    vertex 48.75000001613096 70.6241364989608 0.0
    vertex 48.74999991934509 83.61451759298026 0.0
    vertex 50.3033007996301 82.42262793619896 0.0
  endloop
endfacet
facet normal 0.0 0.0 -1.0
  outer loop
    vertex 48.75000001613096 70.6241364989608 0.0
    vertex 50.3033007996301 82.42262793619896 0.0
    vertex 50.30330087865543 71.81602617888808 0.0
  endloop
endfacet
facet normal 0.0 0.0 -1.0
  outer loop
    vertex 50.30330087865543 71.81602617888808 0.0
    vertex 50.3033007996301 82.42262793619896 0.0
    vertex 51.49519049113037 80.86932708255476 0.0
  endloop
endfacet
facet normal 0.0 0.0 -1.0
  outer loop
    vertex 50.30330087865543 71.81602617888808 0.0
    vertex 51.49519049113037 80.86932708255476 0.0
    vertex 51.49519054700973 73.36932705029281 0.0
  endloop
endfacet
facet normal 0.0 0.0 -1.0
  outer loop
    vertex 51.49519054700973 73.36932705029281 0.0
    vertex 51.49519049113037 80.86932708255476 0.0
    vertex 52.24444368029492 79.06046991927096 0.0
  endloop
endfacet
facet normal 0.0 0.0 -1.0
  outer loop
    vertex 51.49519054700973 73.36932705029281 0.0
    vertex 52.24444368029492 79.06046991927096 0.0
    vertex 52.24444370922019 75.17818422474137 0.0
  endloop
endfacet
facet normal 0.0 0.0 -1.0
  outer loop
    vertex 52.24444370922019 75.17818422474137 0.0
    vertex 52.24444368029492 79.06046991927096 0.0
    vertex 52.49999999999999 77.11932707391021 0.0
  endloop
endfacet
facet normal 0.0 0.0 1.0
  outer loop
    vertex 30.000000000000007 58.31932701803085 29.500000000000004
    vertex 30.0 84.61932701803087 29.500000000000004
    vertex 30.0 69.61932701803084 29.500000000000004
  endloop
endfacet
facet normal 0.0 0.0 1.0
  outer loop
    vertex 30.0 84.61932701803087 29.500000000000004
    vertex 30.000000000000007 58.31932701803085 29.500000000000004
    vertex 30.000000000000018 95.91932701803087 29.500000000000004
  endloop
endfacet
facet normal 0.0 0.0 1.0
  outer loop
    vertex 30.000000000000018 95.91932701803087 29.500000000000004
    vertex 30.000000000000007 58.31932701803085 29.500000000000004
    vertex 30.06814834742187 57.8016889278258 29.500000000000004
  endloop
endfacet
facet normal 0.0 0.0 1.0
  outer loop
    vertex 30.000000000000018 95.91932701803087 29.500000000000004
    vertex 30.06814834742187 57.8016889278258 29.500000000000004
    vertex 30.068148347421882 96.43696510823591 29.500000000000004
  endloop
endfacet
facet normal 0.0 0.0 1.0
  outer loop
    vertex 30.068148347421882 96.43696510823591 29.500000000000004
    vertex 30.06814834742187 57.8016889278258 29.500000000000004
    vertex 30.152240934977435 57.553960153300665 29.500000000000004
  endloop
endfacet
facet normal 0.0 0.0 1.0
  outer loop
    vertex 30.068148347421882 96.43696510823591 29.500000000000004
    vertex 30.152240934977435 57.553960153300665 29.500000000000004
    vertex 30.152240934977446 96.68469388276104 29.500000000000004
  endloop
endfacet
facet normal 0.0 0.0 1.0
  outer loop
    vertex 30.152240934977446 96.68469388276104 29.500000000000004
    vertex 30.152240934977435 57.553960153300665 29.500000000000004
    vertex 30.267949192431132 57.31932701803085 29.500000000000004
  endloop
endfacet
facet normal 0.0 0.0 1.0
  outer loop
    vertex 30.152240934977446 96.68469388276104 29.500000000000004
    vertex 30.267949192431132 57.31932701803085 29.500000000000004
    vertex 30.267949192431143 96.91932701803087 29.500000000000004
  endloop
endfacet
facet normal 0.0 0.0 1.0
  outer loop
    vertex 30.267949192431143 96.91932701803087 29.500000000000004
    vertex 30.267949192431132 57.31932701803085 29.500000000000004
    vertex 30.413293319417537 57.10180416001341 29.500000000000004
  endloop
endfacet
facet normal 0.0 0.0 1.0
  outer loop
    vertex 30.267949192431143 96.91932701803087 29.500000000000004
    vertex 30.413293319417537 57.10180416001341 29.500000000000004
    vertex 30.413293319417544 97.1368498760483 29.500000000000004
  endloop
endfacet
facet normal 0.0 0.0 1.0
  outer loop
    vertex 30.413293319417544 97.1368498760483 29.500000000000004
    vertex 30.413293319417537 57.10180416001341 29.500000000000004
    vertex 30.58578643762691 56.90511345565776 29.500000000000004
  endloop
endfacet
facet normal 0.0 0.0 1.0
  outer loop
    vertex 30.413293319417544 97.1368498760483 29.500000000000004
    vertex 30.58578643762691 56.90511345565776 29.500000000000004
    vertex 30.585786437626922 97.33354058040396 29.500000000000004
  endloop
endfacet
facet normal 0.0 0.0 1.0
  outer loop
    vertex 30.585786437626922 97.33354058040396 29.500000000000004
    vertex 30.58578643762691 56.90511345565776 29.500000000000004
    vertex 30.782477141982564 56.732620337448374 29.500000000000004
  endloop
endfacet
facet normal 0.0 0.0 1.0
  outer loop
    vertex 30.585786437626922 97.33354058040396 29.500000000000004
    vertex 30.782477141982564 56.732620337448374 29.500000000000004
    vertex 30.78247714198257 97.50603369861334 29.500000000000004
  endloop
endfacet
facet normal 0.0 0.0 1.0
  outer loop
    vertex 30.78247714198257 97.50603369861334 29.500000000000004
    vertex 30.782477141982564 56.732620337448374 29.500000000000004
    vertex 31.000000000000004 56.58727621046197 29.500000000000004
  endloop
endfacet
facet normal 0.0 0.0 1.0
  outer loop
    vertex 30.78247714198257 97.50603369861334 29.500000000000004
    vertex 31.000000000000004 56.58727621046197 29.500000000000004
    vertex 31.00000000000001 97.65137782559974 29.500000000000004
  endloop
endfacet
facet normal 0.0 0.0 1.0
  outer loop
    vertex 31.00000000000001 97.65137782559974 29.500000000000004
    vertex 31.000000000000004 56.58727621046197 29.500000000000004
    vertex 31.234633135269828 56.471567953008275 29.500000000000004
  endloop
endfacet
facet normal 0.0 0.0 1.0
  outer loop
    vertex 31.00000000000001 97.65137782559974 29.500000000000004
    vertex 31.234633135269828 56.471567953008275 29.500000000000004
    vertex 31.234633135269828 97.76708608305343 29.500000000000004
  endloop
endfacet
facet normal 0.0 0.0 1.0
  outer loop
    vertex 31.234633135269828 97.76708608305343 29.500000000000004
    vertex 31.234633135269828 56.471567953008275 29.500000000000004
    vertex 31.482361909794964 56.387475365452715 29.500000000000004
  endloop
endfacet
facet normal 0.0 0.0 1.0
  outer loop
    vertex 31.234633135269828 97.76708608305343 29.500000000000004
    vertex 31.482361909794964 56.387475365452715 29.500000000000004
    vertex 31.482361909794964 97.85117867060899 29.500000000000004
  endloop
endfacet
facet normal 0.0 0.0 1.0
  outer loop
    vertex 31.482361909794964 97.85117867060899 29.500000000000004
    vertex 31.482361909794964 56.387475365452715 29.500000000000004
    vertex 32.0 56.319327018030855 29.500000000000004
  endloop
endfacet
facet normal 0.0 0.0 1.0
  outer loop
    vertex 31.482361909794964 97.85117867060899 29.500000000000004
    vertex 32.0 56.319327018030855 29.500000000000004
    vertex 32.0 97.91932701803086 29.500000000000004
  endloop
endfacet
facet normal 0.0 0.0 1.0
  outer loop
    vertex 32.0 97.91932701803086 29.500000000000004
    vertex 32.0 56.319327018030855 29.500000000000004
    vertex 36.75 70.61932701803083 29.500000000000004
  endloop
endfacet
facet normal 0.0 0.0 1.0
  outer loop
    vertex 36.75 70.61932701803083 29.500000000000004
    vertex 32.0 56.319327018030855 29.500000000000004
    vertex 42.99999999999999 56.319327018030855 29.500000000000004
  endloop
endfacet
facet normal 0.0 0.0 1.0
  outer loop
    vertex 36.75 70.61932701803083 29.500000000000004
    vertex 42.99999999999999 56.319327018030855 29.500000000000004
    vertex 38.25 70.61932701803083 29.500000000000004
  endloop
endfacet
facet normal 0.0 0.0 1.0
  outer loop
    vertex 38.25 70.61932701803083 29.500000000000004
    vertex 42.99999999999999 56.319327018030855 29.500000000000004
    vertex 38.25 83.61932701803084 29.500000000000004
  endloop
endfacet
facet normal 0.0 0.0 1.0
  outer loop
    vertex 32.0 97.91932701803086 29.500000000000004
    vertex 36.75 83.61932701803084 29.500000000000004
    vertex 42.99999999999999 97.91932701803086 29.500000000000004
  endloop
endfacet
facet normal 0.0 0.0 1.0
  outer loop
    vertex 36.75 83.61932701803084 29.500000000000004
    vertex 32.0 97.91932701803086 29.500000000000004
    vertex 36.75 70.61932701803083 29.500000000000004
  endloop
endfacet
facet normal 0.0 0.0 1.0
  outer loop
    vertex 42.99999999999999 97.91932701803086 29.500000000000004
    vertex 36.75 83.61932701803084 29.500000000000004
    vertex 38.25 83.61932701803084 29.500000000000004
  endloop
endfacet
facet normal 0.0 0.0 1.0
  outer loop
    vertex 42.99999999999999 97.91932701803086 29.500000000000004
    vertex 38.25 83.61932701803084 29.500000000000004
    vertex 42.99999999999999 56.319327018030855 29.500000000000004
  endloop
endfacet
facet normal 0.0 0.0 1.0
  outer loop
    vertex 42.99999999999999 97.91932701803086 29.500000000000004
    vertex 42.99999999999999 56.319327018030855 29.500000000000004
    vertex 43.51763809020503 56.387475365452715 29.500000000000004
  endloop
endfacet
facet normal 0.0 0.0 1.0
  outer loop
    vertex 42.99999999999999 97.91932701803086 29.500000000000004
    vertex 43.51763809020503 56.387475365452715 29.500000000000004
    vertex 43.51763809020503 97.85117867060899 29.500000000000004
  endloop
endfacet
facet normal 0.0 0.0 1.0
  outer loop
    vertex 43.51763809020503 97.85117867060899 29.500000000000004
    vertex 43.51763809020503 56.387475365452715 29.500000000000004
    vertex 43.76536686473017 56.471567953008275 29.500000000000004
  endloop
endfacet
facet normal 0.0 0.0 1.0
  outer loop
    vertex 43.51763809020503 97.85117867060899 29.500000000000004
    vertex 43.76536686473017 56.471567953008275 29.500000000000004
    vertex 43.76536686473017 97.76708608305343 29.500000000000004
  endloop
endfacet
facet normal 0.0 0.0 1.0
  outer loop
    vertex 43.76536686473017 97.76708608305343 29.500000000000004
    vertex 43.76536686473017 56.471567953008275 29.500000000000004
    vertex 43.99999999999999 56.58727621046197 29.500000000000004
  endloop
endfacet
facet normal 0.0 0.0 1.0
  outer loop
    vertex 43.76536686473017 97.76708608305343 29.500000000000004
    vertex 43.99999999999999 56.58727621046197 29.500000000000004
    vertex 43.99999999999999 97.65137782559974 29.500000000000004
  endloop
endfacet
facet normal 0.0 0.0 1.0
  outer loop
    vertex 43.99999999999999 97.65137782559974 29.500000000000004
    vertex 43.99999999999999 56.58727621046197 29.500000000000004
    vertex 44.21752285801743 56.732620337448374 29.500000000000004
  endloop
endfacet
facet normal 0.0 0.0 1.0
  outer loop
    vertex 43.99999999999999 97.65137782559974 29.500000000000004
    vertex 44.21752285801743 56.732620337448374 29.500000000000004
    vertex 44.21752285801743 97.50603369861334 29.500000000000004
  endloop
endfacet
facet normal 0.0 0.0 1.0
  outer loop
    vertex 44.21752285801743 97.50603369861334 29.500000000000004
    vertex 44.21752285801743 56.732620337448374 29.500000000000004
    vertex 44.414213562373085 56.90511345565776 29.500000000000004
  endloop
endfacet
facet normal 0.0 0.0 1.0
  outer loop
    vertex 44.21752285801743 97.50603369861334 29.500000000000004
    vertex 44.414213562373085 56.90511345565776 29.500000000000004
    vertex 44.414213562373085 97.33354058040395 29.500000000000004
  endloop
endfacet
facet normal 0.0 0.0 1.0
  outer loop
    vertex 44.414213562373085 97.33354058040395 29.500000000000004
    vertex 44.414213562373085 56.90511345565776 29.500000000000004
    vertex 44.58670668058246 57.10180416001341 29.500000000000004
  endloop
endfacet
facet normal 0.0 0.0 1.0
  outer loop
    vertex 44.414213562373085 97.33354058040395 29.500000000000004
    vertex 44.58670668058246 57.10180416001341 29.500000000000004
    vertex 44.58670668058246 97.1368498760483 29.500000000000004
  endloop
endfacet
facet normal 0.0 0.0 1.0
  outer loop
    vertex 44.58670668058246 97.1368498760483 29.500000000000004
    vertex 44.58670668058246 57.10180416001341 29.500000000000004
    vertex 44.73205080756887 57.31932701803085 29.500000000000004
  endloop
endfacet
facet normal 0.0 0.0 1.0
  outer loop
    vertex 44.58670668058246 97.1368498760483 29.500000000000004
    vertex 44.73205080756887 57.31932701803085 29.500000000000004
    vertex 44.73205080756887 96.91932701803086 29.500000000000004
  endloop
endfacet
facet normal 0.0 0.0 1.0
  outer loop
    vertex 44.73205080756887 96.91932701803086 29.500000000000004
    vertex 44.73205080756887 57.31932701803085 29.500000000000004
    vertex 44.847759065022565 57.553960153300665 29.500000000000004
  endloop
endfacet
facet normal 0.0 0.0 1.0
  outer loop
    vertex 44.73205080756887 96.91932701803086 29.500000000000004
    vertex 44.847759065022565 57.553960153300665 29.500000000000004
    vertex 44.847759065022565 96.68469388276104 29.500000000000004
  endloop
endfacet
facet normal 0.0 0.0 1.0
  outer loop
    vertex 44.847759065022565 96.68469388276104 29.500000000000004
    vertex 44.847759065022565 57.553960153300665 29.500000000000004
    vertex 44.931851652578125 57.8016889278258 29.500000000000004
  endloop
endfacet
facet normal 0.0 0.0 1.0
  outer loop
    vertex 44.847759065022565 96.68469388276104 29.500000000000004
    vertex 44.931851652578125 57.8016889278258 29.500000000000004
    vertex 44.931851652578125 96.43696510823591 29.500000000000004
  endloop
endfacet
facet normal 0.0 0.0 1.0
  outer loop
    vertex 44.931851652578125 96.43696510823591 29.500000000000004
    vertex 44.931851652578125 57.8016889278258 29.500000000000004
    vertex 44.99999999999999 58.31932701803085 29.500000000000004
  endloop
endfacet
facet normal 0.0 0.0 1.0
  outer loop
    vertex 44.931851652578125 96.43696510823591 29.500000000000004
    vertex 44.99999999999999 58.31932701803085 29.500000000000004
    vertex 44.9999998882413 84.61932701803084 29.500000000000004
  endloop
endfacet
facet normal 0.0 0.0 1.0
  outer loop
    vertex 44.9999998882413 84.61932701803084 29.500000000000004
    vertex 44.99999999999999 58.31932701803085 29.500000000000004
    vertex 44.99999999999999 69.61932701803087 29.500000000000004
  endloop
endfacet
facet normal 0.0 0.0 1.0
  outer loop
    vertex 44.99999999999999 95.91932701803086 29.500000000000004
    vertex 44.931851652578125 96.43696510823591 29.500000000000004
    vertex 44.9999998882413 84.61932701803084 29.500000000000004
  endloop
endfacet
facet normal -0.0 1.0 0.0
  outer loop
    vertex 32.0 97.91932701803086 29.500000000000004
    vertex 42.99999999999999 97.91932701803086 0.0
    vertex 32.0 97.91932701803086 0.0
  endloop
endfacet
facet normal -0.0 1.0 0.0
  outer loop
    vertex 42.99999999999999 97.91932701803086 0.0
    vertex 32.0 97.91932701803086 29.500000000000004
    vertex 42.99999999999999 97.91932701803086 29.500000000000004
  endloop
endfacet
facet normal 0.13052619222005216 0.9914448613738104 0.0
  outer loop
    vertex 42.99999999999999 97.91932701803086 29.500000000000004
    vertex 43.51763809020503 97.85117867060899 0.0
    vertex 42.99999999999999 97.91932701803086 0.0
  endloop
endfacet
facet normal 0.13052619222005216 0.9914448613738104 0.0
  outer loop
    vertex 43.51763809020503 97.85117867060899 0.0
    vertex 42.99999999999999 97.91932701803086 29.500000000000004
    vertex 43.51763809020503 97.85117867060899 29.500000000000004
  endloop
endfacet
facet normal 0.32143946530316714 0.9469301294951038 0.0
  outer loop
    vertex 43.51763809020503 97.85117867060899 29.500000000000004
    vertex 43.76536686473017 97.76708608305343 0.0
    vertex 43.51763809020503 97.85117867060899 0.0
  endloop
endfacet
facet normal 0.32143946530316714 0.9469301294951038 0.0
  outer loop
    vertex 43.76536686473017 97.76708608305343 0.0
    vertex 43.51763809020503 97.85117867060899 29.500000000000004
    vertex 43.76536686473017 97.76708608305343 29.500000000000004
  endloop
endfacet
facet normal 0.44228869021898104 0.8968727415326984 0.0
  outer loop
    vertex 43.76536686473017 97.76708608305343 29.500000000000004
    vertex 43.99999999999999 97.65137782559974 0.0
    vertex 43.76536686473017 97.76708608305343 0.0
  endloop
endfacet
facet normal 0.44228869021898104 0.8968727415326984 0.0
  outer loop
    vertex 43.99999999999999 97.65137782559974 0.0
    vertex 43.76536686473017 97.76708608305343 29.500000000000004
    vertex 43.99999999999999 97.65137782559974 29.500000000000004
  endloop
endfacet
facet normal 0.5555702330196023 0.8314696123025453 0.0
  outer loop
    vertex 43.99999999999999 97.65137782559974 29.500000000000004
    vertex 44.21752285801743 97.50603369861334 0.0
    vertex 43.99999999999999 97.65137782559974 0.0
  endloop
endfacet
facet normal 0.5555702330196023 0.8314696123025453 0.0
  outer loop
    vertex 44.21752285801743 97.50603369861334 0.0
    vertex 43.99999999999999 97.65137782559974 29.500000000000004
    vertex 44.21752285801743 97.50603369861334 29.500000000000004
  endloop
endfacet
facet normal 0.6593458151000882 0.7518398074789607 0.0
  outer loop
    vertex 44.21752285801743 97.50603369861334 29.500000000000004
    vertex 44.414213562373085 97.33354058040395 0.0
    vertex 44.21752285801743 97.50603369861334 0.0
  endloop
endfacet
facet normal 0.6593458151000882 0.7518398074789607 0.0
  outer loop
    vertex 44.414213562373085 97.33354058040395 0.0
    vertex 44.21752285801743 97.50603369861334 29.500000000000004
    vertex 44.414213562373085 97.33354058040395 29.500000000000004
  endloop
endfacet
facet normal 0.7518398074789725 0.6593458151000744 0.0
  outer loop
    vertex 44.414213562373085 97.33354058040395 0.0
    vertex 44.58670668058246 97.1368498760483 29.500000000000004
    vertex 44.58670668058246 97.1368498760483 0.0
  endloop
endfacet
facet normal 0.7518398074789725 0.6593458151000744 0.0
  outer loop
    vertex 44.58670668058246 97.1368498760483 29.500000000000004
    vertex 44.414213562373085 97.33354058040395 0.0
    vertex 44.414213562373085 97.33354058040395 29.500000000000004
  endloop
endfacet
facet normal 0.8314696123025453 0.5555702330196023 0.0
  outer loop
    vertex 44.58670668058246 97.1368498760483 0.0
    vertex 44.73205080756887 96.91932701803086 29.500000000000004
    vertex 44.73205080756887 96.91932701803086 0.0
  endloop
endfacet
facet normal 0.8314696123025453 0.5555702330196023 0.0
  outer loop
    vertex 44.73205080756887 96.91932701803086 29.500000000000004
    vertex 44.58670668058246 97.1368498760483 0.0
    vertex 44.58670668058246 97.1368498760483 29.500000000000004
  endloop
endfacet
facet normal 0.8968727415326856 0.44228869021900696 0.0
  outer loop
    vertex 44.73205080756887 96.91932701803086 0.0
    vertex 44.847759065022565 96.68469388276104 29.500000000000004
    vertex 44.847759065022565 96.68469388276104 0.0
  endloop
endfacet
facet normal 0.8968727415326856 0.44228869021900696 0.0
  outer loop
    vertex 44.847759065022565 96.68469388276104 29.500000000000004
    vertex 44.73205080756887 96.91932701803086 0.0
    vertex 44.73205080756887 96.91932701803086 29.500000000000004
  endloop
endfacet
facet normal 0.9469301294951038 0.32143946530316714 0.0
  outer loop
    vertex 44.847759065022565 96.68469388276104 0.0
    vertex 44.931851652578125 96.43696510823591 29.500000000000004
    vertex 44.931851652578125 96.43696510823591 0.0
  endloop
endfacet
facet normal 0.9469301294951038 0.32143946530316714 0.0
  outer loop
    vertex 44.931851652578125 96.43696510823591 29.500000000000004
    vertex 44.847759065022565 96.68469388276104 0.0
    vertex 44.847759065022565 96.68469388276104 29.500000000000004
  endloop
endfacet
facet normal 0.9914448613738106 0.13052619222005077 0.0
  outer loop
    vertex 44.931851652578125 96.43696510823591 0.0
    vertex 44.99999999999999 95.91932701803086 29.500000000000004
    vertex 44.99999999999999 95.91932701803086 0.0
  endloop
endfacet
facet normal 0.9914448613738106 0.13052619222005077 0.0
  outer loop
    vertex 44.99999999999999 95.91932701803086 29.500000000000004
    vertex 44.931851652578125 96.43696510823591 0.0
    vertex 44.931851652578125 96.43696510823591 29.500000000000004
  endloop
endfacet
facet normal 1.0 -9.890150012626799e-09 1.685311013884682e-25
  outer loop
    vertex 44.99999999999999 95.91932701803086 0.0
    vertex 44.9999998882413 84.61932701803084 3.0
    vertex 44.9999998882413 84.61932701803084 0.0
  endloop
endfacet
facet normal 1.0 -9.890150012626799e-09 1.685311013884682e-25
  outer loop
    vertex 44.9999998882413 84.61932701803084 3.0
    vertex 44.99999999999999 95.91932701803086 0.0
    vertex 44.9999998882413 84.61932701803084 29.500000000000004
  endloop
endfacet
facet normal 1.0 -9.890150012626799e-09 1.685311013884682e-25
  outer loop
    vertex 44.9999998882413 84.61932701803084 29.500000000000004
    vertex 44.99999999999999 95.91932701803086 0.0
    vertex 44.99999999999999 95.91932701803086 29.500000000000004
  endloop
endfacet
facet normal 1.0 7.45057967617888e-09 9.055794846984646e-33
  outer loop
    vertex 44.9999998882413 84.61932701803084 3.0
    vertex 44.99999999999999 69.61932701803087 29.500000000000004
    vertex 44.99999999999999 69.61932701803087 3.0
  endloop
endfacet
facet normal 1.0 7.45057967617888e-09 9.055794846984646e-33
  outer loop
    vertex 44.99999999999999 69.61932701803087 29.500000000000004
    vertex 44.9999998882413 84.61932701803084 3.0
    vertex 44.9999998882413 84.61932701803084 29.500000000000004
  endloop
endfacet
facet normal 1.0 -0.0 -0.0
  outer loop
    vertex 44.99999999999999 69.61932701803087 0.0
    vertex 44.99999999999999 58.31932701803085 29.500000000000004
    vertex 44.99999999999999 58.31932701803085 0.0
  endloop
endfacet
facet normal 1.0 -0.0 -0.0
  outer loop
    vertex 44.99999999999999 58.31932701803085 29.500000000000004
    vertex 44.99999999999999 69.61932701803087 0.0
    vertex 44.99999999999999 69.61932701803087 29.500000000000004
  endloop
endfacet
facet normal 1.0 -0.0 -0.0
  outer loop
    vertex 44.99999999999999 69.61932701803087 29.500000000000004
    vertex 44.99999999999999 69.61932701803087 0.0
    vertex 44.99999999999999 69.61932701803087 3.0
  endloop
endfacet
facet normal 0.9914448613738106 -0.13052619222005077 0.0
  outer loop
    vertex 44.99999999999999 58.31932701803085 0.0
    vertex 44.931851652578125 57.8016889278258 29.500000000000004
    vertex 44.931851652578125 57.8016889278258 0.0
  endloop
endfacet
facet normal 0.9914448613738106 -0.13052619222005077 0.0
  outer loop
    vertex 44.931851652578125 57.8016889278258 29.500000000000004
    vertex 44.99999999999999 58.31932701803085 0.0
    vertex 44.99999999999999 58.31932701803085 29.500000000000004
  endloop
endfacet
facet normal 0.9469301294951038 -0.32143946530316714 0.0
  outer loop
    vertex 44.931851652578125 57.8016889278258 0.0
    vertex 44.847759065022565 57.553960153300665 29.500000000000004
    vertex 44.847759065022565 57.553960153300665 0.0
  endloop
endfacet
facet normal 0.9469301294951038 -0.32143946530316714 0.0
  outer loop
    vertex 44.847759065022565 57.553960153300665 29.500000000000004
    vertex 44.931851652578125 57.8016889278258 0.0
    vertex 44.931851652578125 57.8016889278258 29.500000000000004
  endloop
endfacet
facet normal 0.8968727415326856 -0.44228869021900696 0.0
  outer loop
    vertex 44.847759065022565 57.553960153300665 0.0
    vertex 44.73205080756887 57.31932701803085 29.500000000000004
    vertex 44.73205080756887 57.31932701803085 0.0
  endloop
endfacet
facet normal 0.8968727415326856 -0.44228869021900696 0.0
  outer loop
    vertex 44.73205080756887 57.31932701803085 29.500000000000004
    vertex 44.847759065022565 57.553960153300665 0.0
    vertex 44.847759065022565 57.553960153300665 29.500000000000004
  endloop
endfacet
facet normal 0.8314696123025453 -0.5555702330196023 0.0
  outer loop
    vertex 44.73205080756887 57.31932701803085 0.0
    vertex 44.58670668058246 57.10180416001341 29.500000000000004
    vertex 44.58670668058246 57.10180416001341 0.0
  endloop
endfacet
facet normal 0.8314696123025453 -0.5555702330196023 0.0
  outer loop
    vertex 44.58670668058246 57.10180416001341 29.500000000000004
    vertex 44.73205080756887 57.31932701803085 0.0
    vertex 44.73205080756887 57.31932701803085 29.500000000000004
  endloop
endfacet
facet normal 0.7518398074789725 -0.6593458151000744 0.0
  outer loop
    vertex 44.58670668058246 57.10180416001341 0.0
    vertex 44.414213562373085 56.90511345565776 29.500000000000004
    vertex 44.414213562373085 56.90511345565776 0.0
  endloop
endfacet
facet normal 0.7518398074789725 -0.6593458151000744 0.0
  outer loop
    vertex 44.414213562373085 56.90511345565776 29.500000000000004
    vertex 44.58670668058246 57.10180416001341 0.0
    vertex 44.58670668058246 57.10180416001341 29.500000000000004
  endloop
endfacet
facet normal 0.6593458151000882 -0.7518398074789607 0.0
  outer loop
    vertex 44.414213562373085 56.90511345565776 29.500000000000004
    vertex 44.21752285801743 56.732620337448374 0.0
    vertex 44.414213562373085 56.90511345565776 0.0
  endloop
endfacet
facet normal 0.6593458151000882 -0.7518398074789607 0.0
  outer loop
    vertex 44.21752285801743 56.732620337448374 0.0
    vertex 44.414213562373085 56.90511345565776 29.500000000000004
    vertex 44.21752285801743 56.732620337448374 29.500000000000004
  endloop
endfacet
facet normal 0.5555702330196023 -0.8314696123025453 0.0
  outer loop
    vertex 44.21752285801743 56.732620337448374 29.500000000000004
    vertex 43.99999999999999 56.58727621046197 0.0
    vertex 44.21752285801743 56.732620337448374 0.0
  endloop
endfacet
facet normal 0.5555702330196023 -0.8314696123025453 0.0
  outer loop
    vertex 43.99999999999999 56.58727621046197 0.0
    vertex 44.21752285801743 56.732620337448374 29.500000000000004
    vertex 43.99999999999999 56.58727621046197 29.500000000000004
  endloop
endfacet
facet normal 0.44228869021898104 -0.8968727415326984 0.0
  outer loop
    vertex 43.99999999999999 56.58727621046197 29.500000000000004
    vertex 43.76536686473017 56.471567953008275 0.0
    vertex 43.99999999999999 56.58727621046197 0.0
  endloop
endfacet
facet normal 0.44228869021898104 -0.8968727415326984 0.0
  outer loop
    vertex 43.76536686473017 56.471567953008275 0.0
    vertex 43.99999999999999 56.58727621046197 29.500000000000004
    vertex 43.76536686473017 56.471567953008275 29.500000000000004
  endloop
endfacet
facet normal 0.32143946530316714 -0.9469301294951038 0.0
  outer loop
    vertex 43.76536686473017 56.471567953008275 29.500000000000004
    vertex 43.51763809020503 56.387475365452715 0.0
    vertex 43.76536686473017 56.471567953008275 0.0
  endloop
endfacet
facet normal 0.32143946530316714 -0.9469301294951038 0.0
  outer loop
    vertex 43.51763809020503 56.387475365452715 0.0
    vertex 43.76536686473017 56.471567953008275 29.500000000000004
    vertex 43.51763809020503 56.387475365452715 29.500000000000004
  endloop
endfacet
facet normal 0.13052619222005216 -0.9914448613738104 0.0
  outer loop
    vertex 43.51763809020503 56.387475365452715 29.500000000000004
    vertex 42.99999999999999 56.319327018030855 0.0
    vertex 43.51763809020503 56.387475365452715 0.0
  endloop
endfacet
facet normal 0.13052619222005216 -0.9914448613738104 0.0
  outer loop
    vertex 42.99999999999999 56.319327018030855 0.0
    vertex 43.51763809020503 56.387475365452715 29.500000000000004
    vertex 42.99999999999999 56.319327018030855 29.500000000000004
  endloop
endfacet
facet normal -0.0 -1.0 -0.0
  outer loop
    vertex 42.99999999999999 56.319327018030855 29.500000000000004
    vertex 32.0 56.319327018030855 0.0
    vertex 42.99999999999999 56.319327018030855 0.0
  endloop
endfacet
facet normal -0.0 -1.0 -0.0
  outer loop
    vertex 32.0 56.319327018030855 0.0
    vertex 42.99999999999999 56.319327018030855 29.500000000000004
    vertex 32.0 56.319327018030855 29.500000000000004
  endloop
endfacet
facet normal -0.13052619222005216 -0.9914448613738104 -0.0
  outer loop
    vertex 32.0 56.319327018030855 29.500000000000004
    vertex 31.482361909794964 56.387475365452715 0.0
    vertex 32.0 56.319327018030855 0.0
  endloop
endfacet
facet normal -0.13052619222005216 -0.9914448613738104 -0.0
  outer loop
    vertex 31.482361909794964 56.387475365452715 0.0
    vertex 32.0 56.319327018030855 29.500000000000004
    vertex 31.482361909794964 56.387475365452715 29.500000000000004
  endloop
endfacet
facet normal -0.32143946530316714 -0.9469301294951038 -0.0
  outer loop
    vertex 31.482361909794964 56.387475365452715 29.500000000000004
    vertex 31.234633135269828 56.471567953008275 0.0
    vertex 31.482361909794964 56.387475365452715 0.0
  endloop
endfacet
facet normal -0.32143946530316714 -0.9469301294951038 -0.0
  outer loop
    vertex 31.234633135269828 56.471567953008275 0.0
    vertex 31.482361909794964 56.387475365452715 29.500000000000004
    vertex 31.234633135269828 56.471567953008275 29.500000000000004
  endloop
endfacet
facet normal -0.44228869021898104 -0.8968727415326984 -0.0
  outer loop
    vertex 31.234633135269828 56.471567953008275 29.500000000000004
    vertex 31.000000000000004 56.58727621046197 0.0
    vertex 31.234633135269828 56.471567953008275 0.0
  endloop
endfacet
facet normal -0.44228869021898104 -0.8968727415326984 -0.0
  outer loop
    vertex 31.000000000000004 56.58727621046197 0.0
    vertex 31.234633135269828 56.471567953008275 29.500000000000004
    vertex 31.000000000000004 56.58727621046197 29.500000000000004
  endloop
endfacet
facet normal -0.5555702330196023 -0.8314696123025453 -0.0
  outer loop
    vertex 31.000000000000004 56.58727621046197 29.500000000000004
    vertex 30.782477141982564 56.732620337448374 0.0
    vertex 31.000000000000004 56.58727621046197 0.0
  endloop
endfacet
facet normal -0.5555702330196023 -0.8314696123025453 -0.0
  outer loop
    vertex 30.782477141982564 56.732620337448374 0.0
    vertex 31.000000000000004 56.58727621046197 29.500000000000004
    vertex 30.782477141982564 56.732620337448374 29.500000000000004
  endloop
endfacet
facet normal -0.6593458151000882 -0.7518398074789607 -0.0
  outer loop
    vertex 30.782477141982564 56.732620337448374 29.500000000000004
    vertex 30.58578643762691 56.90511345565776 0.0
    vertex 30.782477141982564 56.732620337448374 0.0
  endloop
endfacet
facet normal -0.6593458151000882 -0.7518398074789607 -0.0
  outer loop
    vertex 30.58578643762691 56.90511345565776 0.0
    vertex 30.782477141982564 56.732620337448374 29.500000000000004
    vertex 30.58578643762691 56.90511345565776 29.500000000000004
  endloop
endfacet
facet normal -0.7518398074789725 -0.6593458151000744 -0.0
  outer loop
    vertex 30.413293319417537 57.10180416001341 29.500000000000004
    vertex 30.58578643762691 56.90511345565776 0.0
    vertex 30.58578643762691 56.90511345565776 29.500000000000004
  endloop
endfacet
facet normal -0.7518398074789725 -0.6593458151000744 -0.0
  outer loop
    vertex 30.58578643762691 56.90511345565776 0.0
    vertex 30.413293319417537 57.10180416001341 29.500000000000004
    vertex 30.413293319417537 57.10180416001341 0.0
  endloop
endfacet
facet normal -0.8314696123025453 -0.5555702330196023 -0.0
  outer loop
    vertex 30.267949192431132 57.31932701803085 29.500000000000004
    vertex 30.413293319417537 57.10180416001341 0.0
    vertex 30.413293319417537 57.10180416001341 29.500000000000004
  endloop
endfacet
facet normal -0.8314696123025453 -0.5555702330196023 -0.0
  outer loop
    vertex 30.413293319417537 57.10180416001341 0.0
    vertex 30.267949192431132 57.31932701803085 29.500000000000004
    vertex 30.267949192431132 57.31932701803085 0.0
  endloop
endfacet
facet normal -0.8968727415326856 -0.44228869021900696 -0.0
  outer loop
    vertex 30.152240934977435 57.553960153300665 29.500000000000004
    vertex 30.267949192431132 57.31932701803085 0.0
    vertex 30.267949192431132 57.31932701803085 29.500000000000004
  endloop
endfacet
facet normal -0.8968727415326856 -0.44228869021900696 -0.0
  outer loop
    vertex 30.267949192431132 57.31932701803085 0.0
    vertex 30.152240934977435 57.553960153300665 29.500000000000004
    vertex 30.152240934977435 57.553960153300665 0.0
  endloop
endfacet
facet normal -0.9469301294951038 -0.32143946530316714 -0.0
  outer loop
    vertex 30.06814834742187 57.8016889278258 29.500000000000004
    vertex 30.152240934977435 57.553960153300665 0.0
    vertex 30.152240934977435 57.553960153300665 29.500000000000004
  endloop
endfacet
facet normal -0.9469301294951038 -0.32143946530316714 -0.0
  outer loop
    vertex 30.152240934977435 57.553960153300665 0.0
    vertex 30.06814834742187 57.8016889278258 29.500000000000004
    vertex 30.06814834742187 57.8016889278258 0.0
  endloop
endfacet
facet normal -0.9914448613738106 -0.13052619222005077 -0.0
  outer loop
    vertex 30.000000000000007 58.31932701803085 29.500000000000004
    vertex 30.06814834742187 57.8016889278258 0.0
    vertex 30.06814834742187 57.8016889278258 29.500000000000004
  endloop
endfacet
facet normal -0.9914448613738106 -0.13052619222005077 -0.0
  outer loop
    vertex 30.06814834742187 57.8016889278258 0.0
    vertex 30.000000000000007 58.31932701803085 29.500000000000004
    vertex 30.000000000000007 58.31932701803085 0.0
  endloop
endfacet
facet normal -1.0 -4.9910911195538e-16 0.0
  outer loop
    vertex 30.0 69.61932701803084 29.500000000000004
    vertex 30.000000000000007 58.31932701803085 0.0
    vertex 30.000000000000007 58.31932701803085 29.500000000000004
  endloop
endfacet
facet normal -1.0 -4.9910911195538e-16 0.0
  outer loop
    vertex 30.000000000000007 58.31932701803085 0.0
    vertex 30.0 69.61932701803084 29.500000000000004
    vertex 30.0 69.61932701803084 0.0
  endloop
endfacet
facet normal -1.0 -4.9910911195538e-16 0.0
  outer loop
    vertex 30.0 69.61932701803084 0.0
    vertex 30.0 69.61932701803084 29.500000000000004
    vertex 30.0 69.61932701803084 3.0
  endloop
endfacet
facet normal -1.0 0.0 0.0
  outer loop
    vertex 30.0 84.61932701803087 29.500000000000004
    vertex 30.0 69.61932701803084 3.0
    vertex 30.0 69.61932701803084 29.500000000000004
  endloop
endfacet
facet normal -1.0 0.0 0.0
  outer loop
    vertex 30.0 69.61932701803084 3.0
    vertex 30.0 84.61932701803087 29.500000000000004
    vertex 30.0 84.61932701803087 3.0
  endloop
endfacet
facet normal -1.0 1.4973273358661398e-15 -1.0045236431865009e-32
  outer loop
    vertex 30.000000000000018 95.91932701803087 29.500000000000004
    vertex 30.0 84.61932701803087 3.0
    vertex 30.0 84.61932701803087 29.500000000000004
  endloop
endfacet
facet normal -1.0 1.4973273358661398e-15 -1.0045236431865009e-32
  outer loop
    vertex 30.0 84.61932701803087 3.0
    vertex 30.000000000000018 95.91932701803087 29.500000000000004
    vertex 30.0 84.61932701803087 0.0
  endloop
endfacet
facet normal -1.0 1.4973273358661398e-15 -1.0045236431865009e-32
  outer loop
    vertex 30.0 84.61932701803087 0.0
    vertex 30.000000000000018 95.91932701803087 29.500000000000004
    vertex 30.000000000000018 95.91932701803087 0.0
  endloop
endfacet
facet normal -0.9914448613738103 0.13052619222005354 0.0
  outer loop
    vertex 30.068148347421882 96.43696510823591 29.500000000000004
    vertex 30.000000000000018 95.91932701803087 0.0
    vertex 30.000000000000018 95.91932701803087 29.500000000000004
  endloop
endfacet
facet normal -0.9914448613738103 0.13052619222005354 0.0
  outer loop
    vertex 30.000000000000018 95.91932701803087 0.0
    vertex 30.068148347421882 96.43696510823591 29.500000000000004
    vertex 30.068148347421882 96.43696510823591 0.0
  endloop
endfacet
facet normal -0.9469301294951038 0.32143946530316714 0.0
  outer loop
    vertex 30.152240934977446 96.68469388276104 29.500000000000004
    vertex 30.068148347421882 96.43696510823591 0.0
    vertex 30.068148347421882 96.43696510823591 29.500000000000004
  endloop
endfacet
facet normal -0.9469301294951038 0.32143946530316714 0.0
  outer loop
    vertex 30.068148347421882 96.43696510823591 0.0
    vertex 30.152240934977446 96.68469388276104 29.500000000000004
    vertex 30.152240934977446 96.68469388276104 0.0
  endloop
endfacet
facet normal -0.8968727415326939 0.4422886902189898 0.0
  outer loop
    vertex 30.267949192431143 96.91932701803087 29.500000000000004
    vertex 30.152240934977446 96.68469388276104 0.0
    vertex 30.152240934977446 96.68469388276104 29.500000000000004
  endloop
endfacet
facet normal -0.8968727415326939 0.4422886902189898 0.0
  outer loop
    vertex 30.152240934977446 96.68469388276104 0.0
    vertex 30.267949192431143 96.91932701803087 29.500000000000004
    vertex 30.267949192431143 96.91932701803087 0.0
  endloop
endfacet
facet normal -0.831469612302542 0.5555702330196073 0.0
  outer loop
    vertex 30.413293319417544 97.1368498760483 29.500000000000004
    vertex 30.267949192431143 96.91932701803087 0.0
    vertex 30.267949192431143 96.91932701803087 29.500000000000004
  endloop
endfacet
facet normal -0.831469612302542 0.5555702330196073 0.0
  outer loop
    vertex 30.267949192431143 96.91932701803087 0.0
    vertex 30.413293319417544 97.1368498760483 29.500000000000004
    vertex 30.413293319417544 97.1368498760483 0.0
  endloop
endfacet
facet normal -0.7518398074789807 0.6593458151000653 0.0
  outer loop
    vertex 30.585786437626922 97.33354058040396 29.500000000000004
    vertex 30.413293319417544 97.1368498760483 0.0
    vertex 30.413293319417544 97.1368498760483 29.500000000000004
  endloop
endfacet
facet normal -0.7518398074789807 0.6593458151000653 0.0
  outer loop
    vertex 30.413293319417544 97.1368498760483 0.0
    vertex 30.585786437626922 97.33354058040396 29.500000000000004
    vertex 30.585786437626922 97.33354058040396 0.0
  endloop
endfacet
facet normal -0.6593458151000744 0.7518398074789725 0.0
  outer loop
    vertex 30.585786437626922 97.33354058040396 29.500000000000004
    vertex 30.78247714198257 97.50603369861334 0.0
    vertex 30.585786437626922 97.33354058040396 0.0
  endloop
endfacet
facet normal -0.6593458151000744 0.7518398074789725 0.0
  outer loop
    vertex 30.78247714198257 97.50603369861334 0.0
    vertex 30.585786437626922 97.33354058040396 29.500000000000004
    vertex 30.78247714198257 97.50603369861334 29.500000000000004
  endloop
endfacet
facet normal -0.5555702330196023 0.8314696123025453 0.0
  outer loop
    vertex 30.78247714198257 97.50603369861334 29.500000000000004
    vertex 31.00000000000001 97.65137782559974 0.0
    vertex 30.78247714198257 97.50603369861334 0.0
  endloop
endfacet
facet normal -0.5555702330196023 0.8314696123025453 0.0
  outer loop
    vertex 31.00000000000001 97.65137782559974 0.0
    vertex 30.78247714198257 97.50603369861334 29.500000000000004
    vertex 31.00000000000001 97.65137782559974 29.500000000000004
  endloop
endfacet
facet normal -0.4422886902189896 0.8968727415326941 0.0
  outer loop
    vertex 31.00000000000001 97.65137782559974 29.500000000000004
    vertex 31.234633135269828 97.76708608305343 0.0
    vertex 31.00000000000001 97.65137782559974 0.0
  endloop
endfacet
facet normal -0.4422886902189896 0.8968727415326941 0.0
  outer loop
    vertex 31.234633135269828 97.76708608305343 0.0
    vertex 31.00000000000001 97.65137782559974 29.500000000000004
    vertex 31.234633135269828 97.76708608305343 29.500000000000004
  endloop
endfacet
facet normal -0.32143946530316714 0.9469301294951038 0.0
  outer loop
    vertex 31.234633135269828 97.76708608305343 29.500000000000004
    vertex 31.482361909794964 97.85117867060899 0.0
    vertex 31.234633135269828 97.76708608305343 0.0
  endloop
endfacet
facet normal -0.32143946530316714 0.9469301294951038 0.0
  outer loop
    vertex 31.482361909794964 97.85117867060899 0.0
    vertex 31.234633135269828 97.76708608305343 29.500000000000004
    vertex 31.482361909794964 97.85117867060899 29.500000000000004
  endloop
endfacet
facet normal -0.13052619222005216 0.9914448613738104 0.0
  outer loop
    vertex 31.482361909794964 97.85117867060899 29.500000000000004
    vertex 32.0 97.91932701803086 0.0
    vertex 31.482361909794964 97.85117867060899 0.0
  endloop
endfacet
facet normal -0.13052619222005216 0.9914448613738104 0.0
  outer loop
    vertex 32.0 97.91932701803086 0.0
    vertex 31.482361909794964 97.85117867060899 29.500000000000004
    vertex 32.0 97.91932701803086 29.500000000000004
  endloop
endfacet
facet normal -1.0 0.0 0.0
  outer loop
    vertex 39.49999997010695 93.11932701803083 27.5
    vertex 39.49999997010695 61.11932701803087 0.0
    vertex 39.49999997010695 61.11932701803087 27.5
  endloop
endfacet
facet normal -1.0 0.0 0.0
  outer loop
    vertex 39.49999997010695 61.11932701803087 0.0
    vertex 39.49999997010695 93.11932701803083 27.5
    vertex 39.49999997010695 93.11932701803083 0.0
  endloop
endfacet
facet normal -0.0 -0.0 1.0
  outer loop
    vertex 44.99999999999999 69.61932701803087 3.0
    vertex 46.94114273931417 84.36377074171371 3.0
    vertex 44.9999998882413 84.61932701803084 3.0
  endloop
endfacet
facet normal -0.0 -0.0 1.0
  outer loop
    vertex 46.94114273931417 84.36377074171371 3.0
    vertex 44.99999999999999 69.61932701803087 3.0
    vertex 46.94114284726478 69.8748833232733 3.0
  endloop
endfacet
facet normal -0.0 -0.0 1.0
  outer loop
    vertex 46.94114273931417 84.36377074171371 3.0
    vertex 46.94114284726478 69.8748833232733 3.0
    vertex 48.74999991934509 83.61451759298026 3.0
  endloop
endfacet
facet normal -0.0 -0.0 1.0
  outer loop
    vertex 48.74999991934509 83.61451759298026 3.0
    vertex 46.94114284726478 69.8748833232733 3.0
    vertex 48.75000001613096 70.6241364989608 3.0
  endloop
endfacet
facet normal -0.0 -0.0 1.0
  outer loop
    vertex 48.74999991934509 83.61451759298026 3.0
    vertex 48.75000001613096 70.6241364989608 3.0
    vertex 50.3033007996301 82.42262793619896 3.0
  endloop
endfacet
facet normal -0.0 -0.0 1.0
  outer loop
    vertex 50.3033007996301 82.42262793619896 3.0
    vertex 48.75000001613096 70.6241364989608 3.0
    vertex 50.30330087865543 71.81602617888808 3.0
  endloop
endfacet
facet normal -0.0 -0.0 1.0
  outer loop
    vertex 50.3033007996301 82.42262793619896 3.0
    vertex 50.30330087865543 71.81602617888808 3.0
    vertex 51.49519049113037 80.86932708255476 3.0
  endloop
endfacet
facet normal -0.0 -0.0 1.0
  outer loop
    vertex 51.49519049113037 80.86932708255476 3.0
    vertex 50.30330087865543 71.81602617888808 3.0
    vertex 51.49519054700973 73.36932705029281 3.0
  endloop
endfacet
facet normal -0.0 -0.0 1.0
  outer loop
    vertex 51.49519049113037 80.86932708255476 3.0
    vertex 51.49519054700973 73.36932705029281 3.0
    vertex 52.24444368029492 79.06046991927096 3.0
  endloop
endfacet
facet normal -0.0 -0.0 1.0
  outer loop
    vertex 52.24444368029492 79.06046991927096 3.0
    vertex 51.49519054700973 73.36932705029281 3.0
    vertex 52.24444370922019 75.17818422474137 3.0
  endloop
endfacet
facet normal -0.0 -0.0 1.0
  outer loop
    vertex 52.24444368029492 79.06046991927096 3.0
    vertex 52.24444370922019 75.17818422474137 3.0
    vertex 52.49999999999999 77.11932707391021 3.0
  endloop
endfacet
facet normal 0.25881904630196934 -0.9659258259676771 0.0
  outer loop
    vertex 46.94114284726478 69.8748833232733 3.0
    vertex 44.99999999999999 69.61932701803087 0.0
    vertex 46.94114284726478 69.8748833232733 0.0
  endloop
endfacet
facet normal 0.1305261928356202 -0.9914448612927693 0.0
  outer loop
    vertex 44.99999999999999 69.61932701803087 0.0
    vertex 46.94114284726478 69.8748833232733 3.0
    vertex 44.99999999999999 69.61932701803087 3.0
  endloop
endfacet
facet normal 1.0 7.450579676178878e-09 -0.0
  outer loop
    vertex 44.9999998882413 84.61932701803084 0.0
    vertex 44.99999999999999 69.61932701803087 3.0
    vertex 44.99999999999999 69.61932701803087 0.0
  endloop
endfacet
facet normal 1.0 7.450579676178878e-09 -0.0
  outer loop
    vertex 44.99999999999999 69.61932701803087 3.0
    vertex 44.9999998882413 84.61932701803084 0.0
    vertex 44.9999998882413 84.61932701803084 3.0
  endloop
endfacet
facet normal 0.13052617806193825 0.9914448632377614 -0.0
  outer loop
    vertex 44.9999998882413 84.61932701803084 3.0
    vertex 46.94114273931417 84.36377074171371 0.0
    vertex 44.9999998882413 84.61932701803084 0.0
  endloop
endfacet
facet normal 0.25881903190855643 0.9659258298243804 0.0
  outer loop
    vertex 46.94114273931417 84.36377074171371 0.0
    vertex 44.9999998882413 84.61932701803084 3.0
    vertex 46.94114273931417 84.36377074171371 3.0
  endloop
endfacet
facet normal 0.25881903190855643 0.9659258298243804 0.0
  outer loop
    vertex 46.94114273931417 84.36377074171371 3.0
    vertex 48.74999991934509 83.61451759298026 0.0
    vertex 46.94114273931417 84.36377074171371 0.0
  endloop
endfacet
facet normal 0.49999998924601424 0.8660254099932553 0.0
  outer loop
    vertex 48.74999991934509 83.61451759298026 0.0
    vertex 46.94114273931417 84.36377074171371 3.0
    vertex 48.74999991934509 83.61451759298026 3.0
  endloop
endfacet
facet normal 0.49999998924601424 0.8660254099932553 0.0
  outer loop
    vertex 48.74999991934509 83.61451759298026 3.0
    vertex 50.3033007996301 82.42262793619896 0.0
    vertex 48.74999991934509 83.61451759298026 0.0
  endloop
endfacet
facet normal 0.7071067732840146 0.7071067890890803 0.0
  outer loop
    vertex 50.3033007996301 82.42262793619896 0.0
    vertex 48.74999991934509 83.61451759298026 3.0
    vertex 50.3033007996301 82.42262793619896 3.0
  endloop
endfacet
facet normal 0.7071067732840146 0.7071067890890803 0.0
  outer loop
    vertex 50.3033007996301 82.42262793619896 0.0
    vertex 51.49519049113037 80.86932708255476 3.0
    vertex 51.49519049113037 80.86932708255476 0.0
  endloop
endfacet
facet normal 0.8660253988173858 0.5000000086031879 0.0
  outer loop
    vertex 51.49519049113037 80.86932708255476 3.0
    vertex 50.3033007996301 82.42262793619896 0.0
    vertex 50.3033007996301 82.42262793619896 3.0
  endloop
endfacet
facet normal 0.8660253988173858 0.5000000086031879 0.0
  outer loop
    vertex 51.49519049113037 80.86932708255476 0.0
    vertex 52.24444368029492 79.06046991927096 3.0
    vertex 52.24444368029492 79.06046991927096 0.0
  endloop
endfacet
facet normal 0.9659258240393234 0.25881905349868295 0.0
  outer loop
    vertex 52.24444368029492 79.06046991927096 3.0
    vertex 51.49519049113037 80.86932708255476 0.0
    vertex 51.49519049113037 80.86932708255476 3.0
  endloop
endfacet
facet normal 0.9659258240393234 0.25881905349868295 0.0
  outer loop
    vertex 52.24444368029492 79.06046991927096 0.0
    vertex 52.49999999999999 77.11932707391021 3.0
    vertex 52.49999999999999 77.11932707391021 0.0
  endloop
endfacet
facet normal 1.0 7.450578877426078e-09 0.0
  outer loop
    vertex 52.49999999999999 77.11932707391021 3.0
    vertex 52.24444368029492 79.06046991927096 0.0
    vertex 52.24444368029492 79.06046991927096 3.0
  endloop
endfacet
facet normal 1.0 7.450578877426078e-09 0.0
  outer loop
    vertex 52.49999999999999 77.11932707391021 0.0
    vertex 52.24444370922019 75.17818422474137 3.0
    vertex 52.24444370922019 75.17818422474137 0.0
  endloop
endfacet
facet normal 0.9659258278960278 -0.2588190391052665 0.0
  outer loop
    vertex 52.24444370922019 75.17818422474137 3.0
    vertex 52.49999999999999 77.11932707391021 0.0
    vertex 52.49999999999999 77.11932707391021 3.0
  endloop
endfacet
facet normal 0.9659258278960278 -0.2588190391052665 0.0
  outer loop
    vertex 52.24444370922019 75.17818422474137 0.0
    vertex 51.49519054700973 73.36932705029281 3.0
    vertex 51.49519054700973 73.36932705029281 0.0
  endloop
endfacet
facet normal 0.8660254062679661 -0.4999999956984044 0.0
  outer loop
    vertex 51.49519054700973 73.36932705029281 3.0
    vertex 52.24444370922019 75.17818422474137 0.0
    vertex 52.24444370922019 75.17818422474137 3.0
  endloop
endfacet
facet normal 0.8660254062679661 -0.4999999956984044 0.0
  outer loop
    vertex 51.49519054700973 73.36932705029281 0.0
    vertex 50.30330087865543 71.81602617888808 3.0
    vertex 50.30330087865543 71.81602617888808 0.0
  endloop
endfacet
facet normal 0.7071067838207254 -0.7071067785523696 0.0
  outer loop
    vertex 50.30330087865543 71.81602617888808 3.0
    vertex 51.49519054700973 73.36932705029281 0.0
    vertex 51.49519054700973 73.36932705029281 3.0
  endloop
endfacet
facet normal 0.7071067838207254 -0.7071067785523696 0.0
  outer loop
    vertex 50.30330087865543 71.81602617888808 3.0
    vertex 48.75000001613096 70.6241364989608 0.0
    vertex 50.30330087865543 71.81602617888808 0.0
  endloop
endfacet
facet normal 0.5000000021507948 -0.8660254025426767 0.0
  outer loop
    vertex 48.75000001613096 70.6241364989608 0.0
    vertex 50.30330087865543 71.81602617888808 3.0
    vertex 48.75000001613096 70.6241364989608 3.0
  endloop
endfacet
facet normal 0.5000000021507948 -0.8660254025426767 0.0
  outer loop
    vertex 48.75000001613096 70.6241364989608 3.0
    vertex 46.94114284726478 69.8748833232733 0.0
    vertex 48.75000001613096 70.6241364989608 0.0
  endloop
endfacet
facet normal 0.25881904630196934 -0.9659258259676771 0.0
  outer loop
    vertex 46.94114284726478 69.8748833232733 0.0
    vertex 48.75000001613096 70.6241364989608 3.0
    vertex 46.94114284726478 69.8748833232733 3.0
  endloop
endfacet
facet normal -0.0 -0.0 1.0
  outer loop
    vertex 22.755556302831987 75.17818417976196 3.0
    vertex 22.755556302831984 79.06046985629976 3.0
    vertex 22.5 77.11932701803086 3.0
  endloop
endfacet
facet normal -0.0 -0.0 1.0
  outer loop
    vertex 22.755556302831984 79.06046985629976 3.0
    vertex 22.755556302831987 75.17818417976196 3.0
    vertex 23.504809471616706 80.86932701803086 3.0
  endloop
endfacet
facet normal -0.0 -0.0 1.0
  outer loop
    vertex 23.504809471616706 80.86932701803086 3.0
    vertex 22.755556302831987 75.17818417976196 3.0
    vertex 23.50480947161671 73.36932701803086 3.0
  endloop
endfacet
facet normal -0.0 -0.0 1.0
  outer loop
    vertex 23.504809471616706 80.86932701803086 3.0
    vertex 23.50480947161671 73.36932701803086 3.0
    vertex 24.696699141100893 82.42262787692997 3.0
  endloop
endfacet
facet normal -0.0 -0.0 1.0
  outer loop
    vertex 24.696699141100893 82.42262787692997 3.0
    vertex 23.50480947161671 73.36932701803086 3.0
    vertex 24.696699141100893 71.81602615913175 3.0
  endloop
endfacet
facet normal -0.0 -0.0 1.0
  outer loop
    vertex 24.696699141100893 82.42262787692997 3.0
    vertex 24.696699141100893 71.81602615913175 3.0
    vertex 26.250000000000004 70.62413648964755 3.0
  endloop
endfacet
facet normal -0.0 -0.0 1.0
  outer loop
    vertex 24.696699141100893 82.42262787692997 3.0
    vertex 26.250000000000004 70.62413648964755 3.0
    vertex 26.250000000000004 83.61451754641415 3.0
  endloop
endfacet
facet normal -0.0 -0.0 1.0
  outer loop
    vertex 26.250000000000004 83.61451754641415 3.0
    vertex 26.250000000000004 70.62413648964755 3.0
    vertex 28.058857161731098 69.87488332086285 3.0
  endloop
endfacet
facet normal -0.0 -0.0 1.0
  outer loop
    vertex 26.250000000000004 83.61451754641415 3.0
    vertex 28.058857161731098 69.87488332086285 3.0
    vertex 28.058857161731098 84.36377071519887 3.0
  endloop
endfacet
facet normal -0.0 -0.0 1.0
  outer loop
    vertex 28.058857161731098 84.36377071519887 3.0
    vertex 28.058857161731098 69.87488332086285 3.0
    vertex 30.0 69.61932701803084 3.0
  endloop
endfacet
facet normal -0.0 -0.0 1.0
  outer loop
    vertex 28.058857161731098 84.36377071519887 3.0
    vertex 30.0 69.61932701803084 3.0
    vertex 30.0 84.61932701803087 3.0
  endloop
endfacet
facet normal -0.2588190451025214 0.9659258262890681 0.0
  outer loop
    vertex 28.058857161731098 84.36377071519887 3.0
    vertex 30.0 84.61932701803087 0.0
    vertex 28.058857161731098 84.36377071519887 0.0
  endloop
endfacet
facet normal -0.13052619222005613 0.9914448613738098 -0.0
  outer loop
    vertex 30.0 84.61932701803087 0.0
    vertex 28.058857161731098 84.36377071519887 3.0
    vertex 30.0 84.61932701803087 3.0
  endloop
endfacet
facet normal -1.0 0.0 0.0
  outer loop
    vertex 30.0 84.61932701803087 3.0
    vertex 30.0 69.61932701803084 0.0
    vertex 30.0 69.61932701803084 3.0
  endloop
endfacet
facet normal -1.0 0.0 0.0
  outer loop
    vertex 30.0 69.61932701803084 0.0
    vertex 30.0 84.61932701803087 3.0
    vertex 30.0 84.61932701803087 0.0
  endloop
endfacet
facet normal -0.13052619222005613 -0.9914448613738098 0.0
  outer loop
    vertex 30.0 69.61932701803084 3.0
    vertex 28.058857161731098 69.87488332086285 0.0
    vertex 30.0 69.61932701803084 0.0
  endloop
endfacet
facet normal -0.2588190451025214 -0.9659258262890681 0.0
  outer loop
    vertex 28.058857161731098 69.87488332086285 0.0
    vertex 30.0 69.61932701803084 3.0
    vertex 28.058857161731098 69.87488332086285 3.0
  endloop
endfacet
facet normal -0.2588190451025214 -0.9659258262890681 0.0
  outer loop
    vertex 28.058857161731098 69.87488332086285 3.0
    vertex 26.250000000000004 70.62413648964755 0.0
    vertex 28.058857161731098 69.87488332086285 0.0
  endloop
endfacet
facet normal -0.499999999999999 -0.8660254037844393 0.0
  outer loop
    vertex 26.250000000000004 70.62413648964755 0.0
    vertex 28.058857161731098 69.87488332086285 3.0
    vertex 26.250000000000004 70.62413648964755 3.0
  endloop
endfacet
facet normal -0.499999999999999 -0.8660254037844393 0.0
  outer loop
    vertex 26.250000000000004 70.62413648964755 3.0
    vertex 24.696699141100893 71.81602615913175 0.0
    vertex 26.250000000000004 70.62413648964755 0.0
  endloop
endfacet
facet normal -0.7071067811865477 -0.7071067811865474 0.0
  outer loop
    vertex 24.696699141100893 71.81602615913175 0.0
    vertex 26.250000000000004 70.62413648964755 3.0
    vertex 24.696699141100893 71.81602615913175 3.0
  endloop
endfacet
facet normal -0.8660254037844387 -0.5 0.0
  outer loop
    vertex 23.50480947161671 73.36932701803086 3.0
    vertex 24.696699141100893 71.81602615913175 0.0
    vertex 24.696699141100893 71.81602615913175 3.0
  endloop
endfacet
facet normal -0.7071067811865477 -0.7071067811865474 0.0
  outer loop
    vertex 24.696699141100893 71.81602615913175 0.0
    vertex 23.50480947161671 73.36932701803086 3.0
    vertex 23.50480947161671 73.36932701803086 0.0
  endloop
endfacet
facet normal -0.9659258262890684 -0.25881904510252074 0.0
  outer loop
    vertex 22.755556302831987 75.17818417976196 3.0
    vertex 23.50480947161671 73.36932701803086 0.0
    vertex 23.50480947161671 73.36932701803086 3.0
  endloop
endfacet
facet normal -0.8660254037844387 -0.5 0.0
  outer loop
    vertex 23.50480947161671 73.36932701803086 0.0
    vertex 22.755556302831987 75.17818417976196 3.0
    vertex 22.755556302831987 75.17818417976196 0.0
  endloop
endfacet
facet normal -1.0 -7.307110114430461e-16 0.0
  outer loop
    vertex 22.5 77.11932701803086 3.0
    vertex 22.755556302831987 75.17818417976196 0.0
    vertex 22.755556302831987 75.17818417976196 3.0
  endloop
endfacet
facet normal -0.9659258262890684 -0.25881904510252074 0.0
  outer loop
    vertex 22.755556302831987 75.17818417976196 0.0
    vertex 22.5 77.11932701803086 3.0
    vertex 22.5 77.11932701803086 0.0
  endloop
endfacet
facet normal -0.9659258262890684 0.25881904510252 0.0
  outer loop
    vertex 22.755556302831984 79.06046985629976 3.0
    vertex 22.5 77.11932701803086 0.0
    vertex 22.5 77.11932701803086 3.0
  endloop
endfacet
facet normal -1.0 -7.307110114430461e-16 0.0
  outer loop
    vertex 22.5 77.11932701803086 0.0
    vertex 22.755556302831984 79.06046985629976 3.0
    vertex 22.755556302831984 79.06046985629976 0.0
  endloop
endfacet
facet normal -0.8660254037844384 0.5000000000000006 0.0
  outer loop
    vertex 23.504809471616706 80.86932701803086 3.0
    vertex 22.755556302831984 79.06046985629976 0.0
    vertex 22.755556302831984 79.06046985629976 3.0
  endloop
endfacet
facet normal -0.9659258262890684 0.25881904510252 0.0
  outer loop
    vertex 22.755556302831984 79.06046985629976 0.0
    vertex 23.504809471616706 80.86932701803086 3.0
    vertex 23.504809471616706 80.86932701803086 0.0
  endloop
endfacet
facet normal -0.7071067811865474 0.7071067811865478 0.0
  outer loop
    vertex 24.696699141100893 82.42262787692997 3.0
    vertex 23.504809471616706 80.86932701803086 0.0
    vertex 23.504809471616706 80.86932701803086 3.0
  endloop
endfacet
facet normal -0.8660254037844384 0.5000000000000006 0.0
  outer loop
    vertex 23.504809471616706 80.86932701803086 0.0
    vertex 24.696699141100893 82.42262787692997 3.0
    vertex 24.696699141100893 82.42262787692997 0.0
  endloop
endfacet
facet normal -0.7071067811865474 0.7071067811865478 0.0
  outer loop
    vertex 24.696699141100893 82.42262787692997 3.0
    vertex 26.250000000000004 83.61451754641415 0.0
    vertex 24.696699141100893 82.42262787692997 0.0
  endloop
endfacet
facet normal -0.499999999999999 0.8660254037844393 0.0
  outer loop
    vertex 26.250000000000004 83.61451754641415 0.0
    vertex 24.696699141100893 82.42262787692997 3.0
    vertex 26.250000000000004 83.61451754641415 3.0
  endloop
endfacet
facet normal -0.499999999999999 0.8660254037844393 0.0
  outer loop
    vertex 26.250000000000004 83.61451754641415 3.0
    vertex 28.058857161731098 84.36377071519887 0.0
    vertex 26.250000000000004 83.61451754641415 0.0
  endloop
endfacet
facet normal -0.2588190451025214 0.9659258262890681 0.0
  outer loop
    vertex 28.058857161731098 84.36377071519887 0.0
    vertex 26.250000000000004 83.61451754641415 3.0
    vertex 28.058857161731098 84.36377071519887 3.0
  endloop
endfacet
facet normal 1.0 9.399888275159661e-17 -1.0254423572901445e-16
  outer loop
    vertex 35.49999999999999 93.11932701803083 3.0763270718705474e-17
    vertex 35.5 61.11932701803087 27.5
    vertex 35.49999999999999 61.11932701803087 3.0763270718705474e-17
  endloop
endfacet
facet normal 1.0 9.399888275159661e-17 -1.0254423572901445e-16
  outer loop
    vertex 35.5 61.11932701803087 27.5
    vertex 35.49999999999999 93.11932701803083 3.0763270718705474e-17
    vertex 35.49999999999999 93.11932701803083 27.5
  endloop
endfacet
facet normal 1.4099832412739473e-15 2.650736987564519e-31 -1.0
  outer loop
    vertex 37.1 93.11932701803083 27.5
    vertex 35.5 61.11932701803087 27.5
    vertex 35.49999999999999 93.11932701803083 27.5
  endloop
endfacet
facet normal 1.4099832412739473e-15 2.650736987564519e-31 -1.0
  outer loop
    vertex 35.5 61.11932701803087 27.5
    vertex 37.1 93.11932701803083 27.5
    vertex 36.75 83.61932701803084 27.5
  endloop
endfacet
facet normal 1.4099832412739473e-15 2.650736987564519e-31 -1.0
  outer loop
    vertex 36.75 83.61932701803084 27.5
    vertex 37.1 93.11932701803083 27.5
    vertex 37.1 83.61932701803084 27.5
  endloop
endfacet
facet normal 1.4099832412739473e-15 2.650736987564519e-31 -1.0
  outer loop
    vertex 35.5 61.11932701803087 27.5
    vertex 36.75000000000001 70.61932701803083 27.5
    vertex 37.10000000000001 61.11932701803087 27.5
  endloop
endfacet
facet normal 1.4099832412739473e-15 2.650736987564519e-31 -1.0
  outer loop
    vertex 36.75000000000001 70.61932701803083 27.5
    vertex 35.5 61.11932701803087 27.5
    vertex 36.75 83.61932701803084 27.5
  endloop
endfacet
facet normal 1.4099832412739473e-15 2.650736987564519e-31 -1.0
  outer loop
    vertex 37.10000000000001 61.11932701803087 27.5
    vertex 36.75000000000001 70.61932701803083 27.5
    vertex 37.10000000000001 70.61932701803083 27.5
  endloop
endfacet
facet normal -0.0 -0.0 -1.0
  outer loop
    vertex 39.49999997010695 93.11932701803083 27.5
    vertex 37.90000000000001 83.61932701803084 27.5
    vertex 37.90000000000001 93.11932701803083 27.5
  endloop
endfacet
facet normal -0.0 -0.0 -1.0
  outer loop
    vertex 37.90000000000001 83.61932701803084 27.5
    vertex 39.49999997010695 93.11932701803083 27.5
    vertex 38.25 83.61932701803084 27.5
  endloop
endfacet
facet normal -0.0 -0.0 -1.0
  outer loop
    vertex 38.25 83.61932701803084 27.5
    vertex 39.49999997010695 93.11932701803083 27.5
    vertex 38.25 70.61932701803083 27.5
  endloop
endfacet
facet normal -0.0 -0.0 -1.0
  outer loop
    vertex 38.25 70.61932701803083 27.5
    vertex 37.90000000000001 61.11932701803087 27.5
    vertex 37.90000000000001 70.61932701803083 27.5
  endloop
endfacet
facet normal -0.0 -0.0 -1.0
  outer loop
    vertex 37.90000000000001 61.11932701803087 27.5
    vertex 38.25 70.61932701803083 27.5
    vertex 39.49999997010695 61.11932701803087 27.5
  endloop
endfacet
facet normal -0.0 -0.0 -1.0
  outer loop
    vertex 39.49999997010695 61.11932701803087 27.5
    vertex 38.25 70.61932701803083 27.5
    vertex 39.49999997010695 93.11932701803083 27.5
  endloop
endfacet
facet normal 0.0 -1.0 0.0
  outer loop
    vertex 39.49999997010695 93.11932701803083 27.5
    vertex 35.49999999999999 93.11932701803083 3.0763270718705474e-17
    vertex 39.49999997010695 93.11932701803083 0.0
  endloop
endfacet
facet normal 0.0 -1.0 0.0
  outer loop
    vertex 35.49999999999999 93.11932701803083 3.0763270718705474e-17
    vertex 39.49999997010695 93.11932701803083 27.5
    vertex 35.49999999999999 93.11932701803083 27.5
  endloop
endfacet
facet normal 0.0 -1.0 0.0
  outer loop
    vertex 35.49999999999999 93.11932701803083 27.5
    vertex 39.49999997010695 93.11932701803083 27.5
    vertex 37.90000000000001 93.11932701803083 27.5
  endloop
endfacet
facet normal 0.0 -1.0 0.0
  outer loop
    vertex 35.49999999999999 93.11932701803083 27.5
    vertex 37.90000000000001 93.11932701803083 27.5
    vertex 37.1 93.11932701803083 27.5
  endloop
endfacet
facet normal 0.0 -1.0 0.0
  outer loop
    vertex 38.25 83.61932701803084 29.500000000000004
    vertex 37.90000000000001 83.61932701803084 27.5
    vertex 38.25 83.61932701803084 27.5
  endloop
endfacet
facet normal 0.0 -1.0 0.0
  outer loop
    vertex 37.90000000000001 83.61932701803084 27.5
    vertex 38.25 83.61932701803084 29.500000000000004
    vertex 37.1 83.61932701803084 27.5
  endloop
endfacet
facet normal 0.0 -1.0 0.0
  outer loop
    vertex 37.1 83.61932701803084 27.5
    vertex 38.25 83.61932701803084 29.500000000000004
    vertex 36.75 83.61932701803084 27.5
  endloop
endfacet
facet normal 0.0 -1.0 0.0
  outer loop
    vertex 36.75 83.61932701803084 27.5
    vertex 38.25 83.61932701803084 29.500000000000004
    vertex 36.75 83.61932701803084 29.500000000000004
  endloop
endfacet
facet normal 0.0 0.0 -1.0
  outer loop
    vertex 37.90000000000001 93.11932701803083 27.5
    vertex 37.1 83.61932701803084 27.5
    vertex 37.1 93.11932701803083 27.5
  endloop
endfacet
facet normal 0.0 0.0 -1.0
  outer loop
    vertex 37.1 83.61932701803084 27.5
    vertex 37.90000000000001 93.11932701803083 27.5
    vertex 37.90000000000001 83.61932701803084 27.5
  endloop
endfacet
facet normal 0.0 1.0 0.0
  outer loop
    vertex 35.49999999999999 61.11932701803087 3.0763270718705474e-17
    vertex 39.49999997010695 61.11932701803087 27.5
    vertex 39.49999997010695 61.11932701803087 0.0
  endloop
endfacet
facet normal 0.0 1.0 0.0
  outer loop
    vertex 39.49999997010695 61.11932701803087 27.5
    vertex 35.49999999999999 61.11932701803087 3.0763270718705474e-17
    vertex 35.5 61.11932701803087 27.5
  endloop
endfacet
facet normal 0.0 1.0 0.0
  outer loop
    vertex 39.49999997010695 61.11932701803087 27.5
    vertex 35.5 61.11932701803087 27.5
    vertex 37.10000000000001 61.11932701803087 27.5
  endloop
endfacet
facet normal 0.0 1.0 0.0
  outer loop
    vertex 39.49999997010695 61.11932701803087 27.5
    vertex 37.10000000000001 61.11932701803087 27.5
    vertex 37.90000000000001 61.11932701803087 27.5
  endloop
endfacet
facet normal 0.0 1.0 0.0
  outer loop
    vertex 36.75 70.61932701803083 29.500000000000004
    vertex 37.10000000000001 70.61932701803083 27.5
    vertex 36.75000000000001 70.61932701803083 27.5
  endloop
endfacet
facet normal 0.0 1.0 0.0
  outer loop
    vertex 37.10000000000001 70.61932701803083 27.5
    vertex 36.75 70.61932701803083 29.500000000000004
    vertex 37.90000000000001 70.61932701803083 27.5
  endloop
endfacet
facet normal 0.0 1.0 0.0
  outer loop
    vertex 37.90000000000001 70.61932701803083 27.5
    vertex 36.75 70.61932701803083 29.500000000000004
    vertex 38.25 70.61932701803083 27.5
  endloop
endfacet
facet normal 0.0 1.0 0.0
  outer loop
    vertex 38.25 70.61932701803083 27.5
    vertex 36.75 70.61932701803083 29.500000000000004
    vertex 38.25 70.61932701803083 29.500000000000004
  endloop
endfacet
facet normal -0.0 -0.0 -1.0
  outer loop
    vertex 37.90000000000001 70.61932701803083 27.5
    vertex 37.10000000000001 61.11932701803087 27.5
    vertex 37.10000000000001 70.61932701803083 27.5
  endloop
endfacet
facet normal -0.0 -0.0 -1.0
  outer loop
    vertex 37.10000000000001 61.11932701803087 27.5
    vertex 37.90000000000001 70.61932701803083 27.5
    vertex 37.90000000000001 61.11932701803087 27.5
  endloop
endfacet
endsolid OpenBeamKosselProSDCardHolder
