solid AppleHolderBase - AppleHolderBase (repaired)
 facet normal 0.000000 0.000000 -1.000000
  outer loop
   vertex 0.000000 109.998009 0.000000
   vertex 14.998001 98.660004 0.000000
   vertex 0.000000 89.998001 0.000000
  endloop
 endfacet
 facet normal 0.000000 0.000000 -1.000000
  outer loop
   vertex 14.998001 98.660004 0.000000
   vertex 0.000000 109.998009 0.000000
   vertex 16.172001 99.238007 0.000000
  endloop
 endfacet
 facet normal 0.000000 0.000000 -1.000000
  outer loop
   vertex 16.172001 99.238007 0.000000
   vertex 0.000000 109.998009 0.000000
   vertex 17.410002 99.658005 0.000000
  endloop
 endfacet
 facet normal 0.000000 0.000000 -1.000000
  outer loop
   vertex 17.410002 99.658005 0.000000
   vertex 0.000000 109.998009 0.000000
   vertex 18.694000 99.914001 0.000000
  endloop
 endfacet
 facet normal 0.000000 0.000000 -1.000000
  outer loop
   vertex 18.694000 99.914001 0.000000
   vertex 0.000000 109.998009 0.000000
   vertex 49.998001 109.998009 0.000000
  endloop
 endfacet
 facet normal 0.000000 0.000000 -1.000000
  outer loop
   vertex 0.000000 89.998001 0.000000
   vertex 14.998001 98.660004 0.000000
   vertex 13.912001 97.932007 0.000000
  endloop
 endfacet
 facet normal 0.000000 0.000000 -1.000000
  outer loop
   vertex 0.000000 89.998001 0.000000
   vertex 13.912001 97.932007 0.000000
   vertex 12.928000 97.070007 0.000000
  endloop
 endfacet
 facet normal 0.000000 0.000000 -1.000000
  outer loop
   vertex 0.000000 89.998001 0.000000
   vertex 12.928000 97.070007 0.000000
   vertex 12.066001 96.086006 0.000000
  endloop
 endfacet
 facet normal 0.000000 0.000000 -1.000000
  outer loop
   vertex 0.000000 79.998001 0.000000
   vertex 0.000000 86.664001 0.000000
   vertex 12.066001 96.086006 0.000000
  endloop
 endfacet
 facet normal 0.000000 0.000000 -1.000000
  outer loop
   vertex 0.000000 79.998001 0.000000
   vertex 12.066001 96.086006 0.000000
   vertex 11.338000 94.998001 0.000000
  endloop
 endfacet
 facet normal 0.000000 0.000000 -1.000000
  outer loop
   vertex 0.000000 79.998001 0.000000
   vertex 11.338000 94.998001 0.000000
   vertex 10.760000 93.826004 0.000000
  endloop
 endfacet
 facet normal 0.000000 0.000000 -1.000000
  outer loop
   vertex 0.000000 79.998001 0.000000
   vertex 10.760000 93.826004 0.000000
   vertex 10.340000 92.588005 0.000000
  endloop
 endfacet
 facet normal 0.000000 0.000000 -1.000000
  outer loop
   vertex 0.000000 79.998001 0.000000
   vertex 10.340000 92.588005 0.000000
   vertex 10.084001 91.304001 0.000000
  endloop
 endfacet
 facet normal 0.000000 0.000000 -1.000000
  outer loop
   vertex 0.000000 79.998001 0.000000
   vertex 10.084001 91.304001 0.000000
   vertex 5.042000 60.652004 0.000000
  endloop
 endfacet
 facet normal 0.000000 0.000000 -1.000000
  outer loop
   vertex 5.042000 55.652004 0.000000
   vertex 5.042000 60.652004 0.000000
   vertex 10.084001 91.304001 0.000000
  endloop
 endfacet
 facet normal 0.000000 0.000000 -1.000000
  outer loop
   vertex 5.042000 45.652000 0.000000
   vertex 5.042000 55.652004 0.000000
   vertex 10.084001 91.304001 0.000000
  endloop
 endfacet
 facet normal 0.000000 0.000000 -1.000000
  outer loop
   vertex 9.998000 89.998001 0.000000
   vertex 5.042000 45.652000 0.000000
   vertex 10.084001 91.304001 0.000000
  endloop
 endfacet
 facet normal 0.000000 0.000000 -1.000000
  outer loop
   vertex 59.346004 104.956001 0.000000
   vertex 99.998001 109.998009 0.000000
   vertex 59.998001 104.998009 0.000000
  endloop
 endfacet
 facet normal 0.000000 0.000000 -1.000000
  outer loop
   vertex 79.998001 99.998001 0.000000
   vertex 59.998001 104.998009 0.000000
   vertex 99.998001 109.998009 0.000000
  endloop
 endfacet
 facet normal 0.000000 0.000000 -1.000000
  outer loop
   vertex 79.998001 99.998001 0.000000
   vertex 99.998001 109.998009 0.000000
   vertex 81.304001 99.914001 0.000000
  endloop
 endfacet
 facet normal 0.000000 0.000000 -1.000000
  outer loop
   vertex 81.304001 99.914001 0.000000
   vertex 99.998001 109.998009 0.000000
   vertex 82.588005 99.658005 0.000000
  endloop
 endfacet
 facet normal 0.000000 0.000000 -1.000000
  outer loop
   vertex 82.588005 99.658005 0.000000
   vertex 99.998001 109.998009 0.000000
   vertex 83.826004 99.238007 0.000000
  endloop
 endfacet
 facet normal 0.000000 0.000000 -1.000000
  outer loop
   vertex 83.826004 99.238007 0.000000
   vertex 99.998001 109.998009 0.000000
   vertex 84.998001 98.660004 0.000000
  endloop
 endfacet
 facet normal 0.000000 0.000000 -1.000000
  outer loop
   vertex 84.998001 98.660004 0.000000
   vertex 99.998001 109.998009 0.000000
   vertex 86.086006 97.932007 0.000000
  endloop
 endfacet
 facet normal 0.000000 0.000000 -1.000000
  outer loop
   vertex 86.086006 97.932007 0.000000
   vertex 99.998001 109.998009 0.000000
   vertex 87.070007 97.070007 0.000000
  endloop
 endfacet
 facet normal 0.000000 0.000000 -1.000000
  outer loop
   vertex 87.070007 97.070007 0.000000
   vertex 99.998001 109.998009 0.000000
   vertex 87.932007 96.086006 0.000000
  endloop
 endfacet
 facet normal 0.000000 0.000000 -1.000000
  outer loop
   vertex 87.932007 96.086006 0.000000
   vertex 99.998001 109.998009 0.000000
   vertex 88.660004 94.998001 0.000000
  endloop
 endfacet
 facet normal 0.000000 0.000000 -1.000000
  outer loop
   vertex 88.660004 94.998001 0.000000
   vertex 99.998001 109.998009 0.000000
   vertex 89.238007 93.826004 0.000000
  endloop
 endfacet
 facet normal 0.000000 0.000000 -1.000000
  outer loop
   vertex 89.238007 93.826004 0.000000
   vertex 99.998001 109.998009 0.000000
   vertex 89.658005 92.588005 0.000000
  endloop
 endfacet
 facet normal 0.000000 0.000000 -1.000000
  outer loop
   vertex 89.658005 92.588005 0.000000
   vertex 99.998001 109.998009 0.000000
   vertex 89.914001 91.304001 0.000000
  endloop
 endfacet
 facet normal 0.000000 0.000000 -1.000000
  outer loop
   vertex 89.914001 91.304001 0.000000
   vertex 99.998001 109.998009 0.000000
   vertex 89.998001 89.998001 0.000000
  endloop
 endfacet
 facet normal 0.000000 0.000000 -1.000000
  outer loop
   vertex 49.998001 0.000000 0.000000
   vertex 18.694000 15.084001 0.000000
   vertex 59.346004 7.542000 0.000000
  endloop
 endfacet
 facet normal 0.000000 0.000000 -1.000000
  outer loop
   vertex 18.694000 15.084001 0.000000
   vertex 0.000000 0.000000 0.000000
   vertex 17.410002 15.340001 0.000000
  endloop
 endfacet
 facet normal 0.000000 0.000000 -1.000000
  outer loop
   vertex 17.410002 15.340001 0.000000
   vertex 0.000000 0.000000 0.000000
   vertex 16.172001 15.760001 0.000000
  endloop
 endfacet
 facet normal 0.000000 0.000000 -1.000000
  outer loop
   vertex 16.172001 15.760001 0.000000
   vertex 0.000000 0.000000 0.000000
   vertex 14.998001 16.338001 0.000000
  endloop
 endfacet
 facet normal 0.000000 0.000000 -1.000000
  outer loop
   vertex 14.998001 16.338001 0.000000
   vertex 0.000000 0.000000 0.000000
   vertex 13.912001 17.066000 0.000000
  endloop
 endfacet
 facet normal 0.000000 0.000000 -1.000000
  outer loop
   vertex 13.912001 17.066000 0.000000
   vertex 0.000000 0.000000 0.000000
   vertex 12.928000 17.928001 0.000000
  endloop
 endfacet
 facet normal 0.000000 0.000000 -1.000000
  outer loop
   vertex 12.928000 17.928001 0.000000
   vertex 0.000000 0.000000 0.000000
   vertex 12.066001 18.912001 0.000000
  endloop
 endfacet
 facet normal 0.000000 0.000000 -1.000000
  outer loop
   vertex 12.066001 18.912001 0.000000
   vertex 0.000000 0.000000 0.000000
   vertex 11.338000 19.998001 0.000000
  endloop
 endfacet
 facet normal 0.000000 0.000000 -1.000000
  outer loop
   vertex 11.338000 19.998001 0.000000
   vertex 0.000000 0.000000 0.000000
   vertex 10.760000 21.172001 0.000000
  endloop
 endfacet
 facet normal 0.000000 0.000000 -1.000000
  outer loop
   vertex 10.760000 21.172001 0.000000
   vertex 0.000000 0.000000 0.000000
   vertex 10.340000 22.410002 0.000000
  endloop
 endfacet
 facet normal 0.000000 0.000000 -1.000000
  outer loop
   vertex 10.340000 22.410002 0.000000
   vertex 0.000000 0.000000 0.000000
   vertex 10.084001 23.694000 0.000000
  endloop
 endfacet
 facet normal 0.000000 0.000000 -1.000000
  outer loop
   vertex 10.084001 23.694000 0.000000
   vertex 0.000000 0.000000 0.000000
   vertex 9.998000 24.998001 0.000000
  endloop
 endfacet
 facet normal 0.000000 0.000000 -1.000000
  outer loop
   vertex 4.998000 44.998001 0.000000
   vertex 9.998000 89.998001 0.000000
   vertex 9.998000 57.498001 0.000000
  endloop
 endfacet
 facet normal 0.000000 0.000000 -1.000000
  outer loop
   vertex 19.998001 14.998001 0.000000
   vertex 59.346004 7.542000 0.000000
   vertex 18.694000 15.084001 0.000000
  endloop
 endfacet
 facet normal 0.000000 0.000000 -1.000000
  outer loop
   vertex 79.998001 14.998001 0.000000
   vertex 59.998001 7.498000 0.000000
   vertex 19.998001 14.998001 0.000000
  endloop
 endfacet
 facet normal 0.000000 0.000000 -1.000000
  outer loop
   vertex 99.998001 0.000000 0.000000
   vertex 79.998001 14.998001 0.000000
   vertex 81.304001 15.084001 0.000000
  endloop
 endfacet
 facet normal 0.000000 0.000000 -1.000000
  outer loop
   vertex 99.998001 0.000000 0.000000
   vertex 81.304001 15.084001 0.000000
   vertex 82.588005 15.340001 0.000000
  endloop
 endfacet
 facet normal 0.000000 0.000000 -1.000000
  outer loop
   vertex 99.998001 0.000000 0.000000
   vertex 82.588005 15.340001 0.000000
   vertex 83.826004 15.760001 0.000000
  endloop
 endfacet
 facet normal 0.000000 0.000000 -1.000000
  outer loop
   vertex 99.998001 0.000000 0.000000
   vertex 83.826004 15.760001 0.000000
   vertex 84.998001 16.338001 0.000000
  endloop
 endfacet
 facet normal 0.000000 0.000000 -1.000000
  outer loop
   vertex 99.998001 0.000000 0.000000
   vertex 84.998001 16.338001 0.000000
   vertex 86.086006 17.066000 0.000000
  endloop
 endfacet
 facet normal 0.000000 0.000000 -1.000000
  outer loop
   vertex 99.998001 0.000000 0.000000
   vertex 86.086006 17.066000 0.000000
   vertex 87.070007 17.928001 0.000000
  endloop
 endfacet
 facet normal 0.000000 0.000000 -1.000000
  outer loop
   vertex 99.998001 0.000000 0.000000
   vertex 87.070007 17.928001 0.000000
   vertex 87.932007 18.912001 0.000000
  endloop
 endfacet
 facet normal 0.000000 0.000000 -1.000000
  outer loop
   vertex 99.998001 0.000000 0.000000
   vertex 87.932007 18.912001 0.000000
   vertex 88.660004 19.998001 0.000000
  endloop
 endfacet
 facet normal 0.000000 0.000000 -1.000000
  outer loop
   vertex 99.998001 0.000000 0.000000
   vertex 88.660004 19.998001 0.000000
   vertex 89.238007 21.172001 0.000000
  endloop
 endfacet
 facet normal 0.000000 0.000000 -1.000000
  outer loop
   vertex 99.998001 0.000000 0.000000
   vertex 89.238007 21.172001 0.000000
   vertex 89.658005 22.410002 0.000000
  endloop
 endfacet
 facet normal 0.000000 0.000000 -1.000000
  outer loop
   vertex 99.998001 0.000000 0.000000
   vertex 89.658005 22.410002 0.000000
   vertex 89.914001 23.694000 0.000000
  endloop
 endfacet
 facet normal 0.000000 0.000000 -1.000000
  outer loop
   vertex 99.998001 0.000000 0.000000
   vertex 89.914001 23.694000 0.000000
   vertex 89.998001 24.998001 0.000000
  endloop
 endfacet
 facet normal 0.000000 0.000000 -1.000000
  outer loop
   vertex 94.998001 44.998001 0.000000
   vertex 89.998001 24.998001 0.000000
   vertex 89.998001 57.498001 0.000000
  endloop
 endfacet
 facet normal 0.000000 0.000000 -1.000000
  outer loop
   vertex 99.998001 109.998009 0.000000
   vertex 99.998001 89.998001 0.000000
   vertex 89.998001 89.998001 0.000000
  endloop
 endfacet
 facet normal 0.000000 0.000000 -1.000000
  outer loop
   vertex 99.998001 89.998001 0.000000
   vertex 99.998001 83.332001 0.000000
   vertex 89.998001 89.998001 0.000000
  endloop
 endfacet
 facet normal 1.000000 0.000000 0.000000
  outer loop
   vertex 99.998001 79.998001 0.000000
   vertex 99.998001 29.998001 9.998000
   vertex 99.998001 54.998001 0.000000
  endloop
 endfacet
 facet normal 1.000000 0.000000 0.000000
  outer loop
   vertex 99.998001 39.998001 0.000000
   vertex 99.998001 44.998001 0.000000
   vertex 99.998001 29.998001 9.998000
  endloop
 endfacet
 facet normal 0.000000 0.000000 -1.000000
  outer loop
   vertex 99.998001 0.000000 0.000000
   vertex 94.998001 44.998001 0.000000
   vertex 99.998001 19.998001 0.000000
  endloop
 endfacet
 facet normal 0.000000 0.000000 -1.000000
  outer loop
   vertex 99.998001 86.664001 0.000000
   vertex 99.998001 89.998001 0.000000
   vertex 109.998009 89.998001 0.000000
  endloop
 endfacet
 facet normal 0.000000 0.000000 -1.000000
  outer loop
   vertex 99.998001 79.998001 0.000000
   vertex 109.998009 89.998001 0.000000
   vertex 109.998009 79.998001 0.000000
  endloop
 endfacet
 facet normal 0.000000 0.000000 -1.000000
  outer loop
   vertex 99.998001 26.664001 0.000000
   vertex 99.998001 29.998001 0.000000
   vertex 109.998009 29.998001 0.000000
  endloop
 endfacet
 facet normal 0.000000 0.000000 -1.000000
  outer loop
   vertex 99.998001 19.998001 0.000000
   vertex 109.998009 29.998001 0.000000
   vertex 109.998009 19.998001 0.000000
  endloop
 endfacet
 facet normal 0.000000 0.000000 -1.000000
  outer loop
   vertex 0.000000 89.998001 0.000000
   vertex -10.000000 79.998001 0.000000
   vertex -10.000000 89.998001 0.000000
  endloop
 endfacet
 facet normal 0.000000 0.000000 -1.000000
  outer loop
   vertex 0.000000 83.332001 0.000000
   vertex 0.000000 79.998001 0.000000
   vertex -10.000000 79.998001 0.000000
  endloop
 endfacet
 facet normal 0.000000 0.000000 -1.000000
  outer loop
   vertex 0.000000 29.998001 0.000000
   vertex -10.000000 19.998001 0.000000
   vertex -10.000000 29.998001 0.000000
  endloop
 endfacet
 facet normal 0.000000 0.000000 -1.000000
  outer loop
   vertex 0.000000 23.332001 0.000000
   vertex 0.000000 19.998001 0.000000
   vertex -10.000000 19.998001 0.000000
  endloop
 endfacet
 facet normal -1.000000 0.000000 0.000000
  outer loop
   vertex 0.000000 89.998001 0.000000
   vertex 0.000000 89.998001 6.666000
   vertex 0.000000 109.998009 9.998000
  endloop
 endfacet
 facet normal -1.000000 0.000000 0.000000
  outer loop
   vertex 0.000000 89.998001 0.000000
   vertex 0.000000 109.998009 9.998000
   vertex 0.000000 109.998009 0.000000
  endloop
 endfacet
 facet normal 0.000000 1.000000 0.000000
  outer loop
   vertex 0.000000 109.998009 0.000000
   vertex 0.000000 109.998009 9.998000
   vertex 49.998001 109.998009 4.998000
  endloop
 endfacet
 facet normal 0.000000 1.000000 0.000000
  outer loop
   vertex 49.998001 109.998009 4.998000
   vertex 0.000000 109.998009 9.998000
   vertex 49.998001 109.998009 9.998000
  endloop
 endfacet
 facet normal 1.000000 0.000000 0.000000
  outer loop
   vertex 99.998001 89.998001 9.998000
   vertex 99.998001 89.998001 3.332000
   vertex 99.998001 109.998009 0.000000
  endloop
 endfacet
 facet normal 1.000000 0.000000 0.000000
  outer loop
   vertex 99.998001 89.998001 9.998000
   vertex 99.998001 109.998009 0.000000
   vertex 99.998001 109.998009 9.998000
  endloop
 endfacet
 facet normal 1.000000 0.000000 0.000000
  outer loop
   vertex 99.998001 89.998001 0.000000
   vertex 99.998001 84.998001 5.000000
   vertex 99.998001 79.998001 0.000000
  endloop
 endfacet
 facet normal 1.000000 0.000000 0.000000
  outer loop
   vertex 99.998001 89.998001 9.998000
   vertex 99.998001 83.332001 9.998000
   vertex 99.998001 89.998001 6.666000
  endloop
 endfacet
 facet normal 1.000000 0.000000 0.000000
  outer loop
   vertex 99.998001 29.998001 9.998000
   vertex 99.998001 29.998001 3.332000
   vertex 99.998001 39.998001 0.000000
  endloop
 endfacet
 facet normal 1.000000 0.000000 0.000000
  outer loop
   vertex 99.998001 79.998001 6.666000
   vertex 99.998001 79.998001 9.998000
   vertex 99.998001 69.998001 9.998000
  endloop
 endfacet
 facet normal 1.000000 0.000000 0.000000
  outer loop
   vertex 99.998001 29.998001 0.000000
   vertex 99.998001 24.998001 5.000000
   vertex 99.998001 19.998001 0.000000
  endloop
 endfacet
 facet normal 1.000000 0.000000 0.000000
  outer loop
   vertex 99.998001 29.998001 9.998000
   vertex 99.998001 23.332001 9.998000
   vertex 99.998001 29.998001 6.666000
  endloop
 endfacet
 facet normal 1.000000 0.000000 0.000000
  outer loop
   vertex 99.998001 0.000000 0.000000
   vertex 99.998001 4.998000 9.998000
   vertex 99.998001 0.000000 14.998001
  endloop
 endfacet
 facet normal 1.000000 0.000000 0.000000
  outer loop
   vertex 99.998001 4.998000 9.998000
   vertex 99.998001 0.000000 0.000000
   vertex 99.998001 19.998001 0.000000
  endloop
 endfacet
 facet normal 1.000000 0.000000 0.000000
  outer loop
   vertex 99.998001 19.998001 6.666000
   vertex 99.998001 19.998001 9.998000
   vertex 99.998001 4.998000 9.998000
  endloop
 endfacet
 facet normal 1.000000 0.000000 0.000000
  outer loop
   vertex 99.998001 4.998000 14.998001
   vertex 99.998001 0.000000 14.998001
   vertex 99.998001 4.998000 9.998000
  endloop
 endfacet
 facet normal 0.000000 -1.000000 0.000000
  outer loop
   vertex 99.998001 0.000000 0.000000
   vertex 99.998001 0.000000 14.998001
   vertex 49.998001 0.000000 7.498000
  endloop
 endfacet
 facet normal 0.000000 -1.000000 0.000000
  outer loop
   vertex 49.998001 0.000000 7.498000
   vertex 99.998001 0.000000 14.998001
   vertex 49.998001 0.000000 14.998001
  endloop
 endfacet
 facet normal -1.000000 0.000000 0.000000
  outer loop
   vertex 0.000000 4.998000 14.998001
   vertex 0.000000 0.000000 0.000000
   vertex 0.000000 0.000000 14.998001
  endloop
 endfacet
 facet normal -1.000000 0.000000 0.000000
  outer loop
   vertex 0.000000 0.000000 0.000000
   vertex 0.000000 4.998000 14.998001
   vertex 0.000000 4.998000 9.998000
  endloop
 endfacet
 facet normal -1.000000 0.000000 0.000000
  outer loop
   vertex 0.000000 0.000000 0.000000
   vertex 0.000000 4.998000 9.998000
   vertex 0.000000 19.998001 0.000000
  endloop
 endfacet
 facet normal -1.000000 0.000000 0.000000
  outer loop
   vertex 0.000000 19.998001 9.998000
   vertex 0.000000 19.998001 3.332000
   vertex 0.000000 4.998000 9.998000
  endloop
 endfacet
 facet normal -1.000000 0.000000 0.000000
  outer loop
   vertex 0.000000 19.998001 9.998000
   vertex 0.000000 26.664001 9.998000
   vertex 0.000000 19.998001 6.666000
  endloop
 endfacet
 facet normal -1.000000 0.000000 0.000000
  outer loop
   vertex 0.000000 29.998001 9.998000
   vertex 0.000000 29.998001 3.332000
   vertex 0.000000 24.998001 5.000000
  endloop
 endfacet
 facet normal -1.000000 0.000000 0.000000
  outer loop
   vertex 0.000000 29.998001 6.666000
   vertex 0.000000 29.998001 9.998000
   vertex 0.000000 79.998001 9.998000
  endloop
 endfacet
 facet normal -1.000000 0.000000 0.000000
  outer loop
   vertex 0.000000 79.998001 9.998000
   vertex 0.000000 79.998001 3.332000
   vertex 0.000000 29.998001 0.000000
  endloop
 endfacet
 facet normal -1.000000 0.000000 0.000000
  outer loop
   vertex 0.000000 79.998001 9.998000
   vertex 0.000000 86.664001 9.998000
   vertex 0.000000 79.998001 6.666000
  endloop
 endfacet
 facet normal -1.000000 0.000000 0.000000
  outer loop
   vertex 0.000000 89.998001 3.332000
   vertex 0.000000 89.998001 0.000000
   vertex 0.000000 79.998001 0.000000
  endloop
 endfacet
 facet normal 0.000000 0.000000 1.000000
  outer loop
   vertex 99.998001 29.998001 9.998000
   vertex 99.998001 26.664001 9.998000
   vertex 109.998009 19.998001 9.998000
  endloop
 endfacet
 facet normal 0.000000 0.000000 1.000000
  outer loop
   vertex 99.998001 29.998001 9.998000
   vertex 109.998009 19.998001 9.998000
   vertex 109.998009 29.998001 9.998000
  endloop
 endfacet
 facet normal 0.000000 1.000000 0.000000
  outer loop
   vertex 99.998001 29.998001 9.998000
   vertex 109.998009 29.998001 0.000000
   vertex 99.998001 29.998001 0.000000
  endloop
 endfacet
 facet normal 0.000000 1.000000 0.000000
  outer loop
   vertex 109.998009 29.998001 0.000000
   vertex 99.998001 29.998001 9.998000
   vertex 109.998009 29.998001 9.998000
  endloop
 endfacet
 facet normal 1.000000 0.000000 0.000000
  outer loop
   vertex 109.998009 29.998001 0.000000
   vertex 109.998009 19.998001 9.998000
   vertex 109.998009 19.998001 0.000000
  endloop
 endfacet
 facet normal 1.000000 0.000000 0.000000
  outer loop
   vertex 109.998009 19.998001 9.998000
   vertex 109.998009 29.998001 0.000000
   vertex 109.998009 29.998001 9.998000
  endloop
 endfacet
 facet normal 0.000000 -1.000000 0.000000
  outer loop
   vertex 109.998009 19.998001 9.998000
   vertex 99.998001 19.998001 0.000000
   vertex 109.998009 19.998001 0.000000
  endloop
 endfacet
 facet normal 0.000000 -1.000000 0.000000
  outer loop
   vertex 99.998001 19.998001 0.000000
   vertex 109.998009 19.998001 9.998000
   vertex 99.998001 19.998001 9.998000
  endloop
 endfacet
 facet normal 0.000000 0.000000 1.000000
  outer loop
   vertex 99.998001 89.998001 9.998000
   vertex 99.998001 86.664001 9.998000
   vertex 109.998009 79.998001 9.998000
  endloop
 endfacet
 facet normal 0.000000 0.000000 1.000000
  outer loop
   vertex 99.998001 89.998001 9.998000
   vertex 109.998009 79.998001 9.998000
   vertex 109.998009 89.998001 9.998000
  endloop
 endfacet
 facet normal 0.000000 -1.000000 0.000000
  outer loop
   vertex 109.998009 79.998001 9.998000
   vertex 99.998001 79.998001 0.000000
   vertex 109.998009 79.998001 0.000000
  endloop
 endfacet
 facet normal 0.000000 -1.000000 0.000000
  outer loop
   vertex 99.998001 79.998001 0.000000
   vertex 109.998009 79.998001 9.998000
   vertex 99.998001 79.998001 9.998000
  endloop
 endfacet
 facet normal 0.000000 1.000000 0.000000
  outer loop
   vertex 99.998001 89.998001 9.998000
   vertex 109.998009 89.998001 0.000000
   vertex 99.998001 89.998001 0.000000
  endloop
 endfacet
 facet normal 0.000000 1.000000 0.000000
  outer loop
   vertex 109.998009 89.998001 0.000000
   vertex 99.998001 89.998001 9.998000
   vertex 109.998009 89.998001 9.998000
  endloop
 endfacet
 facet normal 1.000000 0.000000 0.000000
  outer loop
   vertex 109.998009 89.998001 0.000000
   vertex 109.998009 79.998001 9.998000
   vertex 109.998009 79.998001 0.000000
  endloop
 endfacet
 facet normal 1.000000 0.000000 0.000000
  outer loop
   vertex 109.998009 79.998001 9.998000
   vertex 109.998009 89.998001 0.000000
   vertex 109.998009 89.998001 9.998000
  endloop
 endfacet
 facet normal 0.000000 0.000000 1.000000
  outer loop
   vertex 0.000000 19.998001 9.998000
   vertex -10.000000 29.998001 9.998000
   vertex -10.000000 19.998001 9.998000
  endloop
 endfacet
 facet normal 0.000000 0.000000 1.000000
  outer loop
   vertex 0.000000 19.998001 9.998000
   vertex 0.000000 23.332001 9.998000
   vertex -10.000000 29.998001 9.998000
  endloop
 endfacet
 facet normal 0.000000 1.000000 0.000000
  outer loop
   vertex -10.000000 29.998001 9.998000
   vertex 0.000000 29.998001 0.000000
   vertex -10.000000 29.998001 0.000000
  endloop
 endfacet
 facet normal 0.000000 1.000000 0.000000
  outer loop
   vertex 0.000000 29.998001 0.000000
   vertex -10.000000 29.998001 9.998000
   vertex 0.000000 29.998001 9.998000
  endloop
 endfacet
 facet normal 0.000000 -1.000000 0.000000
  outer loop
   vertex 0.000000 19.998001 9.998000
   vertex -10.000000 19.998001 0.000000
   vertex 0.000000 19.998001 0.000000
  endloop
 endfacet
 facet normal 0.000000 -1.000000 0.000000
  outer loop
   vertex -10.000000 19.998001 0.000000
   vertex 0.000000 19.998001 9.998000
   vertex -10.000000 19.998001 9.998000
  endloop
 endfacet
 facet normal -1.000000 0.000000 0.000000
  outer loop
   vertex -10.000000 29.998001 9.998000
   vertex -10.000000 19.998001 0.000000
   vertex -10.000000 19.998001 9.998000
  endloop
 endfacet
 facet normal -1.000000 0.000000 0.000000
  outer loop
   vertex -10.000000 19.998001 0.000000
   vertex -10.000000 29.998001 9.998000
   vertex -10.000000 29.998001 0.000000
  endloop
 endfacet
 facet normal 0.000000 0.000000 1.000000
  outer loop
   vertex 0.000000 79.998001 9.998000
   vertex -10.000000 89.998001 9.998000
   vertex -10.000000 79.998001 9.998000
  endloop
 endfacet
 facet normal 0.000000 0.000000 1.000000
  outer loop
   vertex 0.000000 79.998001 9.998000
   vertex 0.000000 83.332001 9.998000
   vertex -10.000000 89.998001 9.998000
  endloop
 endfacet
 facet normal 0.000000 1.000000 0.000000
  outer loop
   vertex -10.000000 89.998001 9.998000
   vertex 0.000000 89.998001 0.000000
   vertex -10.000000 89.998001 0.000000
  endloop
 endfacet
 facet normal 0.000000 1.000000 0.000000
  outer loop
   vertex 0.000000 89.998001 0.000000
   vertex -10.000000 89.998001 9.998000
   vertex 0.000000 89.998001 9.998000
  endloop
 endfacet
 facet normal 0.000000 -1.000000 0.000000
  outer loop
   vertex 0.000000 79.998001 9.998000
   vertex -10.000000 79.998001 0.000000
   vertex 0.000000 79.998001 0.000000
  endloop
 endfacet
 facet normal 0.000000 -1.000000 0.000000
  outer loop
   vertex -10.000000 79.998001 0.000000
   vertex 0.000000 79.998001 9.998000
   vertex -10.000000 79.998001 9.998000
  endloop
 endfacet
 facet normal -1.000000 0.000000 0.000000
  outer loop
   vertex -10.000000 89.998001 9.998000
   vertex -10.000000 79.998001 0.000000
   vertex -10.000000 79.998001 9.998000
  endloop
 endfacet
 facet normal -1.000000 0.000000 0.000000
  outer loop
   vertex -10.000000 79.998001 0.000000
   vertex -10.000000 89.998001 9.998000
   vertex -10.000000 89.998001 0.000000
  endloop
 endfacet
 facet normal 0.000000 0.000000 1.000000
  outer loop
   vertex 0.000000 4.998000 9.998000
   vertex 17.410002 15.340001 9.998000
   vertex 0.000000 19.998001 9.998000
  endloop
 endfacet
 facet normal 0.000000 0.000000 1.000000
  outer loop
   vertex 17.410002 15.340001 9.998000
   vertex 0.000000 4.998000 9.998000
   vertex 18.694000 15.084001 9.998000
  endloop
 endfacet
 facet normal 0.000000 0.000000 1.000000
  outer loop
   vertex 18.694000 15.084001 9.998000
   vertex 0.000000 4.998000 9.998000
   vertex 49.998001 4.998000 9.998000
  endloop
 endfacet
 facet normal 0.000000 0.000000 1.000000
  outer loop
   vertex 0.000000 19.998001 9.998000
   vertex 17.410002 15.340001 9.998000
   vertex 16.172001 15.760001 9.998000
  endloop
 endfacet
 facet normal 0.000000 0.000000 1.000000
  outer loop
   vertex 0.000000 19.998001 9.998000
   vertex 16.172001 15.760001 9.998000
   vertex 14.998001 16.338001 9.998000
  endloop
 endfacet
 facet normal 0.000000 0.000000 1.000000
  outer loop
   vertex 0.000000 19.998001 9.998000
   vertex 14.998001 16.338001 9.998000
   vertex 13.912001 17.066000 9.998000
  endloop
 endfacet
 facet normal 0.000000 0.000000 1.000000
  outer loop
   vertex 0.000000 19.998001 9.998000
   vertex 13.912001 17.066000 9.998000
   vertex 12.928000 17.928001 9.998000
  endloop
 endfacet
 facet normal 0.000000 0.000000 1.000000
  outer loop
   vertex 0.000000 19.998001 9.998000
   vertex 12.928000 17.928001 9.998000
   vertex 0.000000 29.998001 9.998000
  endloop
 endfacet
 facet normal 0.000000 0.000000 1.000000
  outer loop
   vertex 0.000000 29.998001 9.998000
   vertex 12.928000 17.928001 9.998000
   vertex 12.066001 18.912001 9.998000
  endloop
 endfacet
 facet normal 0.000000 0.000000 1.000000
  outer loop
   vertex 0.000000 29.998001 9.998000
   vertex 12.066001 18.912001 9.998000
   vertex 11.338000 19.998001 9.998000
  endloop
 endfacet
 facet normal 0.000000 0.000000 1.000000
  outer loop
   vertex 0.000000 29.998001 9.998000
   vertex 11.338000 19.998001 9.998000
   vertex 10.760000 21.172001 9.998000
  endloop
 endfacet
 facet normal 0.000000 0.000000 1.000000
  outer loop
   vertex 0.000000 29.998001 9.998000
   vertex 10.760000 21.172001 9.998000
   vertex 10.340000 22.410002 9.998000
  endloop
 endfacet
 facet normal 0.000000 0.000000 1.000000
  outer loop
   vertex 0.000000 29.998001 9.998000
   vertex 10.340000 22.410002 9.998000
   vertex 10.084001 23.694000 9.998000
  endloop
 endfacet
 facet normal 0.000000 0.000000 1.000000
  outer loop
   vertex 0.000000 29.998001 9.998000
   vertex 10.084001 23.694000 9.998000
   vertex 0.000000 79.998001 9.998000
  endloop
 endfacet
 facet normal 0.000000 0.000000 1.000000
  outer loop
   vertex 0.000000 79.998001 9.998000
   vertex 10.084001 23.694000 9.998000
   vertex 5.042000 56.846004 9.998000
  endloop
 endfacet
 facet normal 0.000000 0.000000 1.000000
  outer loop
   vertex 5.042000 66.846001 9.998000
   vertex 5.042000 56.846004 9.998000
   vertex 10.084001 23.694000 9.998000
  endloop
 endfacet
 facet normal 0.000000 0.000000 1.000000
  outer loop
   vertex 9.998000 24.998001 9.998000
   vertex 5.042000 66.846001 9.998000
   vertex 10.084001 23.694000 9.998000
  endloop
 endfacet
 facet normal 0.000000 0.000000 1.000000
  outer loop
   vertex 4.998000 67.498001 9.998000
   vertex 9.998000 24.998001 9.998000
   vertex 9.998000 57.498001 9.998000
  endloop
 endfacet
 facet normal 0.000000 0.000000 1.000000
  outer loop
   vertex 59.346004 10.042001 9.998000
   vertex 99.998001 4.998000 9.998000
   vertex 59.998001 9.998000 9.998000
  endloop
 endfacet
 facet normal 0.000000 0.000000 1.000000
  outer loop
   vertex 79.998001 14.998001 9.998000
   vertex 59.998001 9.998000 9.998000
   vertex 99.998001 4.998000 9.998000
  endloop
 endfacet
 facet normal 0.000000 0.000000 1.000000
  outer loop
   vertex 79.998001 14.998001 9.998000
   vertex 99.998001 4.998000 9.998000
   vertex 81.304001 15.084001 9.998000
  endloop
 endfacet
 facet normal 0.000000 0.000000 1.000000
  outer loop
   vertex 81.304001 15.084001 9.998000
   vertex 99.998001 4.998000 9.998000
   vertex 82.588005 15.340001 9.998000
  endloop
 endfacet
 facet normal 0.000000 0.000000 1.000000
  outer loop
   vertex 82.588005 15.340001 9.998000
   vertex 99.998001 4.998000 9.998000
   vertex 83.826004 15.760001 9.998000
  endloop
 endfacet
 facet normal 0.000000 0.000000 1.000000
  outer loop
   vertex 83.826004 15.760001 9.998000
   vertex 99.998001 4.998000 9.998000
   vertex 84.998001 16.338001 9.998000
  endloop
 endfacet
 facet normal 0.000000 0.000000 1.000000
  outer loop
   vertex 84.998001 16.338001 9.998000
   vertex 99.998001 4.998000 9.998000
   vertex 86.086006 17.066000 9.998000
  endloop
 endfacet
 facet normal 0.000000 0.000000 1.000000
  outer loop
   vertex 86.086006 17.066000 9.998000
   vertex 99.998001 4.998000 9.998000
   vertex 87.070007 17.928001 9.998000
  endloop
 endfacet
 facet normal 0.000000 0.000000 1.000000
  outer loop
   vertex 87.070007 17.928001 9.998000
   vertex 99.998001 4.998000 9.998000
   vertex 87.932007 18.912001 9.998000
  endloop
 endfacet
 facet normal 0.000000 0.000000 1.000000
  outer loop
   vertex 87.932007 18.912001 9.998000
   vertex 99.998001 4.998000 9.998000
   vertex 88.660004 19.998001 9.998000
  endloop
 endfacet
 facet normal 0.000000 0.000000 1.000000
  outer loop
   vertex 88.660004 19.998001 9.998000
   vertex 99.998001 4.998000 9.998000
   vertex 89.238007 21.172001 9.998000
  endloop
 endfacet
 facet normal 0.000000 0.000000 1.000000
  outer loop
   vertex 89.238007 21.172001 9.998000
   vertex 99.998001 4.998000 9.998000
   vertex 89.658005 22.410002 9.998000
  endloop
 endfacet
 facet normal 0.000000 0.000000 1.000000
  outer loop
   vertex 89.658005 22.410002 9.998000
   vertex 99.998001 4.998000 9.998000
   vertex 89.914001 23.694000 9.998000
  endloop
 endfacet
 facet normal 0.000000 0.000000 1.000000
  outer loop
   vertex 89.914001 23.694000 9.998000
   vertex 99.998001 4.998000 9.998000
   vertex 89.998001 24.998001 9.998000
  endloop
 endfacet
 facet normal 0.000000 0.000000 1.000000
  outer loop
   vertex 89.998001 24.998001 9.998000
   vertex 99.998001 4.998000 9.998000
   vertex 94.998001 47.498001 9.998000
  endloop
 endfacet
 facet normal 0.000000 0.000000 1.000000
  outer loop
   vertex 18.694000 99.914001 9.998000
   vertex 49.998001 109.998009 9.998000
   vertex 0.000000 109.998009 9.998000
  endloop
 endfacet
 facet normal 0.000000 0.000000 1.000000
  outer loop
   vertex 18.694000 99.914001 9.998000
   vertex 0.000000 109.998009 9.998000
   vertex 17.410002 99.658005 9.998000
  endloop
 endfacet
 facet normal 0.000000 0.000000 1.000000
  outer loop
   vertex 17.410002 99.658005 9.998000
   vertex 0.000000 109.998009 9.998000
   vertex 16.172001 99.238007 9.998000
  endloop
 endfacet
 facet normal 0.000000 0.000000 1.000000
  outer loop
   vertex 16.172001 99.238007 9.998000
   vertex 0.000000 109.998009 9.998000
   vertex 14.998001 98.660004 9.998000
  endloop
 endfacet
 facet normal 0.000000 0.000000 1.000000
  outer loop
   vertex 14.998001 98.660004 9.998000
   vertex 0.000000 109.998009 9.998000
   vertex 13.912001 97.932007 9.998000
  endloop
 endfacet
 facet normal 0.000000 0.000000 1.000000
  outer loop
   vertex 13.912001 97.932007 9.998000
   vertex 0.000000 109.998009 9.998000
   vertex 12.928000 97.070007 9.998000
  endloop
 endfacet
 facet normal 0.000000 0.000000 1.000000
  outer loop
   vertex 12.928000 97.070007 9.998000
   vertex 0.000000 109.998009 9.998000
   vertex 12.066001 96.086006 9.998000
  endloop
 endfacet
 facet normal 0.000000 0.000000 1.000000
  outer loop
   vertex 12.066001 96.086006 9.998000
   vertex 0.000000 109.998009 9.998000
   vertex 11.338000 94.998001 9.998000
  endloop
 endfacet
 facet normal 0.000000 0.000000 1.000000
  outer loop
   vertex 11.338000 94.998001 9.998000
   vertex 0.000000 109.998009 9.998000
   vertex 10.760000 93.826004 9.998000
  endloop
 endfacet
 facet normal 0.000000 0.000000 1.000000
  outer loop
   vertex 10.760000 93.826004 9.998000
   vertex 0.000000 109.998009 9.998000
   vertex 10.340000 92.588005 9.998000
  endloop
 endfacet
 facet normal 0.000000 0.000000 1.000000
  outer loop
   vertex 10.340000 92.588005 9.998000
   vertex 0.000000 109.998009 9.998000
   vertex 10.084001 91.304001 9.998000
  endloop
 endfacet
 facet normal 0.000000 0.000000 1.000000
  outer loop
   vertex 10.084001 91.304001 9.998000
   vertex 0.000000 109.998009 9.998000
   vertex 9.998000 89.998001 9.998000
  endloop
 endfacet
 facet normal 0.000000 0.000000 1.000000
  outer loop
   vertex 19.998001 99.998001 9.998000
   vertex 59.346004 104.956001 9.998000
   vertex 18.694000 99.914001 9.998000
  endloop
 endfacet
 facet normal 0.000000 0.000000 1.000000
  outer loop
   vertex 79.998001 99.998001 9.998000
   vertex 59.998001 104.998009 9.998000
   vertex 19.998001 99.998001 9.998000
  endloop
 endfacet
 facet normal 0.000000 0.000000 1.000000
  outer loop
   vertex 99.998001 109.998009 9.998000
   vertex 79.998001 99.998001 9.998000
   vertex 81.304001 99.914001 9.998000
  endloop
 endfacet
 facet normal 0.000000 0.000000 1.000000
  outer loop
   vertex 99.998001 109.998009 9.998000
   vertex 81.304001 99.914001 9.998000
   vertex 82.588005 99.658005 9.998000
  endloop
 endfacet
 facet normal 0.000000 0.000000 1.000000
  outer loop
   vertex 99.998001 109.998009 9.998000
   vertex 82.588005 99.658005 9.998000
   vertex 83.826004 99.238007 9.998000
  endloop
 endfacet
 facet normal 0.000000 0.000000 1.000000
  outer loop
   vertex 99.998001 109.998009 9.998000
   vertex 83.826004 99.238007 9.998000
   vertex 84.998001 98.660004 9.998000
  endloop
 endfacet
 facet normal 0.000000 0.000000 1.000000
  outer loop
   vertex 99.998001 109.998009 9.998000
   vertex 84.998001 98.660004 9.998000
   vertex 86.086006 97.932007 9.998000
  endloop
 endfacet
 facet normal 0.000000 0.000000 1.000000
  outer loop
   vertex 99.998001 109.998009 9.998000
   vertex 86.086006 97.932007 9.998000
   vertex 87.070007 97.070007 9.998000
  endloop
 endfacet
 facet normal 0.000000 0.000000 1.000000
  outer loop
   vertex 99.998001 109.998009 9.998000
   vertex 87.070007 97.070007 9.998000
   vertex 87.932007 96.086006 9.998000
  endloop
 endfacet
 facet normal 0.000000 0.000000 1.000000
  outer loop
   vertex 99.998001 109.998009 9.998000
   vertex 87.932007 96.086006 9.998000
   vertex 88.660004 94.998001 9.998000
  endloop
 endfacet
 facet normal 0.000000 0.000000 1.000000
  outer loop
   vertex 99.998001 109.998009 9.998000
   vertex 88.660004 94.998001 9.998000
   vertex 89.238007 93.826004 9.998000
  endloop
 endfacet
 facet normal 0.000000 0.000000 1.000000
  outer loop
   vertex 99.998001 109.998009 9.998000
   vertex 89.238007 93.826004 9.998000
   vertex 89.658005 92.588005 9.998000
  endloop
 endfacet
 facet normal 0.000000 0.000000 1.000000
  outer loop
   vertex 99.998001 109.998009 9.998000
   vertex 89.658005 92.588005 9.998000
   vertex 89.914001 91.304001 9.998000
  endloop
 endfacet
 facet normal 0.000000 0.000000 1.000000
  outer loop
   vertex 99.998001 109.998009 9.998000
   vertex 89.914001 91.304001 9.998000
   vertex 89.998001 89.998001 9.998000
  endloop
 endfacet
 facet normal 0.000000 0.000000 1.000000
  outer loop
   vertex 99.998001 4.998000 9.998000
   vertex 99.998001 19.998001 9.998000
   vertex 94.998001 47.498001 9.998000
  endloop
 endfacet
 facet normal 0.000000 0.000000 1.000000
  outer loop
   vertex 99.998001 19.998001 9.998000
   vertex 99.998001 29.998001 9.998000
   vertex 94.998001 47.498001 9.998000
  endloop
 endfacet
 facet normal 1.000000 0.000000 0.000000
  outer loop
   vertex 99.998001 29.998001 9.998000
   vertex 99.998001 79.998001 0.000000
   vertex 99.998001 57.498001 9.998000
  endloop
 endfacet
 facet normal 1.000000 0.000000 0.000000
  outer loop
   vertex 99.998001 69.998001 9.998000
   vertex 99.998001 64.998001 9.998000
   vertex 99.998001 79.998001 0.000000
  endloop
 endfacet
 facet normal 0.000000 0.000000 1.000000
  outer loop
   vertex 99.998001 109.998009 9.998000
   vertex 89.998001 89.998001 9.998000
   vertex 99.998001 89.998001 9.998000
  endloop
 endfacet
 facet normal 0.000000 0.000000 1.000000
  outer loop
   vertex 49.998001 2.498000 14.998001
   vertex 49.998001 0.000000 14.998001
   vertex 99.998001 0.000000 14.998001
  endloop
 endfacet
 facet normal 0.000000 0.000000 1.000000
  outer loop
   vertex 99.998001 4.998000 14.998001
   vertex 49.998001 2.498000 14.998001
   vertex 99.998001 0.000000 14.998001
  endloop
 endfacet
 facet normal 0.000000 1.000000 0.000000
  outer loop
   vertex 0.000000 4.998000 9.998000
   vertex 0.000000 4.998000 14.998001
   vertex 49.998001 4.998000 12.498000
  endloop
 endfacet
 facet normal 0.000000 1.000000 0.000000
  outer loop
   vertex 49.998001 4.998000 12.498000
   vertex 49.998001 4.998000 14.998001
   vertex 99.998001 4.998000 14.998001
  endloop
 endfacet
 facet normal -1.000000 0.000000 0.000000
  outer loop
   vertex 89.998001 57.498001 4.998000
   vertex 89.998001 57.498001 9.998000
   vertex 89.998001 89.998001 9.998000
  endloop
 endfacet
 facet normal -1.000000 0.000000 0.000000
  outer loop
   vertex 89.998001 89.998001 0.000000
   vertex 89.998001 57.498001 4.998000
   vertex 89.998001 89.998001 9.998000
  endloop
 endfacet
 facet normal -0.997938 -0.064186 0.000000
  outer loop
   vertex 89.914001 91.304001 9.998000
   vertex 89.998001 89.998001 0.000000
   vertex 89.998001 89.998001 9.998000
  endloop
 endfacet
 facet normal -0.997938 -0.064186 0.000000
  outer loop
   vertex 89.998001 89.998001 0.000000
   vertex 89.914001 91.304001 9.998000
   vertex 89.914001 91.304001 0.000000
  endloop
 endfacet
 facet normal -0.980699 -0.195526 0.000000
  outer loop
   vertex 89.658005 92.588005 9.998000
   vertex 89.914001 91.304001 0.000000
   vertex 89.914001 91.304001 9.998000
  endloop
 endfacet
 facet normal -0.980699 -0.195526 0.000000
  outer loop
   vertex 89.914001 91.304001 0.000000
   vertex 89.658005 92.588005 9.998000
   vertex 89.658005 92.588005 0.000000
  endloop
 endfacet
 facet normal -0.946987 -0.321271 0.000000
  outer loop
   vertex 89.238007 93.826004 9.998000
   vertex 89.658005 92.588005 0.000000
   vertex 89.658005 92.588005 9.998000
  endloop
 endfacet
 facet normal -0.946987 -0.321271 0.000000
  outer loop
   vertex 89.658005 92.588005 0.000000
   vertex 89.238007 93.826004 9.998000
   vertex 89.238007 93.826004 0.000000
  endloop
 endfacet
 facet normal -0.896861 -0.442312 0.000000
  outer loop
   vertex 88.660004 94.998001 9.998000
   vertex 89.238007 93.826004 0.000000
   vertex 89.238007 93.826004 9.998000
  endloop
 endfacet
 facet normal -0.896861 -0.442312 0.000000
  outer loop
   vertex 89.238007 93.826004 0.000000
   vertex 88.660004 94.998001 9.998000
   vertex 88.660004 94.998001 0.000000
  endloop
 endfacet
 facet normal -0.831111 -0.556106 0.000000
  outer loop
   vertex 87.932007 96.086006 9.998000
   vertex 88.660004 94.998001 0.000000
   vertex 88.660004 94.998001 9.998000
  endloop
 endfacet
 facet normal -0.831111 -0.556106 0.000000
  outer loop
   vertex 88.660004 94.998001 0.000000
   vertex 87.932007 96.086006 9.998000
   vertex 87.932007 96.086006 0.000000
  endloop
 endfacet
 facet normal -0.752198 -0.658937 0.000000
  outer loop
   vertex 87.070007 97.070007 9.998000
   vertex 87.932007 96.086006 0.000000
   vertex 87.932007 96.086006 9.998000
  endloop
 endfacet
 facet normal -0.752198 -0.658937 0.000000
  outer loop
   vertex 87.932007 96.086006 0.000000
   vertex 87.070007 97.070007 9.998000
   vertex 87.070007 97.070007 0.000000
  endloop
 endfacet
 facet normal -0.658937 -0.752198 0.000000
  outer loop
   vertex 87.070007 97.070007 9.998000
   vertex 86.086006 97.932007 0.000000
   vertex 87.070007 97.070007 0.000000
  endloop
 endfacet
 facet normal -0.658937 -0.752198 0.000000
  outer loop
   vertex 86.086006 97.932007 0.000000
   vertex 87.070007 97.070007 9.998000
   vertex 86.086006 97.932007 9.998000
  endloop
 endfacet
 facet normal -0.556106 -0.831111 0.000000
  outer loop
   vertex 86.086006 97.932007 9.998000
   vertex 84.998001 98.660004 0.000000
   vertex 86.086006 97.932007 0.000000
  endloop
 endfacet
 facet normal -0.556106 -0.831111 0.000000
  outer loop
   vertex 84.998001 98.660004 0.000000
   vertex 86.086006 97.932007 9.998000
   vertex 84.998001 98.660004 9.998000
  endloop
 endfacet
 facet normal -0.442312 -0.896861 0.000000
  outer loop
   vertex 84.998001 98.660004 9.998000
   vertex 83.826004 99.238007 0.000000
   vertex 84.998001 98.660004 0.000000
  endloop
 endfacet
 facet normal -0.442312 -0.896861 0.000000
  outer loop
   vertex 83.826004 99.238007 0.000000
   vertex 84.998001 98.660004 9.998000
   vertex 83.826004 99.238007 9.998000
  endloop
 endfacet
 facet normal -0.321271 -0.946987 0.000000
  outer loop
   vertex 83.826004 99.238007 9.998000
   vertex 82.588005 99.658005 0.000000
   vertex 83.826004 99.238007 0.000000
  endloop
 endfacet
 facet normal -0.321271 -0.946987 0.000000
  outer loop
   vertex 82.588005 99.658005 0.000000
   vertex 83.826004 99.238007 9.998000
   vertex 82.588005 99.658005 9.998000
  endloop
 endfacet
 facet normal -0.195526 -0.980699 0.000000
  outer loop
   vertex 82.588005 99.658005 9.998000
   vertex 81.304001 99.914001 0.000000
   vertex 82.588005 99.658005 0.000000
  endloop
 endfacet
 facet normal -0.195526 -0.980699 0.000000
  outer loop
   vertex 81.304001 99.914001 0.000000
   vertex 82.588005 99.658005 9.998000
   vertex 81.304001 99.914001 9.998000
  endloop
 endfacet
 facet normal -0.064186 -0.997938 0.000000
  outer loop
   vertex 81.304001 99.914001 9.998000
   vertex 79.998001 99.998001 0.000000
   vertex 81.304001 99.914001 0.000000
  endloop
 endfacet
 facet normal -0.064186 -0.997938 0.000000
  outer loop
   vertex 79.998001 99.998001 0.000000
   vertex 81.304001 99.914001 9.998000
   vertex 79.998001 99.998001 9.998000
  endloop
 endfacet
 facet normal 0.000000 -1.000000 0.000000
  outer loop
   vertex 79.998001 99.998001 0.000000
   vertex 79.998001 99.998001 9.998000
   vertex 49.998001 99.998001 4.998000
  endloop
 endfacet
 facet normal 0.000000 -1.000000 0.000000
  outer loop
   vertex 19.998001 99.998001 9.998000
   vertex 49.998001 99.998001 4.998000
   vertex 79.998001 99.998001 9.998000
  endloop
 endfacet
 facet normal 0.064284 -0.997932 0.000000
  outer loop
   vertex 19.998001 99.998001 9.998000
   vertex 18.694000 99.914001 0.000000
   vertex 19.998001 99.998001 0.000000
  endloop
 endfacet
 facet normal 0.064284 -0.997932 0.000000
  outer loop
   vertex 18.694000 99.914001 0.000000
   vertex 19.998001 99.998001 9.998000
   vertex 18.694000 99.914001 9.998000
  endloop
 endfacet
 facet normal 0.195526 -0.980698 0.000000
  outer loop
   vertex 18.694000 99.914001 9.998000
   vertex 17.410002 99.658005 0.000000
   vertex 18.694000 99.914001 0.000000
  endloop
 endfacet
 facet normal 0.195526 -0.980698 0.000000
  outer loop
   vertex 17.410002 99.658005 0.000000
   vertex 18.694000 99.914001 9.998000
   vertex 17.410002 99.658005 9.998000
  endloop
 endfacet
 facet normal 0.321270 -0.946988 0.000000
  outer loop
   vertex 17.410002 99.658005 9.998000
   vertex 16.172001 99.238007 0.000000
   vertex 17.410002 99.658005 0.000000
  endloop
 endfacet
 facet normal 0.321270 -0.946988 0.000000
  outer loop
   vertex 16.172001 99.238007 0.000000
   vertex 17.410002 99.658005 9.998000
   vertex 16.172001 99.238007 9.998000
  endloop
 endfacet
 facet normal 0.441705 -0.897160 0.000000
  outer loop
   vertex 16.172001 99.238007 9.998000
   vertex 14.998001 98.660004 0.000000
   vertex 16.172001 99.238007 0.000000
  endloop
 endfacet
 facet normal 0.441705 -0.897160 0.000000
  outer loop
   vertex 14.998001 98.660004 0.000000
   vertex 16.172001 99.238007 9.998000
   vertex 14.998001 98.660004 9.998000
  endloop
 endfacet
 facet normal 0.556815 -0.830637 0.000000
  outer loop
   vertex 14.998001 98.660004 9.998000
   vertex 13.912001 97.932007 0.000000
   vertex 14.998001 98.660004 0.000000
  endloop
 endfacet
 facet normal 0.556815 -0.830637 0.000000
  outer loop
   vertex 13.912001 97.932007 0.000000
   vertex 14.998001 98.660004 9.998000
   vertex 13.912001 97.932007 9.998000
  endloop
 endfacet
 facet normal 0.658937 -0.752198 0.000000
  outer loop
   vertex 13.912001 97.932007 9.998000
   vertex 12.928000 97.070007 0.000000
   vertex 13.912001 97.932007 0.000000
  endloop
 endfacet
 facet normal 0.658937 -0.752198 0.000000
  outer loop
   vertex 12.928000 97.070007 0.000000
   vertex 13.912001 97.932007 9.998000
   vertex 12.928000 97.070007 9.998000
  endloop
 endfacet
 facet normal 0.752198 -0.658937 0.000000
  outer loop
   vertex 12.928000 97.070007 0.000000
   vertex 12.066001 96.086006 9.998000
   vertex 12.066001 96.086006 0.000000
  endloop
 endfacet
 facet normal 0.752198 -0.658937 0.000000
  outer loop
   vertex 12.066001 96.086006 9.998000
   vertex 12.928000 97.070007 0.000000
   vertex 12.928000 97.070007 9.998000
  endloop
 endfacet
 facet normal 0.831110 -0.556108 0.000000
  outer loop
   vertex 12.066001 96.086006 0.000000
   vertex 11.338000 94.998001 9.998000
   vertex 11.338000 94.998001 0.000000
  endloop
 endfacet
 facet normal 0.831110 -0.556108 0.000000
  outer loop
   vertex 11.338000 94.998001 9.998000
   vertex 12.066001 96.086006 0.000000
   vertex 12.066001 96.086006 9.998000
  endloop
 endfacet
 facet normal 0.896862 -0.442310 0.000000
  outer loop
   vertex 11.338000 94.998001 0.000000
   vertex 10.760000 93.826004 9.998000
   vertex 10.760000 93.826004 0.000000
  endloop
 endfacet
 facet normal 0.896862 -0.442310 0.000000
  outer loop
   vertex 10.760000 93.826004 9.998000
   vertex 11.338000 94.998001 0.000000
   vertex 11.338000 94.998001 9.998000
  endloop
 endfacet
 facet normal 0.946987 -0.321272 0.000000
  outer loop
   vertex 10.760000 93.826004 0.000000
   vertex 10.340000 92.588005 9.998000
   vertex 10.340000 92.588005 0.000000
  endloop
 endfacet
 facet normal 0.946987 -0.321272 0.000000
  outer loop
   vertex 10.340000 92.588005 9.998000
   vertex 10.760000 93.826004 0.000000
   vertex 10.760000 93.826004 9.998000
  endloop
 endfacet
 facet normal 0.980698 -0.195528 0.000000
  outer loop
   vertex 10.340000 92.588005 0.000000
   vertex 10.084001 91.304001 9.998000
   vertex 10.084001 91.304001 0.000000
  endloop
 endfacet
 facet normal 0.980698 -0.195528 0.000000
  outer loop
   vertex 10.084001 91.304001 9.998000
   vertex 10.340000 92.588005 0.000000
   vertex 10.340000 92.588005 9.998000
  endloop
 endfacet
 facet normal 0.997839 -0.065708 0.000000
  outer loop
   vertex 10.084001 91.304001 0.000000
   vertex 9.998000 89.998001 9.998000
   vertex 9.998000 89.998001 0.000000
  endloop
 endfacet
 facet normal 0.997839 -0.065708 0.000000
  outer loop
   vertex 9.998000 89.998001 9.998000
   vertex 10.084001 91.304001 0.000000
   vertex 10.084001 91.304001 9.998000
  endloop
 endfacet
 facet normal 1.000000 0.000000 0.000000
  outer loop
   vertex 9.998000 57.498001 4.998000
   vertex 9.998000 57.498001 0.000000
   vertex 9.998000 89.998001 0.000000
  endloop
 endfacet
 facet normal 1.000000 0.000000 0.000000
  outer loop
   vertex 9.998000 89.998001 9.998000
   vertex 9.998000 57.498001 4.998000
   vertex 9.998000 89.998001 0.000000
  endloop
 endfacet
 facet normal 0.997832 0.065808 0.000000
  outer loop
   vertex 9.998000 24.998001 0.000000
   vertex 10.084001 23.694000 9.998000
   vertex 10.084001 23.694000 0.000000
  endloop
 endfacet
 facet normal 0.997832 0.065808 0.000000
  outer loop
   vertex 10.084001 23.694000 9.998000
   vertex 9.998000 24.998001 0.000000
   vertex 9.998000 24.998001 9.998000
  endloop
 endfacet
 facet normal 0.980698 0.195528 0.000000
  outer loop
   vertex 10.084001 23.694000 0.000000
   vertex 10.340000 22.410002 9.998000
   vertex 10.340000 22.410002 0.000000
  endloop
 endfacet
 facet normal 0.980698 0.195528 0.000000
  outer loop
   vertex 10.340000 22.410002 9.998000
   vertex 10.084001 23.694000 0.000000
   vertex 10.084001 23.694000 9.998000
  endloop
 endfacet
 facet normal 0.946987 0.321272 0.000000
  outer loop
   vertex 10.340000 22.410002 0.000000
   vertex 10.760000 21.172001 9.998000
   vertex 10.760000 21.172001 0.000000
  endloop
 endfacet
 facet normal 0.946987 0.321272 0.000000
  outer loop
   vertex 10.760000 21.172001 9.998000
   vertex 10.340000 22.410002 0.000000
   vertex 10.340000 22.410002 9.998000
  endloop
 endfacet
 facet normal 0.897161 0.441703 0.000000
  outer loop
   vertex 10.760000 21.172001 0.000000
   vertex 11.338000 19.998001 9.998000
   vertex 11.338000 19.998001 0.000000
  endloop
 endfacet
 facet normal 0.897161 0.441703 0.000000
  outer loop
   vertex 11.338000 19.998001 9.998000
   vertex 10.760000 21.172001 0.000000
   vertex 10.760000 21.172001 9.998000
  endloop
 endfacet
 facet normal 0.830635 0.556817 0.000000
  outer loop
   vertex 11.338000 19.998001 0.000000
   vertex 12.066001 18.912001 9.998000
   vertex 12.066001 18.912001 0.000000
  endloop
 endfacet
 facet normal 0.830635 0.556817 0.000000
  outer loop
   vertex 12.066001 18.912001 9.998000
   vertex 11.338000 19.998001 0.000000
   vertex 11.338000 19.998001 9.998000
  endloop
 endfacet
 facet normal 0.752198 0.658938 0.000000
  outer loop
   vertex 12.066001 18.912001 0.000000
   vertex 12.928000 17.928001 9.998000
   vertex 12.928000 17.928001 0.000000
  endloop
 endfacet
 facet normal 0.752198 0.658938 0.000000
  outer loop
   vertex 12.928000 17.928001 9.998000
   vertex 12.066001 18.912001 0.000000
   vertex 12.066001 18.912001 9.998000
  endloop
 endfacet
 facet normal 0.658938 0.752197 0.000000
  outer loop
   vertex 12.928000 17.928001 9.998000
   vertex 13.912001 17.066000 0.000000
   vertex 12.928000 17.928001 0.000000
  endloop
 endfacet
 facet normal 0.658938 0.752197 0.000000
  outer loop
   vertex 13.912001 17.066000 0.000000
   vertex 12.928000 17.928001 9.998000
   vertex 13.912001 17.066000 9.998000
  endloop
 endfacet
 facet normal 0.556816 0.830636 0.000000
  outer loop
   vertex 13.912001 17.066000 9.998000
   vertex 14.998001 16.338001 0.000000
   vertex 13.912001 17.066000 0.000000
  endloop
 endfacet
 facet normal 0.556816 0.830636 0.000000
  outer loop
   vertex 14.998001 16.338001 0.000000
   vertex 13.912001 17.066000 9.998000
   vertex 14.998001 16.338001 9.998000
  endloop
 endfacet
 facet normal 0.441703 0.897161 0.000000
  outer loop
   vertex 14.998001 16.338001 9.998000
   vertex 16.172001 15.760001 0.000000
   vertex 14.998001 16.338001 0.000000
  endloop
 endfacet
 facet normal 0.441703 0.897161 0.000000
  outer loop
   vertex 16.172001 15.760001 0.000000
   vertex 14.998001 16.338001 9.998000
   vertex 16.172001 15.760001 9.998000
  endloop
 endfacet
 facet normal 0.321272 0.946987 0.000000
  outer loop
   vertex 16.172001 15.760001 9.998000
   vertex 17.410002 15.340001 0.000000
   vertex 16.172001 15.760001 0.000000
  endloop
 endfacet
 facet normal 0.321272 0.946987 0.000000
  outer loop
   vertex 17.410002 15.340001 0.000000
   vertex 16.172001 15.760001 9.998000
   vertex 17.410002 15.340001 9.998000
  endloop
 endfacet
 facet normal 0.195529 0.980698 0.000000
  outer loop
   vertex 17.410002 15.340001 9.998000
   vertex 18.694000 15.084001 0.000000
   vertex 17.410002 15.340001 0.000000
  endloop
 endfacet
 facet normal 0.195529 0.980698 0.000000
  outer loop
   vertex 18.694000 15.084001 0.000000
   vertex 17.410002 15.340001 9.998000
   vertex 18.694000 15.084001 9.998000
  endloop
 endfacet
 facet normal 0.065808 0.997832 0.000000
  outer loop
   vertex 18.694000 15.084001 9.998000
   vertex 19.998001 14.998001 0.000000
   vertex 18.694000 15.084001 0.000000
  endloop
 endfacet
 facet normal 0.065808 0.997832 0.000000
  outer loop
   vertex 19.998001 14.998001 0.000000
   vertex 18.694000 15.084001 9.998000
   vertex 19.998001 14.998001 9.998000
  endloop
 endfacet
 facet normal 0.000000 1.000000 0.000000
  outer loop
   vertex 19.998001 14.998001 0.000000
   vertex 19.998001 14.998001 9.998000
   vertex 49.998001 14.998001 4.998000
  endloop
 endfacet
 facet normal 0.000000 1.000000 0.000000
  outer loop
   vertex 79.998001 14.998001 9.998000
   vertex 49.998001 14.998001 4.998000
   vertex 19.998001 14.998001 9.998000
  endloop
 endfacet
 facet normal -0.065707 0.997839 0.000000
  outer loop
   vertex 79.998001 14.998001 9.998000
   vertex 81.304001 15.084001 0.000000
   vertex 79.998001 14.998001 0.000000
  endloop
 endfacet
 facet normal -0.065707 0.997839 0.000000
  outer loop
   vertex 81.304001 15.084001 0.000000
   vertex 79.998001 14.998001 9.998000
   vertex 81.304001 15.084001 9.998000
  endloop
 endfacet
 facet normal -0.195528 0.980698 0.000000
  outer loop
   vertex 81.304001 15.084001 9.998000
   vertex 82.588005 15.340001 0.000000
   vertex 81.304001 15.084001 0.000000
  endloop
 endfacet
 facet normal -0.195528 0.980698 0.000000
  outer loop
   vertex 82.588005 15.340001 0.000000
   vertex 81.304001 15.084001 9.998000
   vertex 82.588005 15.340001 9.998000
  endloop
 endfacet
 facet normal -0.321272 0.946987 0.000000
  outer loop
   vertex 82.588005 15.340001 9.998000
   vertex 83.826004 15.760001 0.000000
   vertex 82.588005 15.340001 0.000000
  endloop
 endfacet
 facet normal -0.321272 0.946987 0.000000
  outer loop
   vertex 83.826004 15.760001 0.000000
   vertex 82.588005 15.340001 9.998000
   vertex 83.826004 15.760001 9.998000
  endloop
 endfacet
 facet normal -0.442310 0.896862 0.000000
  outer loop
   vertex 83.826004 15.760001 9.998000
   vertex 84.998001 16.338001 0.000000
   vertex 83.826004 15.760001 0.000000
  endloop
 endfacet
 facet normal -0.442310 0.896862 0.000000
  outer loop
   vertex 84.998001 16.338001 0.000000
   vertex 83.826004 15.760001 9.998000
   vertex 84.998001 16.338001 9.998000
  endloop
 endfacet
 facet normal -0.556107 0.831111 0.000000
  outer loop
   vertex 84.998001 16.338001 9.998000
   vertex 86.086006 17.066000 0.000000
   vertex 84.998001 16.338001 0.000000
  endloop
 endfacet
 facet normal -0.556107 0.831111 0.000000
  outer loop
   vertex 86.086006 17.066000 0.000000
   vertex 84.998001 16.338001 9.998000
   vertex 86.086006 17.066000 9.998000
  endloop
 endfacet
 facet normal -0.658938 0.752198 0.000000
  outer loop
   vertex 86.086006 17.066000 9.998000
   vertex 87.070007 17.928001 0.000000
   vertex 86.086006 17.066000 0.000000
  endloop
 endfacet
 facet normal -0.658938 0.752198 0.000000
  outer loop
   vertex 87.070007 17.928001 0.000000
   vertex 86.086006 17.066000 9.998000
   vertex 87.070007 17.928001 9.998000
  endloop
 endfacet
 facet normal -0.752198 0.658938 0.000000
  outer loop
   vertex 87.932007 18.912001 9.998000
   vertex 87.070007 17.928001 0.000000
   vertex 87.070007 17.928001 9.998000
  endloop
 endfacet
 facet normal -0.752198 0.658938 0.000000
  outer loop
   vertex 87.070007 17.928001 0.000000
   vertex 87.932007 18.912001 9.998000
   vertex 87.932007 18.912001 0.000000
  endloop
 endfacet
 facet normal -0.830637 0.556815 0.000000
  outer loop
   vertex 88.660004 19.998001 9.998000
   vertex 87.932007 18.912001 0.000000
   vertex 87.932007 18.912001 9.998000
  endloop
 endfacet
 facet normal -0.830637 0.556815 0.000000
  outer loop
   vertex 87.932007 18.912001 0.000000
   vertex 88.660004 19.998001 9.998000
   vertex 88.660004 19.998001 0.000000
  endloop
 endfacet
 facet normal -0.897160 0.441705 0.000000
  outer loop
   vertex 89.238007 21.172001 9.998000
   vertex 88.660004 19.998001 0.000000
   vertex 88.660004 19.998001 9.998000
  endloop
 endfacet
 facet normal -0.897160 0.441705 0.000000
  outer loop
   vertex 88.660004 19.998001 0.000000
   vertex 89.238007 21.172001 9.998000
   vertex 89.238007 21.172001 0.000000
  endloop
 endfacet
 facet normal -0.946988 0.321270 0.000000
  outer loop
   vertex 89.658005 22.410002 9.998000
   vertex 89.238007 21.172001 0.000000
   vertex 89.238007 21.172001 9.998000
  endloop
 endfacet
 facet normal -0.946988 0.321270 0.000000
  outer loop
   vertex 89.238007 21.172001 0.000000
   vertex 89.658005 22.410002 9.998000
   vertex 89.658005 22.410002 0.000000
  endloop
 endfacet
 facet normal -0.980698 0.195526 0.000000
  outer loop
   vertex 89.914001 23.694000 9.998000
   vertex 89.658005 22.410002 0.000000
   vertex 89.658005 22.410002 9.998000
  endloop
 endfacet
 facet normal -0.980698 0.195526 0.000000
  outer loop
   vertex 89.658005 22.410002 0.000000
   vertex 89.914001 23.694000 9.998000
   vertex 89.914001 23.694000 0.000000
  endloop
 endfacet
 facet normal -0.997932 0.064284 0.000000
  outer loop
   vertex 89.998001 24.998001 9.998000
   vertex 89.914001 23.694000 0.000000
   vertex 89.914001 23.694000 9.998000
  endloop
 endfacet
 facet normal -0.997932 0.064284 0.000000
  outer loop
   vertex 89.914001 23.694000 0.000000
   vertex 89.998001 24.998001 9.998000
   vertex 89.998001 24.998001 0.000000
  endloop
 endfacet
 facet normal 0.999999 0.000801 0.001202
  outer loop
   vertex 0.000000 89.998001 0.000000
   vertex -0.002000 84.996002 4.998000
   vertex 0.000000 79.998001 6.666000
  endloop
 endfacet
 facet normal 1.000000 -0.000400 0.000000
  outer loop
   vertex -0.002000 84.996002 4.998000
   vertex 0.000000 89.998001 0.000000
   vertex 0.000000 89.998001 3.332000
  endloop
 endfacet
 facet normal 0.999999 0.000801 0.001202
  outer loop
   vertex 0.000000 29.998001 0.000000
   vertex -0.002000 24.996000 4.998000
   vertex 0.000000 19.998001 6.666000
  endloop
 endfacet
 facet normal 1.000000 -0.000600 -0.000200
  outer loop
   vertex -0.002000 24.996000 4.998000
   vertex 0.000000 29.998001 0.000000
   vertex 0.000000 26.664001 9.998000
  endloop
 endfacet
 facet normal -1.000000 0.000000 0.000000
  outer loop
   vertex 99.998001 23.332001 9.998000
   vertex 99.998001 29.998001 9.998000
   vertex 99.998001 19.998001 3.332000
  endloop
 endfacet
 facet normal -1.000000 0.000400 0.000000
  outer loop
   vertex 99.996002 24.996000 4.998000
   vertex 99.998001 29.998001 9.998000
   vertex 99.998001 29.998001 6.666000
  endloop
 endfacet
 facet normal -1.000000 0.000000 0.000000
  outer loop
   vertex 99.998001 83.332001 9.998000
   vertex 99.998001 89.998001 9.998000
   vertex 99.998001 79.998001 3.332000
  endloop
 endfacet
 facet normal -1.000000 0.000400 0.000000
  outer loop
   vertex 99.996002 84.996002 4.998000
   vertex 99.998001 89.998001 9.998000
   vertex 99.998001 89.998001 6.666000
  endloop
 endfacet
 facet normal 1.000000 0.000000 0.000000
  outer loop
   vertex 0.000000 19.998001 0.000000
   vertex 0.000000 23.332001 0.000000
   vertex 0.000000 29.998001 9.998000
  endloop
 endfacet
 facet normal 1.000000 0.000000 0.000000
  outer loop
   vertex 0.000000 23.332001 9.998000
   vertex 0.000000 19.998001 9.998000
   vertex 0.000000 19.998001 0.000000
  endloop
 endfacet
 facet normal 1.000000 0.000000 0.000000
  outer loop
   vertex 0.000000 79.998001 0.000000
   vertex 0.000000 83.332001 0.000000
   vertex 0.000000 89.998001 9.998000
  endloop
 endfacet
 facet normal 1.000000 0.000000 0.000000
  outer loop
   vertex 0.000000 83.332001 9.998000
   vertex 0.000000 79.998001 9.998000
   vertex 0.000000 79.998001 0.000000
  endloop
 endfacet
 facet normal -1.000000 0.000000 0.000000
  outer loop
   vertex 99.998001 29.998001 0.000000
   vertex 99.998001 26.664001 0.000000
   vertex 99.998001 19.998001 9.998000
  endloop
 endfacet
 facet normal -1.000000 0.000000 0.000000
  outer loop
   vertex 99.998001 26.664001 9.998000
   vertex 99.998001 29.998001 9.998000
   vertex 99.998001 29.998001 0.000000
  endloop
 endfacet
 facet normal -1.000000 0.000000 0.000000
  outer loop
   vertex 99.998001 89.998001 0.000000
   vertex 99.998001 86.664001 0.000000
   vertex 99.998001 79.998001 9.998000
  endloop
 endfacet
 facet normal -1.000000 0.000000 0.000000
  outer loop
   vertex 99.998001 86.664001 9.998000
   vertex 99.998001 89.998001 9.998000
   vertex 99.998001 89.998001 0.000000
  endloop
 endfacet
 facet normal 1.000000 0.000000 0.000000
  outer loop
   vertex 99.998001 29.998001 3.332000
   vertex 99.998001 29.998001 9.998000
   vertex 99.998001 23.332001 0.000000
  endloop
 endfacet
 facet normal 1.000000 0.000000 0.000000
  outer loop
   vertex 99.998001 19.998001 9.998000
   vertex 99.998001 19.998001 6.666000
   vertex 99.998001 29.998001 9.998000
  endloop
 endfacet
 facet normal 1.000000 0.000000 0.000000
  outer loop
   vertex 99.998001 89.998001 3.332000
   vertex 99.998001 89.998001 9.998000
   vertex 99.998001 83.332001 0.000000
  endloop
 endfacet
 facet normal 1.000000 0.000000 0.000000
  outer loop
   vertex 99.998001 79.998001 9.998000
   vertex 99.998001 79.998001 6.666000
   vertex 99.998001 89.998001 9.998000
  endloop
 endfacet
 facet normal -1.000000 0.000000 0.000000
  outer loop
   vertex 0.000000 19.998001 3.332000
   vertex 0.000000 19.998001 9.998000
   vertex 0.000000 26.664001 0.000000
  endloop
 endfacet
 facet normal -1.000000 0.000000 0.000000
  outer loop
   vertex 0.000000 29.998001 9.998000
   vertex 0.000000 29.998001 6.666000
   vertex 0.000000 19.998001 9.998000
  endloop
 endfacet
 facet normal -1.000000 0.000000 0.000000
  outer loop
   vertex 0.000000 79.998001 3.332000
   vertex 0.000000 79.998001 9.998000
   vertex 0.000000 86.664001 0.000000
  endloop
 endfacet
 facet normal -1.000000 0.000000 0.000000
  outer loop
   vertex 0.000000 89.998001 6.666000
   vertex 0.000000 89.998001 0.000000
   vertex 0.000000 79.998001 9.998000
  endloop
 endfacet
 facet normal 0.000000 0.000000 -1.000000
  outer loop
   vertex 99.998001 54.998001 0.000000
   vertex 94.998001 44.998001 0.000000
   vertex 89.998001 89.998001 0.000000
  endloop
 endfacet
 facet normal 0.000000 0.000000 -1.000000
  outer loop
   vertex 99.998001 54.998001 0.000000
   vertex 89.998001 89.998001 0.000000
   vertex 99.998001 79.998001 0.000000
  endloop
 endfacet
 facet normal 0.000000 0.000000 1.000000
  outer loop
   vertex 99.998001 57.498001 9.998000
   vertex 99.998001 64.998001 9.998000
   vertex 89.998001 89.998001 9.998000
  endloop
 endfacet
 facet normal 0.000000 0.000000 1.000000
  outer loop
   vertex 99.998001 57.498001 9.998000
   vertex 94.998001 47.498001 9.998000
   vertex 99.998001 29.998001 9.998000
  endloop
 endfacet
 facet normal 0.000000 -1.000000 0.000000
  outer loop
   vertex 49.998001 0.000000 7.498000
   vertex 49.998001 0.000000 0.000000
   vertex 99.998001 0.000000 0.000000
  endloop
 endfacet
 facet normal 0.000000 -1.000000 0.000000
  outer loop
   vertex 0.000000 0.000000 14.998001
   vertex 0.000000 0.000000 0.000000
   vertex 49.998001 0.000000 7.498000
  endloop
 endfacet
 facet normal 0.000000 1.000000 0.000000
  outer loop
   vertex 49.998001 109.998009 4.998000
   vertex 49.998001 109.998009 0.000000
   vertex 0.000000 109.998009 0.000000
  endloop
 endfacet
 facet normal 0.000000 1.000000 0.000000
  outer loop
   vertex 99.998001 109.998009 9.998000
   vertex 99.998001 109.998009 0.000000
   vertex 49.998001 109.998009 4.998000
  endloop
 endfacet
 facet normal 0.000000 0.000000 1.000000
  outer loop
   vertex 0.000000 0.000000 14.998001
   vertex 49.998001 2.498000 14.998001
   vertex 0.000000 4.998000 14.998001
  endloop
 endfacet
 facet normal 0.000000 0.000000 1.000000
  outer loop
   vertex 49.998001 2.498000 14.998001
   vertex 99.998001 4.998000 14.998001
   vertex 49.998001 4.998000 14.998001
  endloop
 endfacet
 facet normal 0.000000 1.000000 0.000000
  outer loop
   vertex 49.998001 4.998000 12.498000
   vertex 49.998001 4.998000 9.998000
   vertex 0.000000 4.998000 9.998000
  endloop
 endfacet
 facet normal 0.000000 1.000000 0.000000
  outer loop
   vertex 99.998001 4.998000 14.998001
   vertex 99.998001 4.998000 9.998000
   vertex 49.998001 4.998000 12.498000
  endloop
 endfacet
 facet normal 0.000000 0.000000 -1.000000
  outer loop
   vertex 49.998001 109.998009 0.000000
   vertex 99.998001 109.998009 0.000000
   vertex 59.346004 104.956001 0.000000
  endloop
 endfacet
 facet normal 0.000000 1.000000 0.000000
  outer loop
   vertex 49.998001 109.998009 4.998000
   vertex 99.998001 109.998009 0.000000
   vertex 49.998001 109.998009 0.000000
  endloop
 endfacet
 facet normal 0.000000 0.000000 -1.000000
  outer loop
   vertex 18.694000 15.084001 0.000000
   vertex 49.998001 0.000000 0.000000
   vertex 0.000000 0.000000 0.000000
  endloop
 endfacet
 facet normal 0.000000 -1.000000 0.000000
  outer loop
   vertex 49.998001 0.000000 7.498000
   vertex 0.000000 0.000000 0.000000
   vertex 49.998001 0.000000 0.000000
  endloop
 endfacet
 facet normal 0.000000 1.000000 0.000000
  outer loop
   vertex 49.998001 109.998009 4.998000
   vertex 49.998001 109.998009 9.998000
   vertex 99.998001 109.998009 9.998000
  endloop
 endfacet
 facet normal 0.000000 0.000000 1.000000
  outer loop
   vertex 49.998001 109.998009 9.998000
   vertex 18.694000 99.914001 9.998000
   vertex 59.346004 104.956001 9.998000
  endloop
 endfacet
 facet normal 0.000000 -1.000000 0.000000
  outer loop
   vertex 49.998001 0.000000 7.498000
   vertex 49.998001 0.000000 14.998001
   vertex 0.000000 0.000000 14.998001
  endloop
 endfacet
 facet normal 0.000000 0.000000 1.000000
  outer loop
   vertex 49.998001 2.498000 14.998001
   vertex 0.000000 0.000000 14.998001
   vertex 49.998001 0.000000 14.998001
  endloop
 endfacet
 facet normal 0.000000 0.000000 1.000000
  outer loop
   vertex 49.998001 4.998000 9.998000
   vertex 99.998001 4.998000 9.998000
   vertex 59.346004 10.042001 9.998000
  endloop
 endfacet
 facet normal 0.000000 1.000000 0.000000
  outer loop
   vertex 49.998001 4.998000 12.498000
   vertex 99.998001 4.998000 9.998000
   vertex 49.998001 4.998000 9.998000
  endloop
 endfacet
 facet normal 0.000000 0.000000 1.000000
  outer loop
   vertex 49.998001 2.498000 14.998001
   vertex 49.998001 4.998000 14.998001
   vertex 0.000000 4.998000 14.998001
  endloop
 endfacet
 facet normal 0.000000 1.000000 0.000000
  outer loop
   vertex 49.998001 4.998000 12.498000
   vertex 0.000000 4.998000 14.998001
   vertex 49.998001 4.998000 14.998001
  endloop
 endfacet
 facet normal 0.000000 0.000000 -1.000000
  outer loop
   vertex 0.000000 19.998001 0.000000
   vertex 5.042000 45.652000 0.000000
   vertex 0.000000 0.000000 0.000000
  endloop
 endfacet
 facet normal 0.000000 0.000000 -1.000000
  outer loop
   vertex 5.042000 45.652000 0.000000
   vertex 9.998000 89.998001 0.000000
   vertex 4.998000 44.998001 0.000000
  endloop
 endfacet
 facet normal 0.000000 0.000000 -1.000000
  outer loop
   vertex 5.042000 45.652000 0.000000
   vertex 4.998000 44.998001 0.000000
   vertex 0.000000 0.000000 0.000000
  endloop
 endfacet
 facet normal 0.000000 0.000000 -1.000000
  outer loop
   vertex 9.998000 24.998001 0.000000
   vertex 0.000000 0.000000 0.000000
   vertex 4.998000 44.998001 0.000000
  endloop
 endfacet
 facet normal 0.000000 0.000000 -1.000000
  outer loop
   vertex 89.998001 24.998001 0.000000
   vertex 94.998001 44.998001 0.000000
   vertex 99.998001 0.000000 0.000000
  endloop
 endfacet
 facet normal 0.000000 0.000000 -1.000000
  outer loop
   vertex 99.998001 54.998001 0.000000
   vertex 99.998001 44.998001 0.000000
   vertex 94.998001 44.998001 0.000000
  endloop
 endfacet
 facet normal 0.000000 0.000000 -1.000000
  outer loop
   vertex 99.998001 44.998001 0.000000
   vertex 99.998001 39.998001 0.000000
   vertex 94.998001 44.998001 0.000000
  endloop
 endfacet
 facet normal 1.000000 0.000000 0.000000
  outer loop
   vertex 99.998001 44.998001 0.000000
   vertex 99.998001 54.998001 0.000000
   vertex 99.998001 29.998001 9.998000
  endloop
 endfacet
 facet normal 0.000000 0.000000 1.000000
  outer loop
   vertex 99.998001 64.998001 9.998000
   vertex 99.998001 69.998001 9.998000
   vertex 89.998001 89.998001 9.998000
  endloop
 endfacet
 facet normal 1.000000 0.000000 0.000000
  outer loop
   vertex 99.998001 64.998001 9.998000
   vertex 99.998001 57.498001 9.998000
   vertex 99.998001 79.998001 0.000000
  endloop
 endfacet
 facet normal 0.000000 0.000000 1.000000
  outer loop
   vertex 0.000000 89.998001 9.998000
   vertex 5.042000 66.846001 9.998000
   vertex 0.000000 109.998009 9.998000
  endloop
 endfacet
 facet normal 0.000000 0.000000 1.000000
  outer loop
   vertex 5.042000 66.846001 9.998000
   vertex 9.998000 24.998001 9.998000
   vertex 4.998000 67.498001 9.998000
  endloop
 endfacet
 facet normal 0.000000 0.000000 1.000000
  outer loop
   vertex 5.042000 66.846001 9.998000
   vertex 4.998000 67.498001 9.998000
   vertex 0.000000 109.998009 9.998000
  endloop
 endfacet
 facet normal 0.000000 0.000000 1.000000
  outer loop
   vertex 9.998000 89.998001 9.998000
   vertex 0.000000 109.998009 9.998000
   vertex 4.998000 67.498001 9.998000
  endloop
 endfacet
 facet normal 0.000000 0.000000 1.000000
  outer loop
   vertex 94.998001 47.498001 9.998000
   vertex 89.998001 89.998001 9.998000
   vertex 89.998001 57.498001 9.998000
  endloop
 endfacet
 facet normal 0.000000 0.000000 1.000000
  outer loop
   vertex 99.998001 57.498001 9.998000
   vertex 89.998001 89.998001 9.998000
   vertex 94.998001 47.498001 9.998000
  endloop
 endfacet
 facet normal 0.000000 0.000000 -1.000000
  outer loop
   vertex 49.998001 0.000000 0.000000
   vertex 59.346004 7.542000 0.000000
   vertex 99.998001 0.000000 0.000000
  endloop
 endfacet
 facet normal 0.000000 0.000000 -1.000000
  outer loop
   vertex 59.346004 7.542000 0.000000
   vertex 19.998001 14.998001 0.000000
   vertex 59.998001 7.498000 0.000000
  endloop
 endfacet
 facet normal 0.000000 0.000000 -1.000000
  outer loop
   vertex 49.998001 109.998009 0.000000
   vertex 59.346004 104.956001 0.000000
   vertex 18.694000 99.914001 0.000000
  endloop
 endfacet
 facet normal 0.000000 0.000000 -1.000000
  outer loop
   vertex 19.998001 99.998001 0.000000
   vertex 18.694000 99.914001 0.000000
   vertex 59.346004 104.956001 0.000000
  endloop
 endfacet
 facet normal 0.000000 0.000000 1.000000
  outer loop
   vertex 49.998001 4.998000 9.998000
   vertex 59.346004 10.042001 9.998000
   vertex 18.694000 15.084001 9.998000
  endloop
 endfacet
 facet normal 0.000000 0.000000 1.000000
  outer loop
   vertex 19.998001 14.998001 9.998000
   vertex 18.694000 15.084001 9.998000
   vertex 59.346004 10.042001 9.998000
  endloop
 endfacet
 facet normal 0.000000 0.000000 1.000000
  outer loop
   vertex 49.998001 109.998009 9.998000
   vertex 59.346004 104.956001 9.998000
   vertex 99.998001 109.998009 9.998000
  endloop
 endfacet
 facet normal 0.000000 0.000000 1.000000
  outer loop
   vertex 59.346004 104.956001 9.998000
   vertex 19.998001 99.998001 9.998000
   vertex 59.998001 104.998009 9.998000
  endloop
 endfacet
 facet normal 0.000000 0.000000 -1.000000
  outer loop
   vertex 59.346004 7.542000 0.000000
   vertex 59.998001 7.498000 0.000000
   vertex 99.998001 0.000000 0.000000
  endloop
 endfacet
 facet normal 0.000000 0.000000 -1.000000
  outer loop
   vertex 79.998001 14.998001 0.000000
   vertex 99.998001 0.000000 0.000000
   vertex 59.998001 7.498000 0.000000
  endloop
 endfacet
 facet normal 0.000000 0.000000 -1.000000
  outer loop
   vertex 59.346004 104.956001 0.000000
   vertex 59.998001 104.998009 0.000000
   vertex 19.998001 99.998001 0.000000
  endloop
 endfacet
 facet normal 0.000000 0.000000 -1.000000
  outer loop
   vertex 79.998001 99.998001 0.000000
   vertex 19.998001 99.998001 0.000000
   vertex 59.998001 104.998009 0.000000
  endloop
 endfacet
 facet normal 0.000000 0.000000 1.000000
  outer loop
   vertex 59.346004 10.042001 9.998000
   vertex 59.998001 9.998000 9.998000
   vertex 19.998001 14.998001 9.998000
  endloop
 endfacet
 facet normal 0.000000 0.000000 1.000000
  outer loop
   vertex 79.998001 14.998001 9.998000
   vertex 19.998001 14.998001 9.998000
   vertex 59.998001 9.998000 9.998000
  endloop
 endfacet
 facet normal 0.000000 0.000000 1.000000
  outer loop
   vertex 59.346004 104.956001 9.998000
   vertex 59.998001 104.998009 9.998000
   vertex 99.998001 109.998009 9.998000
  endloop
 endfacet
 facet normal 0.000000 0.000000 1.000000
  outer loop
   vertex 79.998001 99.998001 9.998000
   vertex 99.998001 109.998009 9.998000
   vertex 59.998001 104.998009 9.998000
  endloop
 endfacet
 facet normal 0.000000 0.000000 -1.000000
  outer loop
   vertex 99.998001 39.998001 0.000000
   vertex 99.998001 29.998001 0.000000
   vertex 94.998001 44.998001 0.000000
  endloop
 endfacet
 facet normal 0.000000 0.000000 -1.000000
  outer loop
   vertex 99.998001 29.998001 0.000000
   vertex 99.998001 23.332001 0.000000
   vertex 94.998001 44.998001 0.000000
  endloop
 endfacet
 facet normal 0.000000 0.000000 1.000000
  outer loop
   vertex 99.998001 69.998001 9.998000
   vertex 99.998001 79.998001 9.998000
   vertex 89.998001 89.998001 9.998000
  endloop
 endfacet
 facet normal 0.000000 0.000000 1.000000
  outer loop
   vertex 99.998001 79.998001 9.998000
   vertex 99.998001 89.998001 9.998000
   vertex 89.998001 89.998001 9.998000
  endloop
 endfacet
 facet normal 0.000000 0.000000 -1.000000
  outer loop
   vertex 0.000000 19.998001 0.000000
   vertex 0.000000 26.664001 0.000000
   vertex 5.042000 55.652004 0.000000
  endloop
 endfacet
 facet normal 0.000000 0.000000 -1.000000
  outer loop
   vertex 5.042000 45.652000 0.000000
   vertex 0.000000 19.998001 0.000000
   vertex 5.042000 55.652004 0.000000
  endloop
 endfacet
 facet normal 0.000000 0.000000 1.000000
  outer loop
   vertex 0.000000 79.998001 9.998000
   vertex 5.042000 56.846004 9.998000
   vertex 0.000000 89.998001 9.998000
  endloop
 endfacet
 facet normal 0.000000 0.000000 1.000000
  outer loop
   vertex 5.042000 66.846001 9.998000
   vertex 0.000000 89.998001 9.998000
   vertex 5.042000 56.846004 9.998000
  endloop
 endfacet
 facet normal -1.000000 0.000000 0.000000
  outer loop
   vertex 89.998001 24.998001 9.998000
   vertex 89.998001 57.498001 4.998000
   vertex 89.998001 24.998001 0.000000
  endloop
 endfacet
 facet normal -1.000000 0.000000 0.000000
  outer loop
   vertex 89.998001 57.498001 4.998000
   vertex 89.998001 57.498001 0.000000
   vertex 89.998001 24.998001 0.000000
  endloop
 endfacet
 facet normal 1.000000 0.000000 0.000000
  outer loop
   vertex 9.998000 24.998001 0.000000
   vertex 9.998000 57.498001 4.998000
   vertex 9.998000 24.998001 9.998000
  endloop
 endfacet
 facet normal 1.000000 0.000000 0.000000
  outer loop
   vertex 9.998000 57.498001 4.998000
   vertex 9.998000 57.498001 9.998000
   vertex 9.998000 24.998001 9.998000
  endloop
 endfacet
 facet normal 0.000000 0.000000 -1.000000
  outer loop
   vertex 4.998000 44.998001 0.000000
   vertex 9.998000 57.498001 0.000000
   vertex 9.998000 24.998001 0.000000
  endloop
 endfacet
 facet normal 1.000000 0.000000 0.000000
  outer loop
   vertex 9.998000 57.498001 4.998000
   vertex 9.998000 24.998001 0.000000
   vertex 9.998000 57.498001 0.000000
  endloop
 endfacet
 facet normal 0.000000 0.000000 -1.000000
  outer loop
   vertex 94.998001 44.998001 0.000000
   vertex 89.998001 57.498001 0.000000
   vertex 89.998001 89.998001 0.000000
  endloop
 endfacet
 facet normal -1.000000 0.000000 0.000000
  outer loop
   vertex 89.998001 57.498001 4.998000
   vertex 89.998001 89.998001 0.000000
   vertex 89.998001 57.498001 0.000000
  endloop
 endfacet
 facet normal 0.000000 0.000000 1.000000
  outer loop
   vertex 4.998000 67.498001 9.998000
   vertex 9.998000 57.498001 9.998000
   vertex 9.998000 89.998001 9.998000
  endloop
 endfacet
 facet normal 1.000000 0.000000 0.000000
  outer loop
   vertex 9.998000 57.498001 4.998000
   vertex 9.998000 89.998001 9.998000
   vertex 9.998000 57.498001 9.998000
  endloop
 endfacet
 facet normal 0.000000 0.000000 1.000000
  outer loop
   vertex 94.998001 47.498001 9.998000
   vertex 89.998001 57.498001 9.998000
   vertex 89.998001 24.998001 9.998000
  endloop
 endfacet
 facet normal -1.000000 0.000000 0.000000
  outer loop
   vertex 89.998001 57.498001 4.998000
   vertex 89.998001 24.998001 9.998000
   vertex 89.998001 57.498001 9.998000
  endloop
 endfacet
 facet normal 0.000000 0.000000 -1.000000
  outer loop
   vertex 0.000000 79.998001 0.000000
   vertex 5.042000 60.652004 0.000000
   vertex 0.000000 29.998001 0.000000
  endloop
 endfacet
 facet normal 0.000000 0.000000 -1.000000
  outer loop
   vertex 5.042000 55.652004 0.000000
   vertex 0.000000 29.998001 0.000000
   vertex 5.042000 60.652004 0.000000
  endloop
 endfacet
 facet normal 0.000000 -1.000000 0.000000
  outer loop
   vertex 79.998001 99.998001 0.000000
   vertex 49.998001 99.998001 4.998000
   vertex 19.998001 99.998001 0.000000
  endloop
 endfacet
 facet normal 0.000000 -1.000000 0.000000
  outer loop
   vertex 19.998001 99.998001 9.998000
   vertex 19.998001 99.998001 0.000000
   vertex 49.998001 99.998001 4.998000
  endloop
 endfacet
 facet normal 0.000000 1.000000 0.000000
  outer loop
   vertex 19.998001 14.998001 0.000000
   vertex 49.998001 14.998001 4.998000
   vertex 79.998001 14.998001 0.000000
  endloop
 endfacet
 facet normal 0.000000 1.000000 0.000000
  outer loop
   vertex 79.998001 14.998001 9.998000
   vertex 79.998001 14.998001 0.000000
   vertex 49.998001 14.998001 4.998000
  endloop
 endfacet
 facet normal 0.000000 0.000000 -1.000000
  outer loop
   vertex 0.000000 89.998001 0.000000
   vertex 0.000000 83.332001 0.000000
   vertex -10.000000 79.998001 0.000000
  endloop
 endfacet
 facet normal 1.000000 0.000000 0.000000
  outer loop
   vertex 0.000000 83.332001 0.000000
   vertex 0.000000 89.998001 0.000000
   vertex 0.000000 89.998001 9.998000
  endloop
 endfacet
 facet normal 0.000000 0.000000 -1.000000
  outer loop
   vertex 0.000000 86.664001 0.000000
   vertex 0.000000 89.998001 0.000000
   vertex 12.066001 96.086006 0.000000
  endloop
 endfacet
 facet normal -1.000000 0.000000 0.000000
  outer loop
   vertex 0.000000 89.998001 0.000000
   vertex 0.000000 86.664001 0.000000
   vertex 0.000000 79.998001 9.998000
  endloop
 endfacet
 facet normal 0.000000 0.000000 -1.000000
  outer loop
   vertex 0.000000 29.998001 0.000000
   vertex 0.000000 23.332001 0.000000
   vertex -10.000000 19.998001 0.000000
  endloop
 endfacet
 facet normal 1.000000 0.000000 0.000000
  outer loop
   vertex 0.000000 23.332001 0.000000
   vertex 0.000000 29.998001 0.000000
   vertex 0.000000 29.998001 9.998000
  endloop
 endfacet
 facet normal -1.000000 0.000000 0.000000
  outer loop
   vertex 0.000000 29.998001 0.000000
   vertex 0.000000 26.664001 0.000000
   vertex 0.000000 19.998001 9.998000
  endloop
 endfacet
 facet normal 0.000000 0.000000 -1.000000
  outer loop
   vertex 0.000000 26.664001 0.000000
   vertex 0.000000 29.998001 0.000000
   vertex 5.042000 55.652004 0.000000
  endloop
 endfacet
 facet normal 0.000000 0.000000 -1.000000
  outer loop
   vertex 99.998001 79.998001 0.000000
   vertex 99.998001 86.664001 0.000000
   vertex 109.998009 89.998001 0.000000
  endloop
 endfacet
 facet normal -1.000000 0.000000 0.000000
  outer loop
   vertex 99.998001 86.664001 0.000000
   vertex 99.998001 79.998001 0.000000
   vertex 99.998001 79.998001 9.998000
  endloop
 endfacet
 facet normal 0.000000 0.000000 -1.000000
  outer loop
   vertex 99.998001 83.332001 0.000000
   vertex 99.998001 79.998001 0.000000
   vertex 89.998001 89.998001 0.000000
  endloop
 endfacet
 facet normal 1.000000 0.000000 0.000000
  outer loop
   vertex 99.998001 79.998001 0.000000
   vertex 99.998001 83.332001 0.000000
   vertex 99.998001 89.998001 9.998000
  endloop
 endfacet
 facet normal 0.000000 0.000000 -1.000000
  outer loop
   vertex 99.998001 19.998001 0.000000
   vertex 99.998001 26.664001 0.000000
   vertex 109.998009 29.998001 0.000000
  endloop
 endfacet
 facet normal -1.000000 0.000000 0.000000
  outer loop
   vertex 99.998001 26.664001 0.000000
   vertex 99.998001 19.998001 0.000000
   vertex 99.998001 19.998001 9.998000
  endloop
 endfacet
 facet normal 0.000000 0.000000 -1.000000
  outer loop
   vertex 99.998001 23.332001 0.000000
   vertex 99.998001 19.998001 0.000000
   vertex 94.998001 44.998001 0.000000
  endloop
 endfacet
 facet normal 1.000000 0.000000 0.000000
  outer loop
   vertex 99.998001 19.998001 0.000000
   vertex 99.998001 23.332001 0.000000
   vertex 99.998001 29.998001 9.998000
  endloop
 endfacet
 facet normal -1.000000 0.000000 0.000000
  outer loop
   vertex 0.000000 84.998001 5.000000
   vertex 0.000000 89.998001 9.998000
   vertex 0.000000 89.998001 3.332000
  endloop
 endfacet
 facet normal 1.000000 0.000000 0.000000
  outer loop
   vertex 0.000000 86.664001 9.998000
   vertex 0.000000 79.998001 9.998000
   vertex 0.000000 89.998001 3.332000
  endloop
 endfacet
 facet normal -1.000000 0.000000 0.000000
  outer loop
   vertex 0.000000 89.998001 6.666000
   vertex 0.000000 89.998001 9.998000
   vertex 0.000000 109.998009 9.998000
  endloop
 endfacet
 facet normal -1.000000 0.000000 0.000000
  outer loop
   vertex 0.000000 89.998001 9.998000
   vertex 0.000000 89.998001 6.666000
   vertex 0.000000 79.998001 9.998000
  endloop
 endfacet
 facet normal 1.000000 0.000000 0.000000
  outer loop
   vertex 99.998001 84.998001 5.000000
   vertex 99.998001 89.998001 0.000000
   vertex 99.998001 89.998001 6.666000
  endloop
 endfacet
 facet normal -1.000000 0.000000 0.000000
  outer loop
   vertex 99.998001 89.998001 6.666000
   vertex 99.998001 89.998001 0.000000
   vertex 99.998001 79.998001 0.000000
  endloop
 endfacet
 facet normal 1.000000 0.000000 0.000000
  outer loop
   vertex 99.998001 89.998001 3.332000
   vertex 99.998001 89.998001 0.000000
   vertex 99.998001 109.998009 0.000000
  endloop
 endfacet
 facet normal 1.000000 0.000000 0.000000
  outer loop
   vertex 99.998001 89.998001 0.000000
   vertex 99.998001 89.998001 3.332000
   vertex 99.998001 83.332001 0.000000
  endloop
 endfacet
 facet normal 1.000000 0.000000 0.000000
  outer loop
   vertex 99.998001 79.998001 9.998000
   vertex 99.998001 79.998001 3.332000
   vertex 99.998001 84.998001 5.000000
  endloop
 endfacet
 facet normal 1.000000 0.000000 0.000000
  outer loop
   vertex 99.998001 79.998001 9.998000
   vertex 99.998001 84.998001 5.000000
   vertex 99.998001 89.998001 6.666000
  endloop
 endfacet
 facet normal 1.000000 0.000000 0.000000
  outer loop
   vertex 99.998001 79.998001 0.000000
   vertex 99.998001 79.998001 6.666000
   vertex 99.998001 69.998001 9.998000
  endloop
 endfacet
 facet normal 1.000000 0.000000 0.000000
  outer loop
   vertex 99.998001 79.998001 6.666000
   vertex 99.998001 79.998001 0.000000
   vertex 99.998001 89.998001 9.998000
  endloop
 endfacet
 facet normal 1.000000 0.000000 0.000000
  outer loop
   vertex 99.998001 79.998001 3.332000
   vertex 99.998001 79.998001 0.000000
   vertex 99.998001 84.998001 5.000000
  endloop
 endfacet
 facet normal -0.999999 -0.000800 0.001200
  outer loop
   vertex 99.998001 89.998001 9.998000
   vertex 99.996002 84.996002 4.998000
   vertex 99.998001 79.998001 3.332000
  endloop
 endfacet
 facet normal 0.000000 0.000000 1.000000
  outer loop
   vertex 99.998001 86.664001 9.998000
   vertex 99.998001 79.998001 9.998000
   vertex 109.998009 79.998001 9.998000
  endloop
 endfacet
 facet normal -1.000000 0.000000 0.000000
  outer loop
   vertex 99.998001 79.998001 9.998000
   vertex 99.998001 86.664001 9.998000
   vertex 99.998001 89.998001 0.000000
  endloop
 endfacet
 facet normal 1.000000 0.000000 0.000000
  outer loop
   vertex 99.998001 83.332001 9.998000
   vertex 99.998001 79.998001 9.998000
   vertex 99.998001 89.998001 6.666000
  endloop
 endfacet
 facet normal -1.000000 0.000000 0.000000
  outer loop
   vertex 99.998001 79.998001 9.998000
   vertex 99.998001 83.332001 9.998000
   vertex 99.998001 79.998001 3.332000
  endloop
 endfacet
 facet normal 1.000000 0.000000 0.000000
  outer loop
   vertex 99.998001 24.998001 5.000000
   vertex 99.998001 29.998001 0.000000
   vertex 99.998001 29.998001 6.666000
  endloop
 endfacet
 facet normal -1.000000 0.000000 0.000000
  outer loop
   vertex 99.998001 29.998001 6.666000
   vertex 99.998001 29.998001 0.000000
   vertex 99.998001 19.998001 0.000000
  endloop
 endfacet
 facet normal 1.000000 0.000000 0.000000
  outer loop
   vertex 99.998001 29.998001 3.332000
   vertex 99.998001 29.998001 0.000000
   vertex 99.998001 39.998001 0.000000
  endloop
 endfacet
 facet normal 1.000000 0.000000 0.000000
  outer loop
   vertex 99.998001 29.998001 0.000000
   vertex 99.998001 29.998001 3.332000
   vertex 99.998001 23.332001 0.000000
  endloop
 endfacet
 facet normal 1.000000 0.000000 0.000000
  outer loop
   vertex 99.998001 19.998001 9.998000
   vertex 99.998001 19.998001 3.332000
   vertex 99.998001 24.998001 5.000000
  endloop
 endfacet
 facet normal 1.000000 0.000000 0.000000
  outer loop
   vertex 99.998001 19.998001 9.998000
   vertex 99.998001 24.998001 5.000000
   vertex 99.998001 29.998001 6.666000
  endloop
 endfacet
 facet normal 1.000000 0.000000 0.000000
  outer loop
   vertex 99.998001 19.998001 0.000000
   vertex 99.998001 19.998001 6.666000
   vertex 99.998001 4.998000 9.998000
  endloop
 endfacet
 facet normal 1.000000 0.000000 0.000000
  outer loop
   vertex 99.998001 19.998001 6.666000
   vertex 99.998001 19.998001 0.000000
   vertex 99.998001 29.998001 9.998000
  endloop
 endfacet
 facet normal 1.000000 0.000000 0.000000
  outer loop
   vertex 99.998001 19.998001 3.332000
   vertex 99.998001 19.998001 0.000000
   vertex 99.998001 24.998001 5.000000
  endloop
 endfacet
 facet normal -0.999999 -0.000800 0.001200
  outer loop
   vertex 99.998001 29.998001 9.998000
   vertex 99.996002 24.996000 4.998000
   vertex 99.998001 19.998001 3.332000
  endloop
 endfacet
 facet normal 0.000000 0.000000 1.000000
  outer loop
   vertex 99.998001 26.664001 9.998000
   vertex 99.998001 19.998001 9.998000
   vertex 109.998009 19.998001 9.998000
  endloop
 endfacet
 facet normal -1.000000 0.000000 0.000000
  outer loop
   vertex 99.998001 19.998001 9.998000
   vertex 99.998001 26.664001 9.998000
   vertex 99.998001 29.998001 0.000000
  endloop
 endfacet
 facet normal 1.000000 0.000000 0.000000
  outer loop
   vertex 99.998001 23.332001 9.998000
   vertex 99.998001 19.998001 9.998000
   vertex 99.998001 29.998001 6.666000
  endloop
 endfacet
 facet normal -1.000000 0.000000 0.000000
  outer loop
   vertex 99.998001 19.998001 9.998000
   vertex 99.998001 23.332001 9.998000
   vertex 99.998001 19.998001 3.332000
  endloop
 endfacet
 facet normal -1.000000 0.000000 0.000000
  outer loop
   vertex 0.000000 29.998001 9.998000
   vertex 0.000000 24.998001 5.000000
   vertex 0.000000 19.998001 6.666000
  endloop
 endfacet
 facet normal 1.000000 0.000000 0.000000
  outer loop
   vertex 0.000000 19.998001 6.666000
   vertex 0.000000 19.998001 0.000000
   vertex 0.000000 29.998001 0.000000
  endloop
 endfacet
 facet normal -1.000000 0.000000 0.000000
  outer loop
   vertex 0.000000 19.998001 3.332000
   vertex 0.000000 19.998001 0.000000
   vertex 0.000000 4.998000 9.998000
  endloop
 endfacet
 facet normal -1.000000 0.000000 0.000000
  outer loop
   vertex 0.000000 19.998001 0.000000
   vertex 0.000000 19.998001 3.332000
   vertex 0.000000 26.664001 0.000000
  endloop
 endfacet
 facet normal -1.000000 0.000000 0.000000
  outer loop
   vertex 0.000000 24.998001 5.000000
   vertex 0.000000 19.998001 0.000000
   vertex 0.000000 19.998001 6.666000
  endloop
 endfacet
 facet normal -1.000000 0.000000 0.000000
  outer loop
   vertex 0.000000 19.998001 0.000000
   vertex 0.000000 24.998001 5.000000
   vertex 0.000000 29.998001 0.000000
  endloop
 endfacet
 facet normal 0.000000 0.000000 1.000000
  outer loop
   vertex 0.000000 23.332001 9.998000
   vertex 0.000000 29.998001 9.998000
   vertex -10.000000 29.998001 9.998000
  endloop
 endfacet
 facet normal 1.000000 0.000000 0.000000
  outer loop
   vertex 0.000000 29.998001 9.998000
   vertex 0.000000 23.332001 9.998000
   vertex 0.000000 19.998001 0.000000
  endloop
 endfacet
 facet normal -1.000000 0.000000 0.000000
  outer loop
   vertex 0.000000 26.664001 9.998000
   vertex 0.000000 29.998001 9.998000
   vertex 0.000000 19.998001 6.666000
  endloop
 endfacet
 facet normal 1.000000 0.000000 0.000000
  outer loop
   vertex 0.000000 29.998001 3.332000
   vertex 0.000000 29.998001 9.998000
   vertex 0.000000 26.664001 9.998000
  endloop
 endfacet
 facet normal -1.000000 0.000000 0.000000
  outer loop
   vertex 0.000000 29.998001 0.000000
   vertex 0.000000 29.998001 6.666000
   vertex 0.000000 79.998001 9.998000
  endloop
 endfacet
 facet normal -1.000000 0.000000 0.000000
  outer loop
   vertex 0.000000 29.998001 6.666000
   vertex 0.000000 29.998001 0.000000
   vertex 0.000000 19.998001 9.998000
  endloop
 endfacet
 facet normal -1.000000 0.000000 0.000000
  outer loop
   vertex 0.000000 29.998001 3.332000
   vertex 0.000000 29.998001 0.000000
   vertex 0.000000 24.998001 5.000000
  endloop
 endfacet
 facet normal 1.000000 0.000000 0.000000
  outer loop
   vertex 0.000000 29.998001 0.000000
   vertex 0.000000 29.998001 3.332000
   vertex 0.000000 26.664001 9.998000
  endloop
 endfacet
 facet normal -1.000000 0.000000 0.000000
  outer loop
   vertex 0.000000 89.998001 9.998000
   vertex 0.000000 84.998001 5.000000
   vertex 0.000000 79.998001 6.666000
  endloop
 endfacet
 facet normal 1.000000 0.000000 0.000000
  outer loop
   vertex 0.000000 79.998001 6.666000
   vertex 0.000000 79.998001 0.000000
   vertex 0.000000 89.998001 0.000000
  endloop
 endfacet
 facet normal -1.000000 0.000000 0.000000
  outer loop
   vertex 0.000000 79.998001 3.332000
   vertex 0.000000 79.998001 0.000000
   vertex 0.000000 29.998001 0.000000
  endloop
 endfacet
 facet normal -1.000000 0.000000 0.000000
  outer loop
   vertex 0.000000 79.998001 0.000000
   vertex 0.000000 79.998001 3.332000
   vertex 0.000000 86.664001 0.000000
  endloop
 endfacet
 facet normal -1.000000 0.000000 0.000000
  outer loop
   vertex 0.000000 84.998001 5.000000
   vertex 0.000000 79.998001 0.000000
   vertex 0.000000 79.998001 6.666000
  endloop
 endfacet
 facet normal -1.000000 0.000000 0.000000
  outer loop
   vertex 0.000000 79.998001 0.000000
   vertex 0.000000 84.998001 5.000000
   vertex 0.000000 89.998001 3.332000
  endloop
 endfacet
 facet normal 0.000000 0.000000 1.000000
  outer loop
   vertex 0.000000 83.332001 9.998000
   vertex 0.000000 89.998001 9.998000
   vertex -10.000000 89.998001 9.998000
  endloop
 endfacet
 facet normal 1.000000 0.000000 0.000000
  outer loop
   vertex 0.000000 89.998001 9.998000
   vertex 0.000000 83.332001 9.998000
   vertex 0.000000 79.998001 0.000000
  endloop
 endfacet
 facet normal -1.000000 0.000000 0.000000
  outer loop
   vertex 0.000000 86.664001 9.998000
   vertex 0.000000 89.998001 9.998000
   vertex 0.000000 79.998001 6.666000
  endloop
 endfacet
 facet normal 1.000000 0.000000 0.000000
  outer loop
   vertex 0.000000 89.998001 9.998000
   vertex 0.000000 86.664001 9.998000
   vertex 0.000000 89.998001 3.332000
  endloop
 endfacet
 facet normal 1.000000 0.000400 0.000000
  outer loop
   vertex -0.002000 84.996002 4.998000
   vertex 0.000000 79.998001 9.998000
   vertex 0.000000 79.998001 6.666000
  endloop
 endfacet
 facet normal 0.999999 -0.000799 -0.001199
  outer loop
   vertex 0.000000 79.998001 9.998000
   vertex -0.002000 84.996002 4.998000
   vertex 0.000000 89.998001 3.332000
  endloop
 endfacet
 facet normal 1.000000 0.000400 0.000000
  outer loop
   vertex -0.002000 24.996000 4.998000
   vertex 0.000000 19.998001 9.998000
   vertex 0.000000 19.998001 6.666000
  endloop
 endfacet
 facet normal 1.000000 0.000000 -0.000400
  outer loop
   vertex 0.000000 19.998001 9.998000
   vertex -0.002000 24.996000 4.998000
   vertex 0.000000 26.664001 9.998000
  endloop
 endfacet
 facet normal -1.000000 -0.000400 0.000000
  outer loop
   vertex 99.996002 24.996000 4.998000
   vertex 99.998001 19.998001 0.000000
   vertex 99.998001 19.998001 3.332000
  endloop
 endfacet
 facet normal -0.999999 0.000800 -0.001200
  outer loop
   vertex 99.998001 19.998001 0.000000
   vertex 99.996002 24.996000 4.998000
   vertex 99.998001 29.998001 6.666000
  endloop
 endfacet
 facet normal -1.000000 -0.000400 0.000000
  outer loop
   vertex 99.996002 84.996002 4.998000
   vertex 99.998001 79.998001 0.000000
   vertex 99.998001 79.998001 3.332000
  endloop
 endfacet
 facet normal -0.999999 0.000800 -0.001200
  outer loop
   vertex 99.998001 79.998001 0.000000
   vertex 99.996002 84.996002 4.998000
   vertex 99.998001 89.998001 6.666000
  endloop
 endfacet
endsolid AppleHolderBase - AppleHolderBase (repaired)
