solid ProbePart
facet normal 0.0 0.0 -1.0
  outer loop
    vertex 3.1119780373966646 15.0 0.0
    vertex 8.257208129040459 8.199083070685916 0.0
    vertex 8.220841743468599 7.077147052086506 0.0
  endloop
endfacet
facet normal 0.0 0.0 -1.0
  outer loop
    vertex 8.257208129040459 8.199083070685916 0.0
    vertex 3.1119780373966646 15.0 0.0
    vertex 8.58271376907313 9.273377733307475 0.0
  endloop
endfacet
facet normal 0.0 0.0 -1.0
  outer loop
    vertex 8.58271376907313 9.273377733307475 0.0
    vertex 3.1119780373966646 15.0 0.0
    vertex 9.175175992121888 10.226819634049404 0.0
  endloop
endfacet
facet normal 0.0 0.0 -1.0
  outer loop
    vertex 9.175175992121888 10.226819634049404 0.0
    vertex 3.1119780373966646 15.0 0.0
    vertex 12.5 15.0 0.0
  endloop
endfacet
facet normal 0.0 0.0 -1.0
  outer loop
    vertex 9.175175992121888 10.226819634049404 0.0
    vertex 12.5 15.0 0.0
    vertex 9.994219476776076 10.994433283013374 0.0
  endloop
endfacet
facet normal 0.0 0.0 -1.0
  outer loop
    vertex 9.994219476776076 10.994433283013374 0.0
    vertex 12.5 15.0 0.0
    vertex 10.984027763089863 11.523907078564026 0.0
  endloop
endfacet
facet normal 0.0 0.0 -1.0
  outer loop
    vertex 10.984027763089863 11.523907078564026 0.0
    vertex 12.5 15.0 0.0
    vertex 12.077147052086504 11.779158256531401 0.0
  endloop
endfacet
facet normal 0.0 0.0 -1.0
  outer loop
    vertex 12.077147052086504 11.779158256531401 0.0
    vertex 12.5 15.0 0.0
    vertex 13.199083070685912 11.742791870959541 0.0
  endloop
endfacet
facet normal 0.0 0.0 -1.0
  outer loop
    vertex 13.199083070685912 11.742791870959541 0.0
    vertex 12.5 15.0 0.0
    vertex 14.441142838268906 14.744443697168013 0.0
  endloop
endfacet
facet normal 0.0 0.0 -1.0
  outer loop
    vertex 13.199083070685912 11.742791870959541 0.0
    vertex 14.441142838268906 14.744443697168013 0.0
    vertex 14.273377733307473 11.41728623092687 0.0
  endloop
endfacet
facet normal 0.0 0.0 -1.0
  outer loop
    vertex 14.273377733307473 11.41728623092687 0.0
    vertex 14.441142838268906 14.744443697168013 0.0
    vertex 15.226819634049404 10.824824007878112 0.0
  endloop
endfacet
facet normal 0.0 0.0 -1.0
  outer loop
    vertex 15.226819634049404 10.824824007878112 0.0
    vertex 14.441142838268906 14.744443697168013 0.0
    vertex 16.25 13.995190528383292 0.0
  endloop
endfacet
facet normal 0.0 0.0 -1.0
  outer loop
    vertex 15.226819634049404 10.824824007878112 0.0
    vertex 16.25 13.995190528383292 0.0
    vertex 15.994433283013374 10.005780523223926 0.0
  endloop
endfacet
facet normal 0.0 0.0 -1.0
  outer loop
    vertex 15.994433283013374 10.005780523223926 0.0
    vertex 16.25 13.995190528383292 0.0
    vertex 16.523907078564026 9.015972236910137 0.0
  endloop
endfacet
facet normal 0.0 0.0 -1.0
  outer loop
    vertex 16.523907078564026 9.015972236910137 0.0
    vertex 16.25 13.995190528383292 0.0
    vertex 17.803300858899107 12.803300858899107 0.0
  endloop
endfacet
facet normal 0.0 0.0 -1.0
  outer loop
    vertex 16.523907078564026 9.015972236910137 0.0
    vertex 17.803300858899107 12.803300858899107 0.0
    vertex 16.7791582565314 7.922852947913497 0.0
  endloop
endfacet
facet normal 0.0 0.0 -1.0
  outer loop
    vertex 0.0 0.0 0.0
    vertex 9.005566716986625 4.994219476776076 0.0
    vertex 12.499999999999996 0.0 0.0
  endloop
endfacet
facet normal 0.0 0.0 -1.0
  outer loop
    vertex 9.005566716986625 4.994219476776076 0.0
    vertex 0.0 0.0 0.0
    vertex 3.1119780373966646 15.0 0.0
  endloop
endfacet
facet normal 0.0 0.0 -1.0
  outer loop
    vertex 9.005566716986625 4.994219476776076 0.0
    vertex 3.1119780373966646 15.0 0.0
    vertex 8.476092921435972 5.984027763089865 0.0
  endloop
endfacet
facet normal 0.0 0.0 -1.0
  outer loop
    vertex 8.476092921435972 5.984027763089865 0.0
    vertex 3.1119780373966646 15.0 0.0
    vertex 8.220841743468599 7.077147052086506 0.0
  endloop
endfacet
facet normal 0.0 0.0 -1.0
  outer loop
    vertex 12.499999999999996 0.0 0.0
    vertex 9.005566716986625 4.994219476776076 0.0
    vertex 9.773180365950594 4.17517599212189 0.0
  endloop
endfacet
facet normal 0.0 0.0 -1.0
  outer loop
    vertex 12.499999999999996 0.0 0.0
    vertex 9.773180365950594 4.17517599212189 0.0
    vertex 10.726622266692525 3.5827137690731305 0.0
  endloop
endfacet
facet normal 0.0 0.0 -1.0
  outer loop
    vertex 12.499999999999996 0.0 0.0
    vertex 10.726622266692525 3.5827137690731305 0.0
    vertex 11.800916929314084 3.2572081290404604 0.0
  endloop
endfacet
facet normal 0.0 0.0 -1.0
  outer loop
    vertex 12.499999999999996 0.0 0.0
    vertex 11.800916929314084 3.2572081290404604 0.0
    vertex 12.922852947913492 3.2208417434685983 0.0
  endloop
endfacet
facet normal 0.0 0.0 -1.0
  outer loop
    vertex 12.499999999999996 0.0 0.0
    vertex 12.922852947913492 3.2208417434685983 0.0
    vertex 14.441142838268904 0.25555630283198816 0.0
  endloop
endfacet
facet normal 0.0 0.0 -1.0
  outer loop
    vertex 14.441142838268904 0.25555630283198816 0.0
    vertex 12.922852947913492 3.2208417434685983 0.0
    vertex 14.015972236910136 3.476092921435974 0.0
  endloop
endfacet
facet normal 0.0 0.0 -1.0
  outer loop
    vertex 14.441142838268904 0.25555630283198816 0.0
    vertex 14.015972236910136 3.476092921435974 0.0
    vertex 15.005780523223924 4.005566716986626 0.0
  endloop
endfacet
facet normal 0.0 0.0 -1.0
  outer loop
    vertex 14.441142838268904 0.25555630283198816 0.0
    vertex 15.005780523223924 4.005566716986626 0.0
    vertex 16.25 1.0048094716167093 0.0
  endloop
endfacet
facet normal 0.0 0.0 -1.0
  outer loop
    vertex 16.25 1.0048094716167093 0.0
    vertex 15.005780523223924 4.005566716986626 0.0
    vertex 15.824824007878112 4.773180365950594 0.0
  endloop
endfacet
facet normal 0.0 0.0 -1.0
  outer loop
    vertex 16.25 1.0048094716167093 0.0
    vertex 15.824824007878112 4.773180365950594 0.0
    vertex 16.41728623092687 5.726622266692525 0.0
  endloop
endfacet
facet normal 0.0 0.0 -1.0
  outer loop
    vertex 16.25 1.0048094716167093 0.0
    vertex 16.41728623092687 5.726622266692525 0.0
    vertex 17.803300858899107 2.1966991411008943 0.0
  endloop
endfacet
facet normal 0.0 0.0 -1.0
  outer loop
    vertex 17.803300858899107 2.1966991411008943 0.0
    vertex 16.41728623092687 5.726622266692525 0.0
    vertex 16.74279187095954 6.800916929314088 0.0
  endloop
endfacet
facet normal 0.0 0.0 -1.0
  outer loop
    vertex 17.803300858899107 2.1966991411008943 0.0
    vertex 16.74279187095954 6.800916929314088 0.0
    vertex 16.7791582565314 7.922852947913497 0.0
  endloop
endfacet
facet normal 0.0 0.0 -1.0
  outer loop
    vertex 17.803300858899107 2.1966991411008943 0.0
    vertex 16.7791582565314 7.922852947913497 0.0
    vertex 17.803300858899107 12.803300858899107 0.0
  endloop
endfacet
facet normal 0.0 0.0 -1.0
  outer loop
    vertex 17.803300858899107 2.1966991411008943 0.0
    vertex 17.803300858899107 12.803300858899107 0.0
    vertex 18.99519052838329 11.250000000000002 0.0
  endloop
endfacet
facet normal 0.0 0.0 -1.0
  outer loop
    vertex 17.803300858899107 2.1966991411008943 0.0
    vertex 18.99519052838329 11.250000000000002 0.0
    vertex 18.99519052838329 3.7500000000000018 0.0
  endloop
endfacet
facet normal 0.0 0.0 -1.0
  outer loop
    vertex 18.99519052838329 3.7500000000000018 0.0
    vertex 18.99519052838329 11.250000000000002 0.0
    vertex 19.744443697168013 9.441142838268908 0.0
  endloop
endfacet
facet normal 0.0 0.0 -1.0
  outer loop
    vertex 18.99519052838329 3.7500000000000018 0.0
    vertex 19.744443697168013 9.441142838268908 0.0
    vertex 19.744443697168013 5.558857161731098 0.0
  endloop
endfacet
facet normal 0.0 0.0 -1.0
  outer loop
    vertex 19.744443697168013 5.558857161731098 0.0
    vertex 19.744443697168013 9.441142838268908 0.0
    vertex 20.0 7.5000000000000036 0.0
  endloop
endfacet
facet normal -0.032396942048007527 -0.9994750813031499 -0.0
  outer loop
    vertex 13.199083070685912 11.742791870959541 31.999999999999996
    vertex 12.077147052086504 11.779158256531401 0.0
    vertex 13.199083070685912 11.742791870959541 0.0
  endloop
endfacet
facet normal -0.032396942048007527 -0.9994750813031499 -0.0
  outer loop
    vertex 12.077147052086504 11.779158256531401 0.0
    vertex 13.199083070685912 11.742791870959541 31.999999999999996
    vertex 12.077147052086504 11.779158256531401 31.999999999999996
  endloop
endfacet
facet normal -0.28997622916360755 -0.9570338481579714 -0.0
  outer loop
    vertex 14.273377733307473 11.41728623092687 31.999999999999996
    vertex 13.199083070685912 11.742791870959541 0.0
    vertex 14.273377733307473 11.41728623092687 0.0
  endloop
endfacet
facet normal -0.28997622916360755 -0.9570338481579714 -0.0
  outer loop
    vertex 13.199083070685912 11.742791870959541 0.0
    vertex 14.273377733307473 11.41728623092687 31.999999999999996
    vertex 13.199083070685912 11.742791870959541 31.999999999999996
  endloop
endfacet
facet normal -0.5277941154700816 -0.8493723398340414 -0.0
  outer loop
    vertex 15.226819634049404 10.824824007878112 31.999999999999996
    vertex 14.273377733307473 11.41728623092687 0.0
    vertex 15.226819634049404 10.824824007878112 0.0
  endloop
endfacet
facet normal -0.5277941154700816 -0.8493723398340414 -0.0
  outer loop
    vertex 14.273377733307473 11.41728623092687 0.0
    vertex 15.226819634049404 10.824824007878112 31.999999999999996
    vertex 14.273377733307473 11.41728623092687 31.999999999999996
  endloop
endfacet
facet normal -0.7296437050282885 -0.6838275102045779 -0.0
  outer loop
    vertex 15.226819634049404 10.824824007878112 31.999999999999996
    vertex 15.994433283013374 10.005780523223926 0.0
    vertex 15.994433283013374 10.005780523223926 31.999999999999996
  endloop
endfacet
facet normal -0.7296437050282885 -0.6838275102045779 -0.0
  outer loop
    vertex 15.994433283013374 10.005780523223926 0.0
    vertex 15.226819634049404 10.824824007878112 31.999999999999996
    vertex 15.226819634049404 10.824824007878112 0.0
  endloop
endfacet
facet normal -0.8817692818820494 -0.471680965833067 -0.0
  outer loop
    vertex 15.994433283013374 10.005780523223926 31.999999999999996
    vertex 16.523907078564026 9.015972236910137 0.0
    vertex 16.523907078564026 9.015972236910137 31.999999999999996
  endloop
endfacet
facet normal -0.8817692818820494 -0.471680965833067 -0.0
  outer loop
    vertex 16.523907078564026 9.015972236910137 0.0
    vertex 15.994433283013374 10.005780523223926 31.999999999999996
    vertex 15.994433283013374 10.005780523223926 0.0
  endloop
endfacet
facet normal -0.9738037393681859 -0.22739014312968503 -0.0
  outer loop
    vertex 16.523907078564026 9.015972236910137 31.999999999999996
    vertex 16.7791582565314 7.922852947913497 0.0
    vertex 16.7791582565314 7.922852947913497 31.999999999999996
  endloop
endfacet
facet normal -0.9738037393681859 -0.22739014312968503 -0.0
  outer loop
    vertex 16.7791582565314 7.922852947913497 0.0
    vertex 16.523907078564026 9.015972236910137 31.999999999999996
    vertex 16.523907078564026 9.015972236910137 0.0
  endloop
endfacet
facet normal -0.9994750813031499 0.032396942048007485 0.0
  outer loop
    vertex 16.7791582565314 7.922852947913497 31.999999999999996
    vertex 16.74279187095954 6.800916929314088 0.0
    vertex 16.74279187095954 6.800916929314088 31.999999999999996
  endloop
endfacet
facet normal -0.9994750813031499 0.032396942048007485 0.0
  outer loop
    vertex 16.74279187095954 6.800916929314088 0.0
    vertex 16.7791582565314 7.922852947913497 31.999999999999996
    vertex 16.7791582565314 7.922852947913497 0.0
  endloop
endfacet
facet normal -0.9570338481579715 0.28997622916360716 0.0
  outer loop
    vertex 16.74279187095954 6.800916929314088 31.999999999999996
    vertex 16.41728623092687 5.726622266692525 0.0
    vertex 16.41728623092687 5.726622266692525 31.999999999999996
  endloop
endfacet
facet normal -0.9570338481579715 0.28997622916360716 0.0
  outer loop
    vertex 16.41728623092687 5.726622266692525 0.0
    vertex 16.74279187095954 6.800916929314088 31.999999999999996
    vertex 16.74279187095954 6.800916929314088 0.0
  endloop
endfacet
facet normal -0.8493723398340411 0.5277941154700818 0.0
  outer loop
    vertex 16.41728623092687 5.726622266692525 31.999999999999996
    vertex 15.824824007878112 4.773180365950594 0.0
    vertex 15.824824007878112 4.773180365950594 31.999999999999996
  endloop
endfacet
facet normal -0.8493723398340411 0.5277941154700818 0.0
  outer loop
    vertex 15.824824007878112 4.773180365950594 0.0
    vertex 16.41728623092687 5.726622266692525 31.999999999999996
    vertex 16.41728623092687 5.726622266692525 0.0
  endloop
endfacet
facet normal -0.6838275102045775 0.7296437050282887 0.0
  outer loop
    vertex 15.005780523223924 4.005566716986626 31.999999999999996
    vertex 15.824824007878112 4.773180365950594 0.0
    vertex 15.005780523223924 4.005566716986626 0.0
  endloop
endfacet
facet normal -0.6838275102045775 0.7296437050282887 0.0
  outer loop
    vertex 15.824824007878112 4.773180365950594 0.0
    vertex 15.005780523223924 4.005566716986626 31.999999999999996
    vertex 15.824824007878112 4.773180365950594 31.999999999999996
  endloop
endfacet
facet normal -0.471680965833067 0.8817692818820494 0.0
  outer loop
    vertex 14.015972236910136 3.476092921435974 31.999999999999996
    vertex 15.005780523223924 4.005566716986626 0.0
    vertex 14.015972236910136 3.476092921435974 0.0
  endloop
endfacet
facet normal -0.471680965833067 0.8817692818820494 0.0
  outer loop
    vertex 15.005780523223924 4.005566716986626 0.0
    vertex 14.015972236910136 3.476092921435974 31.999999999999996
    vertex 15.005780523223924 4.005566716986626 31.999999999999996
  endloop
endfacet
facet normal -0.9791498039244764 0.2031395123422814 0.0
  outer loop
    vertex 3.1119780373966646 15.0 15.0
    vertex 0.0 0.0 0.0
    vertex 0.0 0.0 15.0
  endloop
endfacet
facet normal -0.9791498039244764 0.2031395123422814 0.0
  outer loop
    vertex 0.0 0.0 0.0
    vertex 3.1119780373966646 15.0 15.0
    vertex 3.1119780373966646 15.0 0.0
  endloop
endfacet
facet normal -0.22739014312968414 0.9738037393681861 0.0
  outer loop
    vertex 12.922852947913492 3.2208417434685983 31.999999999999996
    vertex 14.015972236910136 3.476092921435974 0.0
    vertex 12.922852947913492 3.2208417434685983 0.0
  endloop
endfacet
facet normal -0.22739014312968414 0.9738037393681861 0.0
  outer loop
    vertex 14.015972236910136 3.476092921435974 0.0
    vertex 12.922852947913492 3.2208417434685983 31.999999999999996
    vertex 14.015972236910136 3.476092921435974 31.999999999999996
  endloop
endfacet
facet normal 0.03239694204800874 0.9994750813031499 0.0
  outer loop
    vertex 11.800916929314084 3.2572081290404604 31.999999999999996
    vertex 12.922852947913492 3.2208417434685983 0.0
    vertex 11.800916929314084 3.2572081290404604 0.0
  endloop
endfacet
facet normal 0.03239694204800874 0.9994750813031499 0.0
  outer loop
    vertex 12.922852947913492 3.2208417434685983 0.0
    vertex 11.800916929314084 3.2572081290404604 31.999999999999996
    vertex 12.922852947913492 3.2208417434685983 31.999999999999996
  endloop
endfacet
facet normal 0.28997622916360727 0.9570338481579714 0.0
  outer loop
    vertex 10.726622266692525 3.5827137690731305 31.999999999999996
    vertex 11.800916929314084 3.2572081290404604 0.0
    vertex 10.726622266692525 3.5827137690731305 0.0
  endloop
endfacet
facet normal 0.28997622916360727 0.9570338481579714 0.0
  outer loop
    vertex 11.800916929314084 3.2572081290404604 0.0
    vertex 10.726622266692525 3.5827137690731305 31.999999999999996
    vertex 11.800916929314084 3.2572081290404604 31.999999999999996
  endloop
endfacet
facet normal 0.5277941154700831 0.8493723398340406 0.0
  outer loop
    vertex 9.773180365950594 4.17517599212189 31.999999999999996
    vertex 10.726622266692525 3.5827137690731305 0.0
    vertex 9.773180365950594 4.17517599212189 0.0
  endloop
endfacet
facet normal 0.5277941154700831 0.8493723398340406 0.0
  outer loop
    vertex 10.726622266692525 3.5827137690731305 0.0
    vertex 9.773180365950594 4.17517599212189 31.999999999999996
    vertex 10.726622266692525 3.5827137690731305 31.999999999999996
  endloop
endfacet
facet normal 0.7296437050282878 0.6838275102045785 0.0
  outer loop
    vertex 9.005566716986625 4.994219476776076 0.0
    vertex 9.773180365950594 4.17517599212189 31.999999999999996
    vertex 9.773180365950594 4.17517599212189 0.0
  endloop
endfacet
facet normal 0.7296437050282878 0.6838275102045785 0.0
  outer loop
    vertex 9.773180365950594 4.17517599212189 31.999999999999996
    vertex 9.005566716986625 4.994219476776076 0.0
    vertex 9.005566716986625 4.994219476776076 31.999999999999996
  endloop
endfacet
facet normal 0.8817692818820491 0.47168096583306773 0.0
  outer loop
    vertex 8.476092921435972 5.984027763089865 0.0
    vertex 9.005566716986625 4.994219476776076 31.999999999999996
    vertex 9.005566716986625 4.994219476776076 0.0
  endloop
endfacet
facet normal 0.8817692818820491 0.47168096583306773 0.0
  outer loop
    vertex 9.005566716986625 4.994219476776076 31.999999999999996
    vertex 8.476092921435972 5.984027763089865 0.0
    vertex 8.476092921435972 5.984027763089865 31.999999999999996
  endloop
endfacet
facet normal 0.9738037393681862 0.22739014312968275 0.0
  outer loop
    vertex 8.220841743468599 7.077147052086506 0.0
    vertex 8.476092921435972 5.984027763089865 31.999999999999996
    vertex 8.476092921435972 5.984027763089865 0.0
  endloop
endfacet
facet normal 0.9738037393681862 0.22739014312968275 0.0
  outer loop
    vertex 8.476092921435972 5.984027763089865 31.999999999999996
    vertex 8.220841743468599 7.077147052086506 0.0
    vertex 8.220841743468599 7.077147052086506 31.999999999999996
  endloop
endfacet
facet normal 0.9994750813031499 -0.03239694204800744 0.0
  outer loop
    vertex 8.257208129040459 8.199083070685916 0.0
    vertex 8.220841743468599 7.077147052086506 31.999999999999996
    vertex 8.220841743468599 7.077147052086506 0.0
  endloop
endfacet
facet normal 0.9994750813031499 -0.03239694204800744 0.0
  outer loop
    vertex 8.220841743468599 7.077147052086506 31.999999999999996
    vertex 8.257208129040459 8.199083070685916 0.0
    vertex 8.257208129040459 8.199083070685916 31.999999999999996
  endloop
endfacet
facet normal 0.9570338481579714 -0.2899762291636079 0.0
  outer loop
    vertex 8.58271376907313 9.273377733307475 0.0
    vertex 8.257208129040459 8.199083070685916 31.999999999999996
    vertex 8.257208129040459 8.199083070685916 0.0
  endloop
endfacet
facet normal 0.9570338481579714 -0.2899762291636079 0.0
  outer loop
    vertex 8.257208129040459 8.199083070685916 31.999999999999996
    vertex 8.58271376907313 9.273377733307475 0.0
    vertex 8.58271376907313 9.273377733307475 31.999999999999996
  endloop
endfacet
facet normal 0.8493723398340407 -0.5277941154700827 0.0
  outer loop
    vertex 9.175175992121888 10.226819634049404 0.0
    vertex 8.58271376907313 9.273377733307475 31.999999999999996
    vertex 8.58271376907313 9.273377733307475 0.0
  endloop
endfacet
facet normal 0.8493723398340407 -0.5277941154700827 0.0
  outer loop
    vertex 8.58271376907313 9.273377733307475 31.999999999999996
    vertex 9.175175992121888 10.226819634049404 0.0
    vertex 9.175175992121888 10.226819634049404 31.999999999999996
  endloop
endfacet
facet normal 0.6838275102045779 -0.7296437050282883 0.0
  outer loop
    vertex 9.994219476776076 10.994433283013374 31.999999999999996
    vertex 9.175175992121888 10.226819634049404 0.0
    vertex 9.994219476776076 10.994433283013374 0.0
  endloop
endfacet
facet normal 0.6838275102045779 -0.7296437050282883 0.0
  outer loop
    vertex 9.175175992121888 10.226819634049404 0.0
    vertex 9.994219476776076 10.994433283013374 31.999999999999996
    vertex 9.175175992121888 10.226819634049404 31.999999999999996
  endloop
endfacet
facet normal 0.47168096583306846 -0.8817692818820486 0.0
  outer loop
    vertex 10.984027763089863 11.523907078564026 31.999999999999996
    vertex 9.994219476776076 10.994433283013374 0.0
    vertex 10.984027763089863 11.523907078564026 0.0
  endloop
endfacet
facet normal 0.47168096583306846 -0.8817692818820486 0.0
  outer loop
    vertex 9.994219476776076 10.994433283013374 0.0
    vertex 10.984027763089863 11.523907078564026 31.999999999999996
    vertex 9.994219476776076 10.994433283013374 31.999999999999996
  endloop
endfacet
facet normal 0.22739014312968356 -0.9738037393681862 0.0
  outer loop
    vertex 12.077147052086504 11.779158256531401 31.999999999999996
    vertex 10.984027763089863 11.523907078564026 0.0
    vertex 12.077147052086504 11.779158256531401 0.0
  endloop
endfacet
facet normal 0.22739014312968356 -0.9738037393681862 0.0
  outer loop
    vertex 10.984027763089863 11.523907078564026 0.0
    vertex 12.077147052086504 11.779158256531401 31.999999999999996
    vertex 10.984027763089863 11.523907078564026 31.999999999999996
  endloop
endfacet
facet normal 0.0 -1.0 0.0
  outer loop
    vertex 12.499999999999996 0.0 15.0
    vertex 0.0 0.0 0.0
    vertex 12.499999999999996 0.0 0.0
  endloop
endfacet
facet normal 0.0 -1.0 0.0
  outer loop
    vertex 0.0 0.0 0.0
    vertex 12.499999999999996 0.0 15.0
    vertex 0.0 0.0 15.0
  endloop
endfacet
facet normal 0.13052619222005168 -0.9914448613738105 0.0
  outer loop
    vertex 14.441142838268904 0.25555630283198816 31.999999999999996
    vertex 12.499999999999996 0.0 0.0
    vertex 14.441142838268904 0.25555630283198816 0.0
  endloop
endfacet
facet normal 0.13052619222005168 -0.9914448613738105 0.0
  outer loop
    vertex 12.499999999999996 0.0 0.0
    vertex 14.441142838268904 0.25555630283198816 31.999999999999996
    vertex 12.499999999999996 0.0 15.0
  endloop
endfacet
facet normal 0.13052619222005168 -0.9914448613738105 0.0
  outer loop
    vertex 12.499999999999996 0.0 15.0
    vertex 14.441142838268904 0.25555630283198816 31.999999999999996
    vertex 12.499999999999996 0.0 31.999999999999996
  endloop
endfacet
facet normal 0.3826834323650892 -0.9238795325112871 0.0
  outer loop
    vertex 16.25 1.0048094716167093 31.999999999999996
    vertex 14.441142838268904 0.25555630283198816 0.0
    vertex 16.25 1.0048094716167093 0.0
  endloop
endfacet
facet normal 0.3826834323650892 -0.9238795325112871 0.0
  outer loop
    vertex 14.441142838268904 0.25555630283198816 0.0
    vertex 16.25 1.0048094716167093 31.999999999999996
    vertex 14.441142838268904 0.25555630283198816 31.999999999999996
  endloop
endfacet
facet normal 0.6087614290087202 -0.7933533402912355 0.0
  outer loop
    vertex 17.803300858899107 2.1966991411008943 31.999999999999996
    vertex 16.25 1.0048094716167093 0.0
    vertex 17.803300858899107 2.1966991411008943 0.0
  endloop
endfacet
facet normal 0.6087614290087202 -0.7933533402912355 0.0
  outer loop
    vertex 16.25 1.0048094716167093 0.0
    vertex 17.803300858899107 2.1966991411008943 31.999999999999996
    vertex 16.25 1.0048094716167093 31.999999999999996
  endloop
endfacet
facet normal 0.7933533402912355 -0.6087614290087201 -0.0
  outer loop
    vertex 18.99519052838329 3.7500000000000018 0.0
    vertex 17.803300858899107 2.1966991411008943 31.999999999999996
    vertex 17.803300858899107 2.1966991411008943 0.0
  endloop
endfacet
facet normal 0.7933533402912355 -0.6087614290087201 -0.0
  outer loop
    vertex 17.803300858899107 2.1966991411008943 31.999999999999996
    vertex 18.99519052838329 3.7500000000000018 0.0
    vertex 18.99519052838329 3.7500000000000018 31.999999999999996
  endloop
endfacet
facet normal 0.9238795325112871 -0.382683432365089 -0.0
  outer loop
    vertex 19.744443697168013 5.558857161731098 0.0
    vertex 18.99519052838329 3.7500000000000018 31.999999999999996
    vertex 18.99519052838329 3.7500000000000018 0.0
  endloop
endfacet
facet normal 0.9238795325112871 -0.382683432365089 -0.0
  outer loop
    vertex 18.99519052838329 3.7500000000000018 31.999999999999996
    vertex 19.744443697168013 5.558857161731098 0.0
    vertex 19.744443697168013 5.558857161731098 31.999999999999996
  endloop
endfacet
facet normal 0.9914448613738105 -0.1305261922200517 -0.0
  outer loop
    vertex 20.0 7.5000000000000036 0.0
    vertex 19.744443697168013 5.558857161731098 31.999999999999996
    vertex 19.744443697168013 5.558857161731098 0.0
  endloop
endfacet
facet normal 0.9914448613738105 -0.1305261922200517 -0.0
  outer loop
    vertex 19.744443697168013 5.558857161731098 31.999999999999996
    vertex 20.0 7.5000000000000036 0.0
    vertex 20.0 7.5000000000000036 31.999999999999996
  endloop
endfacet
facet normal 0.9914448613738105 0.13052619222005188 -0.0
  outer loop
    vertex 19.744443697168013 9.441142838268908 0.0
    vertex 20.0 7.5000000000000036 31.999999999999996
    vertex 20.0 7.5000000000000036 0.0
  endloop
endfacet
facet normal 0.9914448613738105 0.13052619222005188 -0.0
  outer loop
    vertex 20.0 7.5000000000000036 31.999999999999996
    vertex 19.744443697168013 9.441142838268908 0.0
    vertex 19.744443697168013 9.441142838268908 31.999999999999996
  endloop
endfacet
facet normal 0.9238795325112871 0.3826834323650892 -0.0
  outer loop
    vertex 18.99519052838329 11.250000000000002 0.0
    vertex 19.744443697168013 9.441142838268908 31.999999999999996
    vertex 19.744443697168013 9.441142838268908 0.0
  endloop
endfacet
facet normal 0.9238795325112871 0.3826834323650892 -0.0
  outer loop
    vertex 19.744443697168013 9.441142838268908 31.999999999999996
    vertex 18.99519052838329 11.250000000000002 0.0
    vertex 18.99519052838329 11.250000000000002 31.999999999999996
  endloop
endfacet
facet normal 0.7933533402912342 0.6087614290087219 -0.0
  outer loop
    vertex 17.803300858899107 12.803300858899107 0.0
    vertex 18.99519052838329 11.250000000000002 31.999999999999996
    vertex 18.99519052838329 11.250000000000002 0.0
  endloop
endfacet
facet normal 0.7933533402912342 0.6087614290087219 -0.0
  outer loop
    vertex 18.99519052838329 11.250000000000002 31.999999999999996
    vertex 17.803300858899107 12.803300858899107 0.0
    vertex 17.803300858899107 12.803300858899107 31.999999999999996
  endloop
endfacet
facet normal 0.6087614290087212 0.7933533402912347 -0.0
  outer loop
    vertex 16.25 13.995190528383292 31.999999999999996
    vertex 17.803300858899107 12.803300858899107 0.0
    vertex 16.25 13.995190528383292 0.0
  endloop
endfacet
facet normal 0.6087614290087212 0.7933533402912347 -0.0
  outer loop
    vertex 17.803300858899107 12.803300858899107 0.0
    vertex 16.25 13.995190528383292 31.999999999999996
    vertex 17.803300858899107 12.803300858899107 31.999999999999996
  endloop
endfacet
facet normal 0.3826834323650897 0.9238795325112868 -0.0
  outer loop
    vertex 14.441142838268906 14.744443697168013 31.999999999999996
    vertex 16.25 13.995190528383292 0.0
    vertex 14.441142838268906 14.744443697168013 0.0
  endloop
endfacet
facet normal 0.3826834323650897 0.9238795325112868 -0.0
  outer loop
    vertex 16.25 13.995190528383292 0.0
    vertex 14.441142838268906 14.744443697168013 31.999999999999996
    vertex 16.25 13.995190528383292 31.999999999999996
  endloop
endfacet
facet normal 0.13052619222005168 0.9914448613738105 -0.0
  outer loop
    vertex 12.5 15.0 15.0
    vertex 14.441142838268906 14.744443697168013 0.0
    vertex 12.5 15.0 0.0
  endloop
endfacet
facet normal 0.13052619222005168 0.9914448613738105 -0.0
  outer loop
    vertex 14.441142838268906 14.744443697168013 0.0
    vertex 12.5 15.0 15.0
    vertex 14.441142838268906 14.744443697168013 31.999999999999996
  endloop
endfacet
facet normal 0.13052619222005168 0.9914448613738105 -0.0
  outer loop
    vertex 14.441142838268906 14.744443697168013 31.999999999999996
    vertex 12.5 15.0 15.0
    vertex 12.5 15.0 31.999999999999996
  endloop
endfacet
facet normal -0.0 1.0 -0.0
  outer loop
    vertex 3.1119780373966646 15.0 15.0
    vertex 12.5 15.0 0.0
    vertex 3.1119780373966646 15.0 0.0
  endloop
endfacet
facet normal -0.0 1.0 -0.0
  outer loop
    vertex 12.5 15.0 0.0
    vertex 3.1119780373966646 15.0 15.0
    vertex 12.5 15.0 15.0
  endloop
endfacet
facet normal -0.13052619222005143 -0.9914448613738105 -0.0
  outer loop
    vertex 12.499999999999996 0.0 31.999999999999996
    vertex 10.558857161731098 0.2555563028319867 15.0
    vertex 12.499999999999996 0.0 15.0
  endloop
endfacet
facet normal -0.13052619222005143 -0.9914448613738105 -0.0
  outer loop
    vertex 10.558857161731098 0.2555563028319867 15.0
    vertex 12.499999999999996 0.0 31.999999999999996
    vertex 10.558857161731098 0.2555563028319867 31.999999999999996
  endloop
endfacet
facet normal -0.38268343236508956 -0.9238795325112868 -0.0
  outer loop
    vertex 10.558857161731098 0.2555563028319867 31.999999999999996
    vertex 8.75 1.0048094716167093 15.0
    vertex 10.558857161731098 0.2555563028319867 15.0
  endloop
endfacet
facet normal -0.38268343236508956 -0.9238795325112868 -0.0
  outer loop
    vertex 8.75 1.0048094716167093 15.0
    vertex 10.558857161731098 0.2555563028319867 31.999999999999996
    vertex 8.75 1.0048094716167093 31.999999999999996
  endloop
endfacet
facet normal -0.6087614290087205 -0.7933533402912353 -0.0
  outer loop
    vertex 8.75 1.0048094716167093 31.999999999999996
    vertex 7.196699141100897 2.1966991411008907 15.0
    vertex 8.75 1.0048094716167093 15.0
  endloop
endfacet
facet normal -0.6087614290087205 -0.7933533402912353 -0.0
  outer loop
    vertex 7.196699141100897 2.1966991411008907 15.0
    vertex 8.75 1.0048094716167093 31.999999999999996
    vertex 7.196699141100897 2.1966991411008907 31.999999999999996
  endloop
endfacet
facet normal -0.7933533402912346 -0.6087614290087213 -0.0
  outer loop
    vertex 6.004809471616712 3.7499999999999964 31.999999999999996
    vertex 7.196699141100897 2.1966991411008907 15.0
    vertex 7.196699141100897 2.1966991411008907 31.999999999999996
  endloop
endfacet
facet normal -0.7933533402912346 -0.6087614290087213 -0.0
  outer loop
    vertex 7.196699141100897 2.1966991411008907 15.0
    vertex 6.004809471616712 3.7499999999999964 31.999999999999996
    vertex 6.004809471616712 3.7499999999999964 15.0
  endloop
endfacet
facet normal -0.9238795325112867 -0.3826834323650903 -0.0
  outer loop
    vertex 5.255556302831989 5.55885716173109 31.999999999999996
    vertex 6.004809471616712 3.7499999999999964 15.0
    vertex 6.004809471616712 3.7499999999999964 31.999999999999996
  endloop
endfacet
facet normal -0.9238795325112867 -0.3826834323650903 -0.0
  outer loop
    vertex 6.004809471616712 3.7499999999999964 15.0
    vertex 5.255556302831989 5.55885716173109 31.999999999999996
    vertex 5.255556302831989 5.55885716173109 15.0
  endloop
endfacet
facet normal -0.9914448613738103 -0.13052619222005218 -0.0
  outer loop
    vertex 4.999999999999999 7.499999999999999 31.999999999999996
    vertex 5.255556302831989 5.55885716173109 15.0
    vertex 5.255556302831989 5.55885716173109 31.999999999999996
  endloop
endfacet
facet normal -0.9914448613738103 -0.13052619222005218 -0.0
  outer loop
    vertex 5.255556302831989 5.55885716173109 15.0
    vertex 4.999999999999999 7.499999999999999 31.999999999999996
    vertex 4.999999999999999 7.499999999999999 15.0
  endloop
endfacet
facet normal -0.9914448613738106 0.13052619222005116 0.0
  outer loop
    vertex 5.255556302831986 9.441142838268902 31.999999999999996
    vertex 4.999999999999999 7.499999999999999 15.0
    vertex 4.999999999999999 7.499999999999999 31.999999999999996
  endloop
endfacet
facet normal -0.9914448613738106 0.13052619222005116 0.0
  outer loop
    vertex 4.999999999999999 7.499999999999999 15.0
    vertex 5.255556302831986 9.441142838268902 31.999999999999996
    vertex 5.255556302831986 9.441142838268902 15.0
  endloop
endfacet
facet normal -0.9238795325112871 0.3826834323650891 0.0
  outer loop
    vertex 6.0048094716167055 11.249999999999995 31.999999999999996
    vertex 5.255556302831986 9.441142838268902 15.0
    vertex 5.255556302831986 9.441142838268902 31.999999999999996
  endloop
endfacet
facet normal -0.9238795325112871 0.3826834323650891 0.0
  outer loop
    vertex 5.255556302831986 9.441142838268902 15.0
    vertex 6.0048094716167055 11.249999999999995 31.999999999999996
    vertex 6.0048094716167055 11.249999999999995 15.0
  endloop
endfacet
facet normal -0.7933533402912356 0.6087614290087202 0.0
  outer loop
    vertex 7.196699141100892 12.803300858899107 31.999999999999996
    vertex 6.0048094716167055 11.249999999999995 15.0
    vertex 6.0048094716167055 11.249999999999995 31.999999999999996
  endloop
endfacet
facet normal -0.7933533402912356 0.6087614290087202 0.0
  outer loop
    vertex 6.0048094716167055 11.249999999999995 15.0
    vertex 7.196699141100892 12.803300858899107 31.999999999999996
    vertex 7.196699141100892 12.803300858899107 15.0
  endloop
endfacet
facet normal -0.608761429008721 0.7933533402912349 0.0
  outer loop
    vertex 7.196699141100892 12.803300858899107 31.999999999999996
    vertex 8.749999999999995 13.995190528383288 15.0
    vertex 7.196699141100892 12.803300858899107 15.0
  endloop
endfacet
facet normal -0.608761429008721 0.7933533402912349 0.0
  outer loop
    vertex 8.749999999999995 13.995190528383288 15.0
    vertex 7.196699141100892 12.803300858899107 31.999999999999996
    vertex 8.749999999999995 13.995190528383288 31.999999999999996
  endloop
endfacet
facet normal -0.3826834323650898 0.923879532511287 0.0
  outer loop
    vertex 8.749999999999995 13.995190528383288 31.999999999999996
    vertex 10.558857161731087 14.744443697168009 15.0
    vertex 8.749999999999995 13.995190528383288 15.0
  endloop
endfacet
facet normal -0.3826834323650898 0.923879532511287 0.0
  outer loop
    vertex 10.558857161731087 14.744443697168009 15.0
    vertex 8.749999999999995 13.995190528383288 31.999999999999996
    vertex 10.558857161731087 14.744443697168009 31.999999999999996
  endloop
endfacet
facet normal -0.1305261922200527 0.9914448613738103 0.0
  outer loop
    vertex 10.558857161731087 14.744443697168009 31.999999999999996
    vertex 12.5 15.0 15.0
    vertex 10.558857161731087 14.744443697168009 15.0
  endloop
endfacet
facet normal -0.1305261922200527 0.9914448613738103 0.0
  outer loop
    vertex 12.5 15.0 15.0
    vertex 10.558857161731087 14.744443697168009 31.999999999999996
    vertex 12.5 15.0 31.999999999999996
  endloop
endfacet
facet normal 0.0 0.0 1.0
  outer loop
    vertex 8.75 1.0048094716167093 31.999999999999996
    vertex 8.220841743468599 7.077147052086506 31.999999999999996
    vertex 7.196699141100897 2.1966991411008907 31.999999999999996
  endloop
endfacet
facet normal 0.0 0.0 1.0
  outer loop
    vertex 8.220841743468599 7.077147052086506 31.999999999999996
    vertex 8.75 1.0048094716167093 31.999999999999996
    vertex 8.476092921435972 5.984027763089865 31.999999999999996
  endloop
endfacet
facet normal 0.0 0.0 1.0
  outer loop
    vertex 8.476092921435972 5.984027763089865 31.999999999999996
    vertex 8.75 1.0048094716167093 31.999999999999996
    vertex 9.005566716986625 4.994219476776076 31.999999999999996
  endloop
endfacet
facet normal 0.0 0.0 1.0
  outer loop
    vertex 9.005566716986625 4.994219476776076 31.999999999999996
    vertex 8.75 1.0048094716167093 31.999999999999996
    vertex 10.558857161731098 0.2555563028319867 31.999999999999996
  endloop
endfacet
facet normal 0.0 0.0 1.0
  outer loop
    vertex 9.005566716986625 4.994219476776076 31.999999999999996
    vertex 10.558857161731098 0.2555563028319867 31.999999999999996
    vertex 9.773180365950594 4.17517599212189 31.999999999999996
  endloop
endfacet
facet normal 0.0 0.0 1.0
  outer loop
    vertex 9.773180365950594 4.17517599212189 31.999999999999996
    vertex 10.558857161731098 0.2555563028319867 31.999999999999996
    vertex 10.726622266692525 3.5827137690731305 31.999999999999996
  endloop
endfacet
facet normal 0.0 0.0 1.0
  outer loop
    vertex 10.726622266692525 3.5827137690731305 31.999999999999996
    vertex 10.558857161731098 0.2555563028319867 31.999999999999996
    vertex 12.499999999999996 0.0 31.999999999999996
  endloop
endfacet
facet normal 0.0 0.0 1.0
  outer loop
    vertex 10.726622266692525 3.5827137690731305 31.999999999999996
    vertex 12.499999999999996 0.0 31.999999999999996
    vertex 11.800916929314084 3.2572081290404604 31.999999999999996
  endloop
endfacet
facet normal 0.0 0.0 1.0
  outer loop
    vertex 11.800916929314084 3.2572081290404604 31.999999999999996
    vertex 12.499999999999996 0.0 31.999999999999996
    vertex 12.922852947913492 3.2208417434685983 31.999999999999996
  endloop
endfacet
facet normal 0.0 0.0 1.0
  outer loop
    vertex 12.922852947913492 3.2208417434685983 31.999999999999996
    vertex 12.499999999999996 0.0 31.999999999999996
    vertex 14.441142838268904 0.25555630283198816 31.999999999999996
  endloop
endfacet
facet normal 0.0 0.0 1.0
  outer loop
    vertex 12.922852947913492 3.2208417434685983 31.999999999999996
    vertex 14.441142838268904 0.25555630283198816 31.999999999999996
    vertex 14.015972236910136 3.476092921435974 31.999999999999996
  endloop
endfacet
facet normal 0.0 0.0 1.0
  outer loop
    vertex 14.015972236910136 3.476092921435974 31.999999999999996
    vertex 14.441142838268904 0.25555630283198816 31.999999999999996
    vertex 15.005780523223924 4.005566716986626 31.999999999999996
  endloop
endfacet
facet normal 0.0 0.0 1.0
  outer loop
    vertex 15.005780523223924 4.005566716986626 31.999999999999996
    vertex 14.441142838268904 0.25555630283198816 31.999999999999996
    vertex 16.25 1.0048094716167093 31.999999999999996
  endloop
endfacet
facet normal 0.0 0.0 1.0
  outer loop
    vertex 15.005780523223924 4.005566716986626 31.999999999999996
    vertex 16.25 1.0048094716167093 31.999999999999996
    vertex 15.824824007878112 4.773180365950594 31.999999999999996
  endloop
endfacet
facet normal 0.0 0.0 1.0
  outer loop
    vertex 15.824824007878112 4.773180365950594 31.999999999999996
    vertex 16.25 1.0048094716167093 31.999999999999996
    vertex 16.41728623092687 5.726622266692525 31.999999999999996
  endloop
endfacet
facet normal 0.0 0.0 1.0
  outer loop
    vertex 16.41728623092687 5.726622266692525 31.999999999999996
    vertex 16.25 1.0048094716167093 31.999999999999996
    vertex 17.803300858899107 2.1966991411008943 31.999999999999996
  endloop
endfacet
facet normal 0.0 0.0 1.0
  outer loop
    vertex 16.41728623092687 5.726622266692525 31.999999999999996
    vertex 17.803300858899107 2.1966991411008943 31.999999999999996
    vertex 16.74279187095954 6.800916929314088 31.999999999999996
  endloop
endfacet
facet normal 0.0 0.0 1.0
  outer loop
    vertex 16.74279187095954 6.800916929314088 31.999999999999996
    vertex 17.803300858899107 2.1966991411008943 31.999999999999996
    vertex 16.7791582565314 7.922852947913497 31.999999999999996
  endloop
endfacet
facet normal 0.0 0.0 1.0
  outer loop
    vertex 16.7791582565314 7.922852947913497 31.999999999999996
    vertex 17.803300858899107 2.1966991411008943 31.999999999999996
    vertex 17.803300858899107 12.803300858899107 31.999999999999996
  endloop
endfacet
facet normal 0.0 0.0 1.0
  outer loop
    vertex 17.803300858899107 12.803300858899107 31.999999999999996
    vertex 17.803300858899107 2.1966991411008943 31.999999999999996
    vertex 18.99519052838329 11.250000000000002 31.999999999999996
  endloop
endfacet
facet normal 0.0 0.0 1.0
  outer loop
    vertex 18.99519052838329 11.250000000000002 31.999999999999996
    vertex 17.803300858899107 2.1966991411008943 31.999999999999996
    vertex 18.99519052838329 3.7500000000000018 31.999999999999996
  endloop
endfacet
facet normal 0.0 0.0 1.0
  outer loop
    vertex 18.99519052838329 11.250000000000002 31.999999999999996
    vertex 18.99519052838329 3.7500000000000018 31.999999999999996
    vertex 19.744443697168013 5.558857161731098 31.999999999999996
  endloop
endfacet
facet normal 0.0 0.0 1.0
  outer loop
    vertex 18.99519052838329 11.250000000000002 31.999999999999996
    vertex 19.744443697168013 5.558857161731098 31.999999999999996
    vertex 19.744443697168013 9.441142838268908 31.999999999999996
  endloop
endfacet
facet normal 0.0 0.0 1.0
  outer loop
    vertex 19.744443697168013 9.441142838268908 31.999999999999996
    vertex 19.744443697168013 5.558857161731098 31.999999999999996
    vertex 20.0 7.5000000000000036 31.999999999999996
  endloop
endfacet
facet normal 0.0 0.0 1.0
  outer loop
    vertex 5.255556302831989 5.55885716173109 31.999999999999996
    vertex 5.255556302831986 9.441142838268902 31.999999999999996
    vertex 4.999999999999999 7.499999999999999 31.999999999999996
  endloop
endfacet
facet normal 0.0 0.0 1.0
  outer loop
    vertex 5.255556302831986 9.441142838268902 31.999999999999996
    vertex 5.255556302831989 5.55885716173109 31.999999999999996
    vertex 6.0048094716167055 11.249999999999995 31.999999999999996
  endloop
endfacet
facet normal 0.0 0.0 1.0
  outer loop
    vertex 6.0048094716167055 11.249999999999995 31.999999999999996
    vertex 5.255556302831989 5.55885716173109 31.999999999999996
    vertex 6.004809471616712 3.7499999999999964 31.999999999999996
  endloop
endfacet
facet normal 0.0 0.0 1.0
  outer loop
    vertex 6.0048094716167055 11.249999999999995 31.999999999999996
    vertex 6.004809471616712 3.7499999999999964 31.999999999999996
    vertex 7.196699141100892 12.803300858899107 31.999999999999996
  endloop
endfacet
facet normal 0.0 0.0 1.0
  outer loop
    vertex 7.196699141100892 12.803300858899107 31.999999999999996
    vertex 6.004809471616712 3.7499999999999964 31.999999999999996
    vertex 7.196699141100897 2.1966991411008907 31.999999999999996
  endloop
endfacet
facet normal 0.0 0.0 1.0
  outer loop
    vertex 7.196699141100892 12.803300858899107 31.999999999999996
    vertex 7.196699141100897 2.1966991411008907 31.999999999999996
    vertex 8.749999999999995 13.995190528383288 31.999999999999996
  endloop
endfacet
facet normal 0.0 0.0 1.0
  outer loop
    vertex 8.749999999999995 13.995190528383288 31.999999999999996
    vertex 7.196699141100897 2.1966991411008907 31.999999999999996
    vertex 8.257208129040459 8.199083070685916 31.999999999999996
  endloop
endfacet
facet normal 0.0 0.0 1.0
  outer loop
    vertex 8.257208129040459 8.199083070685916 31.999999999999996
    vertex 7.196699141100897 2.1966991411008907 31.999999999999996
    vertex 8.220841743468599 7.077147052086506 31.999999999999996
  endloop
endfacet
facet normal 0.0 0.0 1.0
  outer loop
    vertex 8.749999999999995 13.995190528383288 31.999999999999996
    vertex 8.257208129040459 8.199083070685916 31.999999999999996
    vertex 8.58271376907313 9.273377733307475 31.999999999999996
  endloop
endfacet
facet normal 0.0 0.0 1.0
  outer loop
    vertex 8.749999999999995 13.995190528383288 31.999999999999996
    vertex 8.58271376907313 9.273377733307475 31.999999999999996
    vertex 9.175175992121888 10.226819634049404 31.999999999999996
  endloop
endfacet
facet normal 0.0 0.0 1.0
  outer loop
    vertex 8.749999999999995 13.995190528383288 31.999999999999996
    vertex 9.175175992121888 10.226819634049404 31.999999999999996
    vertex 10.558857161731087 14.744443697168009 31.999999999999996
  endloop
endfacet
facet normal 0.0 0.0 1.0
  outer loop
    vertex 10.558857161731087 14.744443697168009 31.999999999999996
    vertex 9.175175992121888 10.226819634049404 31.999999999999996
    vertex 9.994219476776076 10.994433283013374 31.999999999999996
  endloop
endfacet
facet normal 0.0 0.0 1.0
  outer loop
    vertex 10.558857161731087 14.744443697168009 31.999999999999996
    vertex 9.994219476776076 10.994433283013374 31.999999999999996
    vertex 10.984027763089863 11.523907078564026 31.999999999999996
  endloop
endfacet
facet normal 0.0 0.0 1.0
  outer loop
    vertex 10.558857161731087 14.744443697168009 31.999999999999996
    vertex 10.984027763089863 11.523907078564026 31.999999999999996
    vertex 12.5 15.0 31.999999999999996
  endloop
endfacet
facet normal 0.0 0.0 1.0
  outer loop
    vertex 12.5 15.0 31.999999999999996
    vertex 10.984027763089863 11.523907078564026 31.999999999999996
    vertex 12.077147052086504 11.779158256531401 31.999999999999996
  endloop
endfacet
facet normal 0.0 0.0 1.0
  outer loop
    vertex 12.5 15.0 31.999999999999996
    vertex 12.077147052086504 11.779158256531401 31.999999999999996
    vertex 13.199083070685912 11.742791870959541 31.999999999999996
  endloop
endfacet
facet normal 0.0 0.0 1.0
  outer loop
    vertex 12.5 15.0 31.999999999999996
    vertex 13.199083070685912 11.742791870959541 31.999999999999996
    vertex 14.441142838268906 14.744443697168013 31.999999999999996
  endloop
endfacet
facet normal 0.0 0.0 1.0
  outer loop
    vertex 14.441142838268906 14.744443697168013 31.999999999999996
    vertex 13.199083070685912 11.742791870959541 31.999999999999996
    vertex 14.273377733307473 11.41728623092687 31.999999999999996
  endloop
endfacet
facet normal 0.0 0.0 1.0
  outer loop
    vertex 14.441142838268906 14.744443697168013 31.999999999999996
    vertex 14.273377733307473 11.41728623092687 31.999999999999996
    vertex 15.226819634049404 10.824824007878112 31.999999999999996
  endloop
endfacet
facet normal 0.0 0.0 1.0
  outer loop
    vertex 14.441142838268906 14.744443697168013 31.999999999999996
    vertex 15.226819634049404 10.824824007878112 31.999999999999996
    vertex 16.25 13.995190528383292 31.999999999999996
  endloop
endfacet
facet normal 0.0 0.0 1.0
  outer loop
    vertex 16.25 13.995190528383292 31.999999999999996
    vertex 15.226819634049404 10.824824007878112 31.999999999999996
    vertex 15.994433283013374 10.005780523223926 31.999999999999996
  endloop
endfacet
facet normal 0.0 0.0 1.0
  outer loop
    vertex 16.25 13.995190528383292 31.999999999999996
    vertex 15.994433283013374 10.005780523223926 31.999999999999996
    vertex 16.523907078564026 9.015972236910137 31.999999999999996
  endloop
endfacet
facet normal 0.0 0.0 1.0
  outer loop
    vertex 16.25 13.995190528383292 31.999999999999996
    vertex 16.523907078564026 9.015972236910137 31.999999999999996
    vertex 17.803300858899107 12.803300858899107 31.999999999999996
  endloop
endfacet
facet normal 0.0 0.0 1.0
  outer loop
    vertex 17.803300858899107 12.803300858899107 31.999999999999996
    vertex 16.523907078564026 9.015972236910137 31.999999999999996
    vertex 16.7791582565314 7.922852947913497 31.999999999999996
  endloop
endfacet
facet normal -0.0 -0.0 1.0
  outer loop
    vertex 0.0 0.0 15.0
    vertex 5.255556302831989 5.55885716173109 15.0
    vertex 3.1119780373966646 15.0 15.0
  endloop
endfacet
facet normal -0.0 -0.0 1.0
  outer loop
    vertex 5.255556302831989 5.55885716173109 15.0
    vertex 0.0 0.0 15.0
    vertex 6.004809471616712 3.7499999999999964 15.0
  endloop
endfacet
facet normal -0.0 -0.0 1.0
  outer loop
    vertex 6.004809471616712 3.7499999999999964 15.0
    vertex 0.0 0.0 15.0
    vertex 7.196699141100897 2.1966991411008907 15.0
  endloop
endfacet
facet normal -0.0 -0.0 1.0
  outer loop
    vertex 7.196699141100897 2.1966991411008907 15.0
    vertex 0.0 0.0 15.0
    vertex 8.75 1.0048094716167093 15.0
  endloop
endfacet
facet normal -0.0 -0.0 1.0
  outer loop
    vertex 8.75 1.0048094716167093 15.0
    vertex 0.0 0.0 15.0
    vertex 10.558857161731098 0.2555563028319867 15.0
  endloop
endfacet
facet normal -0.0 -0.0 1.0
  outer loop
    vertex 10.558857161731098 0.2555563028319867 15.0
    vertex 0.0 0.0 15.0
    vertex 12.499999999999996 0.0 15.0
  endloop
endfacet
facet normal -0.0 -0.0 1.0
  outer loop
    vertex 3.1119780373966646 15.0 15.0
    vertex 5.255556302831989 5.55885716173109 15.0
    vertex 4.999999999999999 7.499999999999999 15.0
  endloop
endfacet
facet normal -0.0 -0.0 1.0
  outer loop
    vertex 3.1119780373966646 15.0 15.0
    vertex 10.558857161731087 14.744443697168009 15.0
    vertex 12.5 15.0 15.0
  endloop
endfacet
facet normal -0.0 -0.0 1.0
  outer loop
    vertex 10.558857161731087 14.744443697168009 15.0
    vertex 3.1119780373966646 15.0 15.0
    vertex 8.749999999999995 13.995190528383288 15.0
  endloop
endfacet
facet normal -0.0 -0.0 1.0
  outer loop
    vertex 8.749999999999995 13.995190528383288 15.0
    vertex 3.1119780373966646 15.0 15.0
    vertex 7.196699141100892 12.803300858899107 15.0
  endloop
endfacet
facet normal -0.0 -0.0 1.0
  outer loop
    vertex 7.196699141100892 12.803300858899107 15.0
    vertex 3.1119780373966646 15.0 15.0
    vertex 6.0048094716167055 11.249999999999995 15.0
  endloop
endfacet
facet normal -0.0 -0.0 1.0
  outer loop
    vertex 6.0048094716167055 11.249999999999995 15.0
    vertex 3.1119780373966646 15.0 15.0
    vertex 5.255556302831986 9.441142838268902 15.0
  endloop
endfacet
facet normal -0.0 -0.0 1.0
  outer loop
    vertex 5.255556302831986 9.441142838268902 15.0
    vertex 3.1119780373966646 15.0 15.0
    vertex 4.999999999999999 7.499999999999999 15.0
  endloop
endfacet
endsolid ProbePart
