                                                                        S      1
,,34HCoverForElectronicsCompartmentBase,34HCoverForElectronicsCompartmenG      1
tBase,7Hunknown,7Hunknown,32,38,7,99,15,,1.,2,2HMM,1,0.08,15H20190615.15G      2
0933,0.01,10000.,7Hunknown,7Hunknown,11,0,15H20190613.181443;           G      3
     186       1                                                00000000D      1
     186            -223       1       0                               0D      2
     514       2                                                00010000D      3
     514                       2       1                               0D      4
     510       4                                                00010000D      5
     510            -223       1       1                               0D      6
     510       5                                                00010000D      7
     510            -223       1       1                               0D      8
     510       6                                                00010000D      9
     510            -223       1       1                               0D     10
     510       7                                                00010000D     11
     510            -223       1       1                               0D     12
     510       8                                                00010000D     13
     510            -223       1       1                               0D     14
     510       9                                                00010000D     15
     510            -223       1       1                               0D     16
     510      10                                                00010000D     17
     510            -223       1       1                               0D     18
     510      11                                                00010000D     19
     510            -223       1       1                               0D     20
     510      12                                                00010000D     21
     510            -223       1       1                               0D     22
     510      13                                                00010000D     23
     510            -223       1       1                               0D     24
     510      14                                                00010000D     25
     510            -223       1       1                               0D     26
     510      15                                                00010000D     27
     510            -223       1       1                               0D     28
     510      16                                                00010000D     29
     510            -223       1       1                               0D     30
     510      17                                                00010000D     31
     510            -223       1       1                               0D     32
     510      18                                                00010000D     33
     510            -223       1       1                               0D     34
     510      19                                                00010000D     35
     510            -223       1       1                               0D     36
     510      20                                                00010000D     37
     510            -223       1       1                               0D     38
     510      21                                                00010000D     39
     510            -223       1       1                               0D     40
     510      22                                                00010000D     41
     510            -223       1       1                               0D     42
     508      23                                                00010000D     43
     508                       1       1                               0D     44
     508      24                                                00010000D     45
     508                       1       1                               0D     46
     508      25                                                00010000D     47
     508                       2       1                               0D     48
     508      27                                                00010000D     49
     508                       2       1                               0D     50
     508      29                                                00010000D     51
     508                       1       1                               0D     52
     508      30                                                00010000D     53
     508                       1       1                               0D     54
     508      31                                                00010000D     55
     508                       1       1                               0D     56
     508      32                                                00010000D     57
     508                       1       1                               0D     58
     508      33                                                00010000D     59
     508                       1       1                               0D     60
     508      34                                                00010000D     61
     508                       1       1                               0D     62
     508      35                                                00010000D     63
     508                       2       1                               0D     64
     508      37                                                00010000D     65
     508                       1       1                               0D     66
     508      38                                                00010000D     67
     508                       1       1                               0D     68
     508      39                                                00010000D     69
     508                       1       1                               0D     70
     508      40                                                00010000D     71
     508                       1       1                               0D     72
     508      41                                                00010000D     73
     508                       1       1                               0D     74
     508      42                                                00010000D     75
     508                       1       1                               0D     76
     508      43                                                00010000D     77
     508                       1       1                               0D     78
     508      44                                                00010000D     79
     508                       1       1                               0D     80
     508      45                                                00010000D     81
     508                       2       1                               0D     82
     126      47                                                00010000D     83
     126       0               5       0                               0D     84
     126      52                                                00010000D     85
     126       0               2       0                               0D     86
     126      54                                                00010000D     87
     126       0               5       0                               0D     88
     126      59                                                00010000D     89
     126       0               2       0                               0D     90
     126      61                                                00010000D     91
     126       0               2       0                               0D     92
     126      63                                                00010000D     93
     126       0               2       0                               0D     94
     126      65                                                00010000D     95
     126       0               2       0                               0D     96
     126      67                                                00010000D     97
     126       0               2       0                               0D     98
     126      69                                                00010000D     99
     126       0               4       0                               0D    100
     126      73                                                00010000D    101
     126       0               2       0                               0D    102
     126      75                                                00010000D    103
     126       0               4       0                               0D    104
     126      79                                                00010000D    105
     126       0               2       0                               0D    106
     126      81                                                00010000D    107
     126       0               4       0                               0D    108
     126      85                                                00010000D    109
     126       0               2       0                               0D    110
     126      87                                                00010000D    111
     126       0               3       0                               0D    112
     126      90                                                00010000D    113
     126       0               2       0                               0D    114
     126      92                                                00010000D    115
     126       0               4       0                               0D    116
     126      96                                                00010000D    117
     126       0               2       0                               0D    118
     126      98                                                00010000D    119
     126       0               4       0                               0D    120
     126     102                                                00010000D    121
     126       0               2       0                               0D    122
     126     104                                                00010000D    123
     126       0               3       0                               0D    124
     126     107                                                00010000D    125
     126       0               5       0                               0D    126
     126     112                                                00010000D    127
     126       0               2       0                               0D    128
     126     114                                                00010000D    129
     126       0               2       0                               0D    130
     126     116                                                00010000D    131
     126       0               2       0                               0D    132
     126     118                                                00010000D    133
     126       0               5       0                               0D    134
     126     123                                                00010000D    135
     126       0               2       0                               0D    136
     126     125                                                00010000D    137
     126       0               2       0                               0D    138
     126     127                                                00010000D    139
     126       0               2       0                               0D    140
     126     129                                                00010000D    141
     126       0               2       0                               0D    142
     126     131                                                00010000D    143
     126       0               4       0                               0D    144
     126     135                                                00010000D    145
     126       0               2       0                               0D    146
     126     137                                                00010000D    147
     126       0               2       0                               0D    148
     126     139                                                00010000D    149
     126       0               2       0                               0D    150
     126     141                                                00010000D    151
     126       0               2       0                               0D    152
     126     143                                                00010000D    153
     126       0               3       0                               0D    154
     126     146                                                00010000D    155
     126       0               2       0                               0D    156
     126     148                                                00010000D    157
     126       0               2       0                               0D    158
     126     150                                                00010000D    159
     126       0               2       0                               0D    160
     126     152                                                00010000D    161
     126       0               4       0                               0D    162
     126     156                                                00010000D    163
     126       0               2       0                               0D    164
     126     158                                                00010000D    165
     126       0               2       0                               0D    166
     126     160                                                00010000D    167
     126       0               2       0                               0D    168
     126     162                                                00010000D    169
     126       0               4       0                               0D    170
     126     166                                                00010000D    171
     126       0               2       0                               0D    172
     126     168                                                00010000D    173
     126       0               2       0                               0D    174
     126     170                                                00010000D    175
     126       0               2       0                               0D    176
     126     172                                                00010000D    177
     126       0               3       0                               0D    178
     128     175                                                00010000D    179
     128       0    -223       6       0                               0D    180
     128     181                                                00010000D    181
     128       0    -223       3       0                               0D    182
     128     184                                                00010000D    183
     128       0    -223       3       0                               0D    184
     128     187                                                00010000D    185
     128       0    -223       6       0                               0D    186
     128     193                                                00010000D    187
     128       0    -223       3       0                               0D    188
     128     196                                                00010000D    189
     128       0    -223       6       0                               0D    190
     128     202                                                00010000D    191
     128       0    -223       3       0                               0D    192
     128     205                                                00010000D    193
     128       0    -223       6       0                               0D    194
     128     211                                                00010000D    195
     128       0    -223       3       0                               0D    196
     128     214                                                00010000D    197
     128       0    -223       3       0                               0D    198
     128     217                                                00010000D    199
     128       0    -223       3       0                               0D    200
     128     220                                                00010000D    201
     128       0    -223       5       0                               0D    202
     128     225                                                00010000D    203
     128       0    -223       3       0                               0D    204
     128     228                                                00010000D    205
     128       0    -223       6       0                               0D    206
     128     234                                                00010000D    207
     128       0    -223       3       0                               0D    208
     128     237                                                00010000D    209
     128       0    -223       6       0                               0D    210
     128     243                                                00010000D    211
     128       0    -223       3       0                               0D    212
     128     246                                                00010000D    213
     128       0    -223       5       0                               0D    214
     128     251                                                00010000D    215
     128       0    -223       3       0                               0D    216
     502     254                                                00010000D    217
     502                       8       1                               0D    218
     504     262                                                00010001D    219
     504                      14       1                               0D    220
     406     276                                                00000000D    221
     406                       1      15                               0D    222
     314     277                                                00000200D    223
     314                       2       0                               0D    224
186,3,1,0,0,1,221;                                                     1P      1
514,19,5,1,7,1,9,1,11,1,13,1,15,1,17,1,19,1,21,1,23,1,25,1,27,1,       3P      2
29,1,31,1,33,1,35,1,37,1,39,1,41,1;                                    3P      3
510,179,1,1,43;                                                        5P      4
510,181,1,1,45;                                                        7P      5
510,183,2,1,47,49;                                                     9P      6
510,185,1,1,51;                                                       11P      7
510,187,1,1,53;                                                       13P      8
510,189,1,1,55;                                                       15P      9
510,191,1,1,57;                                                       17P     10
510,193,1,1,59;                                                       19P     11
510,195,1,1,61;                                                       21P     12
510,197,1,1,63;                                                       23P     13
510,199,1,1,65;                                                       25P     14
510,201,1,1,67;                                                       27P     15
510,203,1,1,69;                                                       29P     16
510,205,1,1,71;                                                       31P     17
510,207,1,1,73;                                                       33P     18
510,209,1,1,75;                                                       35P     19
510,211,1,1,77;                                                       37P     20
510,213,1,1,79;                                                       39P     21
510,215,1,1,81;                                                       41P     22
508,4,0,219,1,1,0,0,219,2,1,0,0,219,3,1,0,0,219,4,1,0;                43P     23
508,4,0,219,4,0,0,0,219,5,1,0,0,219,6,0,0,0,219,7,0,0;                45P     24
508,8,0,219,3,0,0,0,219,8,0,0,0,219,9,0,0,0,219,10,0,0,0,219,11,      47P     25
0,0,0,219,12,0,0,0,219,13,0,0,0,219,5,0,0;                            47P     26
508,8,0,219,14,1,0,0,219,15,0,0,0,219,16,1,0,0,219,17,0,0,0,219,      49P     27
18,1,0,0,219,19,0,0,0,219,20,1,0,0,219,21,0,0;                        49P     28
508,4,0,219,22,1,0,0,219,6,1,0,0,219,13,1,0,0,219,23,1,0;             51P     29
508,4,0,219,23,0,0,0,219,12,1,0,0,219,24,0,0,0,219,25,0,0;            53P     30
508,4,0,219,26,1,0,0,219,27,1,0,0,219,9,1,0,0,219,28,1,0;             55P     31
508,4,0,219,27,0,0,0,219,29,0,0,0,219,30,0,0,0,219,10,1,0;            57P     32
508,4,0,219,31,1,0,0,219,24,1,0,0,219,11,1,0,0,219,30,1,0;            59P     33
508,4,0,219,2,0,0,0,219,32,0,0,0,219,28,0,0,0,219,8,1,0;              61P     34
508,8,0,219,1,0,0,0,219,7,1,0,0,219,22,0,0,0,219,25,1,0,0,219,        63P     35
31,0,0,0,219,29,1,0,0,219,26,0,0,0,219,32,1,0;                        63P     36
508,4,0,219,14,0,0,0,219,33,1,0,0,219,34,0,0,0,219,35,0,0;            65P     37
508,4,0,219,15,1,0,0,219,35,1,0,0,219,36,0,0,0,219,37,0,0;            67P     38
508,4,0,219,16,0,0,0,219,37,1,0,0,219,38,0,0,0,219,39,0,0;            69P     39
508,4,0,219,17,1,0,0,219,39,1,0,0,219,40,0,0,0,219,41,0,0;            71P     40
508,4,0,219,18,0,0,0,219,41,1,0,0,219,42,0,0,0,219,43,0,0;            73P     41
508,4,0,219,19,1,0,0,219,43,1,0,0,219,44,0,0,0,219,45,0,0;            75P     42
508,4,0,219,20,0,0,0,219,45,1,0,0,219,46,0,0,0,219,47,0,0;            77P     43
508,4,0,219,21,1,0,0,219,47,1,0,0,219,48,0,0,0,219,33,0,0;            79P     44
508,8,0,219,48,1,0,0,219,46,1,0,0,219,44,1,0,0,219,42,1,0,0,219,      81P     45
40,1,0,0,219,38,1,0,0,219,36,1,0,0,219,34,1,0;                        81P     46
126,2,2,0,0,0,0,-0.785398163397448,-0.785398163397448,                83P     47
-0.785398163397448,0.785398163397448,0.785398163397448,               83P     48
0.785398163397448,1.,0.707106781186545,1.,-76.5,-2.,-37.,-81.5,       83P     49
-2.,-37.,-81.5,-2.,-32.,-0.785398163397448,0.785398163397448,0.,      83P     50
0.,0.;                                                                83P     51
126,1,1,0,0,1,0,-0.2,-0.2,0.,0.,1.,1.,-81.5,-2.,-32.,-81.5,0.,        85P     52
-32.,-0.2,0.,0.,0.,0.;                                                85P     53
126,2,2,0,0,0,0,-0.785398163397448,-0.785398163397448,                87P     54
-0.785398163397448,0.785398163397448,0.785398163397448,               87P     55
0.785398163397448,1.,0.707106781186545,1.,-81.5,0.,-32.,-81.5,        87P     56
0.,-37.,-76.5,0.,-37.,-0.785398163397448,0.785398163397448,0.,        87P     57
0.,0.;                                                                87P     58
126,1,1,0,0,1,0,0.,0.,0.2,0.2,1.,1.,-76.5,0.,-37.,-76.5,-2.,          89P     59
-37.,0.,0.2,0.,0.,0.;                                                 89P     60
126,1,1,0,0,1,0,0.5,0.5,15.8,15.8,1.,1.,-76.5,0.,-37.,76.5,0.,        91P     61
-37.,0.5,15.8,0.,0.,0.;                                               91P     62
126,1,1,0,0,1,0,-0.2,-0.2,0.,0.,1.,1.,76.5,-2.,-37.,76.5,0.,          93P     63
-37.,-0.2,0.,0.,0.,0.;                                                93P     64
126,1,1,0,0,1,0,0.5,0.5,15.8,15.8,1.,1.,-76.5,-2.,-37.,76.5,-2.,      95P     65
-37.,0.5,15.8,0.,0.,0.;                                               95P     66
126,1,1,0,0,1,0,0.5,0.5,6.9,6.9,1.,1.,-81.5,0.,32.,-81.5,0.,          97P     67
-32.,0.5,6.9,0.,0.,0.;                                                97P     68
126,2,2,0,0,0,0,-0.785398163397448,-0.785398163397448,                99P     69
-0.785398163397448,0.785398163397448,0.785398163397448,               99P     70
0.785398163397448,1.,0.707106781186545,1.,-76.5,0.,37.,-81.5,0.,      99P     71
37.,-81.5,0.,32.,-0.785398163397448,0.785398163397448,0.,0.,0.;       99P     72
126,1,1,0,0,1,0,0.5,0.5,15.8,15.8,1.,1.,76.5,0.,37.,-76.5,0.,        101P     73
37.,0.5,15.8,0.,0.,0.;                                               101P     74
126,2,2,0,0,0,0,-0.785398163397448,-0.785398163397448,               103P     75
-0.785398163397448,0.785398163397448,0.785398163397448,              103P     76
0.785398163397448,1.,0.707106781186545,1.,81.5,0.,32.,81.5,0.,       103P     77
37.,76.5,0.,37.,-0.785398163397448,0.785398163397448,0.,0.,0.;       103P     78
126,1,1,0,0,1,0,0.5,0.5,6.9,6.9,1.,1.,81.5,0.,-32.,81.5,0.,32.,      105P     79
0.5,6.9,0.,0.,0.;                                                    105P     80
126,2,2,0,0,0,0,-0.785398163397448,-0.785398163397448,               107P     81
-0.785398163397448,0.785398163397448,0.785398163397448,              107P     82
0.785398163397448,1.,0.707106781186545,1.,76.5,0.,-37.,81.5,0.,      107P     83
-37.,81.5,0.,-32.,-0.785398163397448,0.785398163397448,0.,0.,0.;     107P     84
126,1,1,0,0,1,0,0.5,0.5,5.9,5.9,1.,1.,76.5,0.,-27.,76.5,0.,27.,      109P     85
0.5,5.9,0.,0.,0.;                                                    109P     86
126,2,2,0,0,0,0,-1.5707963267949,-1.5707963267949,                   111P     87
-1.5707963267949,0.,0.,0.,1.,0.70710678118655,1.,71.5,0.,32.,        111P     88
76.5,0.,32.,76.5,0.,27.,-1.5707963267949,0.,0.,0.,0.;                111P     89
126,1,1,0,0,1,0,0.5,0.5,14.8,14.8,1.,1.,71.5,0.,32.,-71.5,0.,        113P     90
32.,0.5,14.8,0.,0.,0.;                                               113P     91
126,2,2,0,0,0,0,-3.14159265358979,-3.14159265358979,                 115P     92
-3.14159265358979,-1.5707963267949,-1.5707963267949,                 115P     93
-1.5707963267949,1.,0.70710678118655,1.,-76.5,0.,27.,-76.5,0.,       115P     94
32.,-71.5,0.,32.,-3.14159265358979,-1.5707963267949,0.,0.,0.;        115P     95
126,1,1,0,0,1,0,0.5,0.5,5.9,5.9,1.,1.,-76.5,0.,27.,-76.5,0.,         117P     96
-27.,0.5,5.9,0.,0.,0.;                                               117P     97
126,2,2,0,0,0,0,1.5707963267949,1.5707963267949,1.5707963267949,     119P     98
3.14159265358979,3.14159265358979,3.14159265358979,1.,               119P     99
0.70710678118655,1.,-71.5,0.,-32.,-76.5,0.,-32.,-76.5,0.,-27.,       119P    100
1.5707963267949,3.14159265358979,0.,0.,0.;                           119P    101
126,1,1,0,0,1,0,0.5,0.5,14.8,14.8,1.,1.,-71.5,0.,-32.,71.5,0.,       121P    102
-32.,0.5,14.8,0.,0.,0.;                                              121P    103
126,2,2,0,0,0,0,0.,0.,0.,1.5707963267949,1.5707963267949,            123P    104
1.5707963267949,1.,0.70710678118655,1.,76.5,0.,-27.,76.5,0.,         123P    105
-32.,71.5,0.,-32.,0.,1.5707963267949,0.,0.,0.;                       123P    106
126,2,2,0,0,0,0,-0.785398163397448,-0.785398163397448,               125P    107
-0.785398163397448,0.785398163397448,0.785398163397448,              125P    108
0.785398163397448,1.,0.707106781186545,1.,81.5,-2.,-32.,81.5,        125P    109
-2.,-37.,76.5,-2.,-37.,-0.785398163397448,0.785398163397448,0.,      125P    110
0.,0.;                                                               125P    111
126,1,1,0,0,1,0,0.,0.,0.2,0.2,1.,1.,81.5,0.,-32.,81.5,-2.,-32.,      127P    112
0.,0.2,0.,0.,0.;                                                     127P    113
126,1,1,0,0,1,0,-0.2,-0.2,0.,0.,1.,1.,81.5,-2.,32.,81.5,0.,32.,      129P    114
-0.2,0.,0.,0.,0.;                                                    129P    115
126,1,1,0,0,1,0,0.5,0.5,6.9,6.9,1.,1.,81.5,-2.,-32.,81.5,-2.,        131P    116
32.,0.5,6.9,0.,0.,0.;                                                131P    117
126,2,2,0,0,0,0,-0.785398163397448,-0.785398163397448,               133P    118
-0.785398163397448,0.785398163397448,0.785398163397448,              133P    119
0.785398163397448,1.,0.707106781186545,1.,-81.5,-2.,32.,-81.5,       133P    120
-2.,37.,-76.5,-2.,37.,-0.785398163397448,0.785398163397448,0.,       133P    121
0.,0.;                                                               133P    122
126,1,1,0,0,1,0,-0.2,-0.2,0.,0.,1.,1.,-76.5,-2.,37.,-76.5,0.,        135P    123
37.,-0.2,0.,0.,0.,0.;                                                135P    124
126,1,1,0,0,1,0,0.,0.,0.2,0.2,1.,1.,-81.5,0.,32.,-81.5,-2.,32.,      137P    125
0.,0.2,0.,0.,0.;                                                     137P    126
126,1,1,0,0,1,0,0.5,0.5,15.8,15.8,1.,1.,76.5,-2.,37.,-76.5,-2.,      139P    127
37.,0.5,15.8,0.,0.,0.;                                               139P    128
126,1,1,0,0,1,0,0.,0.,0.2,0.2,1.,1.,76.5,0.,37.,76.5,-2.,37.,0.,     141P    129
0.2,0.,0.,0.;                                                        141P    130
126,2,2,0,0,0,0,-0.785398163397448,-0.785398163397448,               143P    131
-0.785398163397448,0.785398163397448,0.785398163397448,              143P    132
0.785398163397448,1.,0.707106781186545,1.,76.5,-2.,37.,81.5,-2.,     143P    133
37.,81.5,-2.,32.,-0.785398163397448,0.785398163397448,0.,0.,0.;      143P    134
126,1,1,0,0,1,0,0.5,0.5,6.9,6.9,1.,1.,-81.5,-2.,32.,-81.5,-2.,       145P    135
-32.,0.5,6.9,0.,0.,0.;                                               145P    136
126,1,1,0,0,1,0,0.,0.,0.25,0.25,1.,1.,76.5,0.,-27.,76.5,2.5,         147P    137
-27.,0.,0.25,0.,0.,0.;                                               147P    138
126,1,1,0,0,1,0,-5.9,-5.9,-0.5,-0.5,1.,1.,76.5,2.5,27.,76.5,2.5,     149P    139
-27.,-5.9,-0.5,0.,0.,0.;                                             149P    140
126,1,1,0,0,1,0,0.,0.,0.25,0.25,1.,1.,76.5,0.,27.,76.5,2.5,27.,      151P    141
0.,0.25,0.,0.,0.;                                                    151P    142
126,2,2,0,0,0,0,-1.5707963267949,-1.5707963267949,                   153P    143
-1.5707963267949,0.,0.,0.,1.,0.70710678118655,1.,71.5,2.5,32.,       153P    144
76.5,2.5,32.,76.5,2.5,27.,-1.5707963267949,0.,0.,0.,0.;              153P    145
126,1,1,0,0,1,0,0.,0.,0.25,0.25,1.,1.,71.5,0.,32.,71.5,2.5,32.,      155P    146
0.,0.25,0.,0.,0.;                                                    155P    147
126,1,1,0,0,1,0,-14.8,-14.8,-0.5,-0.5,1.,1.,-71.5,2.5,32.,71.5,      157P    148
2.5,32.,-14.8,-0.5,0.,0.,0.;                                         157P    149
126,1,1,0,0,1,0,0.,0.,0.25,0.25,1.,1.,-71.5,0.,32.,-71.5,2.5,        159P    150
32.,0.,0.25,0.,0.,0.;                                                159P    151
126,2,2,0,0,0,0,-3.14159265358979,-3.14159265358979,                 161P    152
-3.14159265358979,-1.5707963267949,-1.5707963267949,                 161P    153
-1.5707963267949,1.,0.70710678118655,1.,-76.5,2.5,27.,-76.5,2.5,     161P    154
32.,-71.5,2.5,32.,-3.14159265358979,-1.5707963267949,0.,0.,0.;       161P    155
126,1,1,0,0,1,0,0.,0.,0.25,0.25,1.,1.,-76.5,0.,27.,-76.5,2.5,        163P    156
27.,0.,0.25,0.,0.,0.;                                                163P    157
126,1,1,0,0,1,0,-5.9,-5.9,-0.5,-0.5,1.,1.,-76.5,2.5,-27.,-76.5,      165P    158
2.5,27.,-5.9,-0.5,0.,0.,0.;                                          165P    159
126,1,1,0,0,1,0,0.,0.,0.25,0.25,1.,1.,-76.5,0.,-27.,-76.5,2.5,       167P    160
-27.,0.,0.25,0.,0.,0.;                                               167P    161
126,2,2,0,0,0,0,1.5707963267949,1.5707963267949,1.5707963267949,     169P    162
3.14159265358979,3.14159265358979,3.14159265358979,1.,               169P    163
0.70710678118655,1.,-71.5,2.5,-32.,-76.5,2.5,-32.,-76.5,2.5,         169P    164
-27.,1.5707963267949,3.14159265358979,0.,0.,0.;                      169P    165
126,1,1,0,0,1,0,0.,0.,0.25,0.25,1.,1.,-71.5,0.,-32.,-71.5,2.5,       171P    166
-32.,0.,0.25,0.,0.,0.;                                               171P    167
126,1,1,0,0,1,0,-14.8,-14.8,-0.5,-0.5,1.,1.,71.5,2.5,-32.,-71.5,     173P    168
2.5,-32.,-14.8,-0.5,0.,0.,0.;                                        173P    169
126,1,1,0,0,1,0,0.,0.,0.25,0.25,1.,1.,71.5,0.,-32.,71.5,2.5,         175P    170
-32.,0.,0.25,0.,0.,0.;                                               175P    171
126,2,2,0,0,0,0,0.,0.,0.,1.5707963267949,1.5707963267949,            177P    172
1.5707963267949,1.,0.70710678118655,1.,76.5,2.5,-27.,76.5,2.5,       177P    173
-32.,71.5,2.5,-32.,0.,1.5707963267949,0.,0.,0.;                      177P    174
128,1,2,1,2,0,0,0,0,0,0.,0.,0.4,0.4,-0.785398163397448,              179P    175
-0.785398163397448,-0.785398163397448,0.785398163397448,             179P    176
0.785398163397448,0.785398163397448,1.,1.,0.707106781186548,         179P    177
0.707106781186548,1.,1.,-81.5,-2.,-32.,-81.5,0.,-32.,-81.5,-2.,      179P    178
-37.,-81.5,0.,-37.,-76.5,-2.,-37.,-76.5,0.,-37.,0.,0.4,              179P    179
-0.785398163397448,0.785398163397448;                                179P    180
128,1,1,1,1,0,0,1,0,0,0.499,0.499,15.801,15.801,-0.001,-0.001,       181P    181
0.201,0.201,1.,1.,1.,1.,-76.51,0.01,-37.,76.51,0.01,-37.,-76.51,     181P    182
-2.01,-37.,76.51,-2.01,-37.,0.499,15.801,-0.001,0.201;               181P    183
128,1,1,1,1,0,0,1,0,0,-8.151,-8.151,8.151,8.151,-3.701,-3.701,       183P    184
3.701,3.701,1.,1.,1.,1.,-81.51,0.,37.01,81.51,0.,37.01,-81.51,       183P    185
0.,-37.01,81.51,0.,-37.01,-8.151,8.151,-3.701,3.701;                 183P    186
128,1,2,1,2,0,0,0,0,0,0.,0.,0.4,0.4,-0.785398163397448,              185P    187
-0.785398163397448,-0.785398163397448,0.785398163397448,             185P    188
0.785398163397448,0.785398163397448,1.,1.,0.707106781186548,         185P    189
0.707106781186548,1.,1.,76.5,-2.,-37.,76.5,0.,-37.,81.5,-2.,         185P    190
-37.,81.5,0.,-37.,81.5,-2.,-32.,81.5,0.,-32.,0.,0.4,                 185P    191
-0.785398163397448,0.785398163397448;                                185P    192
128,1,1,1,1,0,0,1,0,0,0.499,0.499,6.901,6.901,-0.001,-0.001,         187P    193
0.201,0.201,1.,1.,1.,1.,81.5,0.01,-32.01,81.5,0.01,32.01,81.5,       187P    194
-2.01,-32.01,81.5,-2.01,32.01,0.499,6.901,-0.001,0.201;              187P    195
128,1,2,1,2,0,0,0,0,0,0.,0.,0.4,0.4,-0.785398163397448,              189P    196
-0.785398163397448,-0.785398163397448,0.785398163397448,             189P    197
0.785398163397448,0.785398163397448,1.,1.,0.707106781186548,         189P    198
0.707106781186548,1.,1.,-76.5,-2.,37.,-76.5,0.,37.,-81.5,-2.,        189P    199
37.,-81.5,0.,37.,-81.5,-2.,32.,-81.5,0.,32.,0.,0.4,                  189P    200
-0.785398163397448,0.785398163397448;                                189P    201
128,1,1,1,1,0,0,1,0,0,0.499,0.499,15.801,15.801,-0.001,-0.001,       191P    202
0.201,0.201,1.,1.,1.,1.,76.51,0.01,37.,-76.51,0.01,37.,76.51,        191P    203
-2.01,37.,-76.51,-2.01,37.,0.499,15.801,-0.001,0.201;                191P    204
128,1,2,1,2,0,0,0,0,0,0.,0.,0.4,0.4,-0.785398163397448,              193P    205
-0.785398163397448,-0.785398163397448,0.785398163397448,             193P    206
0.785398163397448,0.785398163397448,1.,1.,0.707106781186548,         193P    207
0.707106781186548,1.,1.,81.5,-2.,32.,81.5,0.,32.,81.5,-2.,37.,       193P    208
81.5,0.,37.,76.5,-2.,37.,76.5,0.,37.,0.,0.4,-0.785398163397448,      193P    209
0.785398163397448;                                                   193P    210
128,1,1,1,1,0,0,1,0,0,0.499,0.499,6.901,6.901,-0.001,-0.001,         195P    211
0.201,0.201,1.,1.,1.,1.,-81.5,0.01,32.01,-81.5,0.01,-32.01,          195P    212
-81.5,-2.01,32.01,-81.5,-2.01,-32.01,0.499,6.901,-0.001,0.201;       195P    213
128,1,1,1,1,0,0,1,0,0,-3.701,-3.701,3.701,3.701,-8.151,-8.151,       197P    214
8.151,8.151,1.,1.,1.,1.,-81.51,-2.,37.01,-81.51,-2.,-37.01,          197P    215
81.51,-2.,37.01,81.51,-2.,-37.01,-3.701,3.701,-8.151,8.151;          197P    216
128,1,1,1,1,0,0,1,0,0,-0.001,-0.001,5.401,5.401,-0.001,-0.001,       199P    217
0.251,0.251,1.,1.,1.,1.,76.5,-0.01,27.01,76.5,-0.01,-27.01,76.5,     199P    218
2.51,27.01,76.5,2.51,-27.01,-0.001,5.401,-0.001,0.251;               199P    219
128,1,2,1,2,0,0,0,0,0,0.,0.,0.5,0.5,-1.5707963267949,                201P    220
-1.5707963267949,-1.5707963267949,0.,0.,0.,1.,1.,                    201P    221
0.707106781186548,0.707106781186548,1.,1.,71.5,2.5,32.,71.5,0.,      201P    222
32.,76.5,2.5,32.,76.5,0.,32.,76.5,2.5,27.,76.5,0.,27.,0.,0.5,        201P    223
-1.5707963267949,0.;                                                 201P    224
128,1,1,1,1,0,0,1,0,0,-0.001,-0.001,14.301,14.301,-0.001,-0.001,     203P    225
0.251,0.251,1.,1.,1.,1.,-71.51,-0.01,32.,71.51,-0.01,32.,-71.51,     203P    226
2.51,32.,71.51,2.51,32.,-0.001,14.301,-0.001,0.251;                  203P    227
128,1,2,1,2,0,0,0,0,0,0.,0.,0.5,0.5,-3.14159265358979,               205P    228
-3.14159265358979,-3.14159265358979,-1.5707963267949,                205P    229
-1.5707963267949,-1.5707963267949,1.,1.,0.707106781186548,           205P    230
0.707106781186548,1.,1.,-76.5,2.5,27.,-76.5,0.,27.,-76.5,2.5,        205P    231
32.,-76.5,0.,32.,-71.5,2.5,32.,-71.5,0.,32.,0.,0.5,                  205P    232
-3.14159265358979,-1.5707963267949;                                  205P    233
128,1,1,1,1,0,0,1,0,0,-0.001,-0.001,5.401,5.401,-0.001,-0.001,       207P    234
0.251,0.251,1.,1.,1.,1.,-76.5,-0.01,-27.01,-76.5,-0.01,27.01,        207P    235
-76.5,2.51,-27.01,-76.5,2.51,27.01,-0.001,5.401,-0.001,0.251;        207P    236
128,1,2,1,2,0,0,0,0,0,0.,0.,0.5,0.5,1.5707963267949,                 209P    237
1.5707963267949,1.5707963267949,3.14159265358979,                    209P    238
3.14159265358979,3.14159265358979,1.,1.,0.707106781186548,           209P    239
0.707106781186548,1.,1.,-71.5,2.5,-32.,-71.5,0.,-32.,-76.5,2.5,      209P    240
-32.,-76.5,0.,-32.,-76.5,2.5,-27.,-76.5,0.,-27.,0.,0.5,              209P    241
1.5707963267949,3.14159265358979;                                    209P    242
128,1,1,1,1,0,0,1,0,0,-0.001,-0.001,14.301,14.301,-0.001,-0.001,     211P    243
0.251,0.251,1.,1.,1.,1.,71.51,-0.01,-32.,-71.51,-0.01,-32.,          211P    244
71.51,2.51,-32.,-71.51,2.51,-32.,-0.001,14.301,-0.001,0.251;         211P    245
128,1,2,1,2,0,0,0,0,0,0.,0.,0.5,0.5,0.,0.,0.,1.5707963267949,        213P    246
1.5707963267949,1.5707963267949,1.,1.,0.707106781186548,             213P    247
0.707106781186548,1.,1.,76.5,2.5,-27.,76.5,0.,-27.,76.5,2.5,         213P    248
-32.,76.5,0.,-32.,71.5,2.5,-32.,71.5,0.,-32.,0.,0.5,0.,              213P    249
1.5707963267949;                                                     213P    250
128,1,1,1,1,0,0,1,0,0,-7.651,-7.651,7.651,7.651,-3.201,-3.201,       215P    251
3.201,3.201,1.,1.,1.,1.,-76.51,2.5,32.01,76.51,2.5,32.01,-76.51,     215P    252
2.5,-32.01,76.51,2.5,-32.01,-7.651,7.651,-3.201,3.201;               215P    253
502,32,-76.5,-2.,-37.,-81.5,-2.,-32.,-81.5,0.,-32.,-76.5,0.,         217P    254
-37.,76.5,0.,-37.,76.5,-2.,-37.,-81.5,0.,32.,-76.5,0.,37.,76.5,      217P    255
0.,37.,81.5,0.,32.,81.5,0.,-32.,76.5,0.,-27.,76.5,0.,27.,71.5,       217P    256
0.,32.,-71.5,0.,32.,-76.5,0.,27.,-76.5,0.,-27.,-71.5,0.,-32.,        217P    257
71.5,0.,-32.,81.5,-2.,-32.,81.5,-2.,32.,-81.5,-2.,32.,-76.5,-2.,     217P    258
37.,76.5,-2.,37.,76.5,2.5,-27.,76.5,2.5,27.,71.5,2.5,32.,-71.5,      217P    259
2.5,32.,-76.5,2.5,27.,-76.5,2.5,-27.,-71.5,2.5,-32.,71.5,2.5,        217P    260
-32.;                                                                217P    261
504,48,83,217,1,217,2,85,217,2,217,3,87,217,3,217,4,89,217,4,        219P    262
217,1,91,217,4,217,5,93,217,6,217,5,95,217,1,217,6,97,217,7,217,     219P    263
3,99,217,8,217,7,101,217,9,217,8,103,217,10,217,9,105,217,11,        219P    264
217,10,107,217,5,217,11,109,217,12,217,13,111,217,14,217,13,113,     219P    265
217,14,217,15,115,217,16,217,15,117,217,16,217,17,119,217,18,        219P    266
217,17,121,217,18,217,19,123,217,12,217,19,125,217,20,217,6,127,     219P    267
217,11,217,20,129,217,21,217,10,131,217,20,217,21,133,217,22,        219P    268
217,23,135,217,23,217,8,137,217,7,217,22,139,217,24,217,23,141,      219P    269
217,9,217,24,143,217,24,217,21,145,217,22,217,2,147,217,12,217,      219P    270
25,149,217,26,217,25,151,217,13,217,26,153,217,27,217,26,155,        219P    271
217,14,217,27,157,217,28,217,27,159,217,15,217,28,161,217,29,        219P    272
217,28,163,217,16,217,29,165,217,30,217,29,167,217,17,217,30,        219P    273
169,217,31,217,30,171,217,18,217,31,173,217,32,217,31,175,217,       219P    274
19,217,32,177,217,25,217,32;                                         219P    275
406,1,5HBody1;                                                       221P    276
314,62.7450980392157,62.7450980392157,62.7450980392157,13HSteel      223P    277
- Satin;                                                             223P    278
S      1G      3D    224P    278                                        T      1
