<?xml version="1.0" encoding="utf-8"?>
<!-- Generator: Adobe Illustrator 16.0.0, SVG Export Plug-In . SVG Version: 6.00 Build 0)  -->
<!DOCTYPE svg PUBLIC "-//W3C//DTD SVG 1.1//EN" "http://www.w3.org/Graphics/SVG/1.1/DTD/svg11.dtd">
<svg version="1.1" id="Layer_1" xmlns="http://www.w3.org/2000/svg" xmlns:xlink="http://www.w3.org/1999/xlink" x="0px" y="0px"
	 width="864px" height="864px" viewBox="0 0 864 864" enable-background="new 0 0 864 864" xml:space="preserve">
<path fill-rule="evenodd" clip-rule="evenodd" d="M381.808,594.704c-4.634-0.278-8.716-0.771-12.792-0.719
	c-10.653,0.136-18.043-4.812-22.851-14.059c-0.439-0.846-0.609-2.167-1.285-2.503c-20.366-10.147-12.402-28.52-11.228-43.657
	c0.696-8.959,6.987-17.878,12.088-25.98c4.245-6.742,3.425-19.897-3.248-24.158c-30.731-19.62-47.682-49.768-61.371-81.955
	c-6.388-15.02,0.38-23.42,16.811-22.846c21.537,0.753,40.929,8.384,59.014,19.739c4.264,2.678,8.666,5.134,14.664,6.625
	c-1.448-2.829-2.629-5.838-4.385-8.461c-21.902-32.709-53.22-53.248-88.81-68.054c-11.713-4.874-23.957-8.481-35.64-13.418
	c-44.342-18.734-65.005-54.79-60.011-102.887c4.682-45.097,15.941-88.123,38.797-127.611c4.577-7.908,10.128-15.251,17.326-21.862
	c-1.758,5.091-3.377,10.235-5.296,15.265c-16.589,43.452-27.289,88.006-25.508,134.926c0.048,1.275,0.029,2.554,0.144,3.822
	c2.264,25.084,7.829,28.058,30.698,19.115c14.839-5.802,22.217-13.271,21.65-31.123c-0.956-30.097,7.142-59.147,18.794-86.982
	c1.384-3.307,3.355-6.368,6.444-8.876c-3.898,34.813-7.795,69.625-11.693,104.438c1.016,0.705,2.031,1.411,3.046,2.116
	c17.994-14.496,35.987-28.992,53.981-43.488c0.515,0.322,1.029,0.644,1.543,0.965c-1.671,3.496-2.95,7.252-5.078,10.443
	c-12.458,18.691-26.963,35.535-45.843,48.064c-5.031,3.339-7.673,7.049-6.839,13.288c1.053,7.87,1.11,15.891,2.437,23.703
	c2.929,17.244,13.401,28.334,29.553,34.404c14.27,5.363,28.465,10.929,42.8,16.111c14.961,5.408,17.854,3.653,23.374-10.96
	c8.191-21.688,16.822-43.214,25.381-64.763c1.134-2.855,2.94-5.442,4.436-8.153c0.936,0.175,1.871,0.35,2.807,0.525
	c-0.587,5.216-1.018,10.455-1.791,15.644c-3.36,22.553-8.237,44.994-9.781,67.666c-1.164,17.085,4.936,33.457,17.701,45.878
	c3.455,3.362,9.119,5.667,13.979,6.102c8.169,0.731,16.598,0.221,24.756-0.919c17.995-2.516,30.146-15.866,29.486-33.904
	c-0.59-16.153-3.39-32.218-4.969-48.346c-1.124-11.476-1.843-22.99-2.741-34.487c1.229-0.22,2.457-0.438,3.686-0.657
	c2.469,7.012,5.343,13.914,7.322,21.063c3.896,14.081,7.08,28.359,10.971,42.442c3.123,11.305,6.66,13.535,17.208,8.793
	c16.743-7.527,33.641-15.133,49.192-24.771c17.134-10.619,23.168-28.75,26.073-47.895c3.661-24.131,3.625-24.051-17.299-36.41
	c-36.889-21.789-57.425-55.738-70.411-95.223c-0.358-1.089-0.045-2.401,0.934-4.392c22.553,33.316,52.408,58.471,85.015,80.637
	c0.901-0.384,1.805-0.769,2.707-1.152c-8.475-33.339-16.948-66.678-25.423-100.018c1.004-0.522,2.008-1.044,3.013-1.566
	c2.849,3.802,6.64,7.214,8.395,11.468c12.086,29.311,24.967,58.392,34.937,88.428c3.933,11.849,9.922,16.293,21.195,18.294
	c8.369-25.748,3.997-51.528,0.366-77.128c-3.604-25.399-5.271-51.645-25.543-71.626c1.208-0.152,2.417-0.305,3.625-0.458
	c0.364-2.529,1.695-5.408,0.931-7.53c-3.786-10.503-8.125-20.807-12.269-31.181c1.232-0.584,2.466-1.169,3.698-1.754
	c8.811,15.647,17.455,31.39,26.511,46.893c3.79,6.488,7.568,13.373,12.865,18.521c26.153,25.422,40.05,56.311,41.981,92.442
	c1.354,25.359,1.764,50.774,2.197,76.172c0.194,11.36-4.806,20.006-15.225,25.528c-38.479,20.392-76.937,40.828-115.211,61.599
	c-10.866,5.897-21.324,12.642-31.527,19.642c-9.104,6.248-14.113,15.549-15.178,26.481c-0.357,3.675,0.266,9.636,2.486,10.87
	c3.552,1.972,9.289,2.175,13.225,0.734c4.854-1.779,9.143-5.65,13.068-9.273c4.665-4.305,9.023-9.045,12.929-14.054
	c20.01-25.655,47.106-28.927,76.606-24.426c7.673,1.17,12.399,6.143,10.994,14.056c-6.399,36.022-15.857,71.057-42.837,97.802
	c-6.664,6.606-16.446,10.961-25.585,13.857c-5.929,1.878-13.889,0.72-19.883-1.697c-11.681-4.712-19.26-3.394-22.304,9.177
	c-2.606,10.758-2.706,22.717-1.175,33.765c3.66,26.408,9.792,52.478,13.292,78.901c2.897,21.879,8.735,42.61,15.169,63.684
	c10.673,34.954,14.904,71.441,0.943,106.793c-14.837,37.569-42.562,62.401-81.77,72.519c-37.58,9.698-78.048-8.154-102.562-43.301
	c-32.997-47.307-32.486-113.463,3.796-162.762C383.803,622.64,382.524,609.625,381.808,594.704z M261.769,286.725
	c-0.979-14.564-1.769-26.317-2.631-39.139c-9.488,5.881-17.899,11.096-28.475,17.651
	C241.722,272.875,250.894,279.212,261.769,286.725z M655.175,212.229c12.33-9.683,8.485-60.962-6.012-80.436
	C651.136,158.182,653.167,185.37,655.175,212.229z M611.372,262.108c9.69-6.042,14.928-12.432,13.451-20.018
	c-0.73-3.746-8.393-6.142-12.918-9.148c-0.773,0.638-1.546,1.276-2.318,1.915C610.129,243.145,610.673,251.433,611.372,262.108z"/>
</svg>
