solid StandBottom
facet normal 0.0 0.0 1.0
  outer loop
    vertex 28.884516690216852 20.16916366209614 50.0
    vertex 34.23138222169564 35.324840739282884 50.0
    vertex 28.884516690216852 57.03336766209617 50.0
  endloop
endfacet
facet normal 0.0 0.0 1.0
  outer loop
    vertex 34.23138222169564 35.324840739282884 50.0
    vertex 28.884516690216852 20.16916366209614 50.0
    vertex 35.546523377208196 31.88820174411082 50.0
  endloop
endfacet
facet normal 0.0 0.0 1.0
  outer loop
    vertex 35.546523377208196 31.88820174411082 50.0
    vertex 28.884516690216852 20.16916366209614 50.0
    vertex 37.706319807625945 28.90904696108679 50.0
  endloop
endfacet
facet normal 0.0 0.0 1.0
  outer loop
    vertex 37.706319807625945 28.90904696108679 50.0
    vertex 28.884516690216852 20.16916366209614 50.0
    vertex 40.56358495544828 26.590400865387824 50.0
  endloop
endfacet
facet normal 0.0 0.0 1.0
  outer loop
    vertex 40.56358495544828 26.590400865387824 50.0
    vertex 28.884516690216852 20.16916366209614 50.0
    vertex 43.923600922705006 25.090275356691976 50.0
  endloop
endfacet
facet normal 0.0 0.0 1.0
  outer loop
    vertex 43.923600922705006 25.090275356691976 50.0
    vertex 28.884516690216852 20.16916366209614 50.0
    vertex 66.99725369021687 20.16916366209614 50.0
  endloop
endfacet
facet normal 0.0 0.0 1.0
  outer loop
    vertex 28.884516690216852 57.03336766209617 50.0
    vertex 34.23138222169564 35.324840739282884 50.0
    vertex 33.85052103746294 38.98476267839649 50.0
  endloop
endfacet
facet normal 0.0 0.0 1.0
  outer loop
    vertex 43.923600922705006 25.090275356691976 50.0
    vertex 66.99725369021687 20.16916366209614 50.0
    vertex 47.55738817391653 24.510901509342233 50.0
  endloop
endfacet
facet normal 0.0 0.0 1.0
  outer loop
    vertex 47.55738817391653 24.510901509342233 50.0
    vertex 66.99725369021687 20.16916366209614 50.0
    vertex 51.21731011303013 24.891762693574936 50.0
  endloop
endfacet
facet normal 0.0 0.0 1.0
  outer loop
    vertex 51.21731011303013 24.891762693574936 50.0
    vertex 66.99725369021687 20.16916366209614 50.0
    vertex 54.6539491082022 26.206903849087492 50.0
  endloop
endfacet
facet normal 0.0 0.0 1.0
  outer loop
    vertex 54.6539491082022 26.206903849087492 50.0
    vertex 66.99725369021687 20.16916366209614 50.0
    vertex 57.63310389122623 28.36670027950524 50.0
  endloop
endfacet
facet normal 0.0 0.0 1.0
  outer loop
    vertex 57.63310389122623 28.36670027950524 50.0
    vertex 66.99725369021687 20.16916366209614 50.0
    vertex 59.9517499869252 31.223965427327578 50.0
  endloop
endfacet
facet normal 0.0 0.0 1.0
  outer loop
    vertex 59.9517499869252 31.223965427327578 50.0
    vertex 66.99725369021687 20.16916366209614 50.0
    vertex 61.45187549562104 34.583981394584306 50.0
  endloop
endfacet
facet normal 0.0 0.0 1.0
  outer loop
    vertex 61.45187549562104 34.583981394584306 50.0
    vertex 66.99725369021687 20.16916366209614 50.0
    vertex 62.03124934297078 38.217768645795815 50.0
  endloop
endfacet
facet normal 0.0 0.0 1.0
  outer loop
    vertex 28.884516690216852 57.03336766209617 50.0
    vertex 44.66446026740359 52.31076863061738 50.0
    vertex 66.99725369021687 57.03336766209617 50.0
  endloop
endfacet
facet normal 0.0 0.0 1.0
  outer loop
    vertex 44.66446026740359 52.31076863061738 50.0
    vertex 28.884516690216852 57.03336766209617 50.0
    vertex 41.227821272231516 50.99562747510481 50.0
  endloop
endfacet
facet normal 0.0 0.0 1.0
  outer loop
    vertex 41.227821272231516 50.99562747510481 50.0
    vertex 28.884516690216852 57.03336766209617 50.0
    vertex 38.248666489207494 48.83583104468707 50.0
  endloop
endfacet
facet normal 0.0 0.0 1.0
  outer loop
    vertex 38.248666489207494 48.83583104468707 50.0
    vertex 28.884516690216852 57.03336766209617 50.0
    vertex 35.930020393508535 45.97856589686474 50.0
  endloop
endfacet
facet normal 0.0 0.0 1.0
  outer loop
    vertex 35.930020393508535 45.97856589686474 50.0
    vertex 28.884516690216852 57.03336766209617 50.0
    vertex 34.429894884812676 42.618549929608 50.0
  endloop
endfacet
facet normal 0.0 0.0 1.0
  outer loop
    vertex 34.429894884812676 42.618549929608 50.0
    vertex 28.884516690216852 57.03336766209617 50.0
    vertex 33.85052103746294 38.98476267839649 50.0
  endloop
endfacet
facet normal 0.0 0.0 1.0
  outer loop
    vertex 66.99725369021687 57.03336766209617 50.0
    vertex 44.66446026740359 52.31076863061738 50.0
    vertex 48.32438220651719 52.69162981485008 50.0
  endloop
endfacet
facet normal 0.0 0.0 1.0
  outer loop
    vertex 66.99725369021687 57.03336766209617 50.0
    vertex 48.32438220651719 52.69162981485008 50.0
    vertex 51.95816945772871 52.11225596750034 50.0
  endloop
endfacet
facet normal 0.0 0.0 1.0
  outer loop
    vertex 66.99725369021687 57.03336766209617 50.0
    vertex 51.95816945772871 52.11225596750034 50.0
    vertex 55.31818542498544 50.61213045880449 50.0
  endloop
endfacet
facet normal 0.0 0.0 1.0
  outer loop
    vertex 66.99725369021687 57.03336766209617 50.0
    vertex 55.31818542498544 50.61213045880449 50.0
    vertex 58.175450572807776 48.29348436310552 50.0
  endloop
endfacet
facet normal 0.0 0.0 1.0
  outer loop
    vertex 66.99725369021687 57.03336766209617 50.0
    vertex 58.175450572807776 48.29348436310552 50.0
    vertex 60.335247003225525 45.3143295800815 50.0
  endloop
endfacet
facet normal 0.0 0.0 1.0
  outer loop
    vertex 66.99725369021687 57.03336766209617 50.0
    vertex 60.335247003225525 45.3143295800815 50.0
    vertex 61.650388158738075 41.87769058490943 50.0
  endloop
endfacet
facet normal 0.0 0.0 1.0
  outer loop
    vertex 66.99725369021687 57.03336766209617 50.0
    vertex 61.650388158738075 41.87769058490943 50.0
    vertex 62.03124934297078 38.217768645795815 50.0
  endloop
endfacet
facet normal 0.0 0.0 1.0
  outer loop
    vertex 66.99725369021687 57.03336766209617 50.0
    vertex 62.03124934297078 38.217768645795815 50.0
    vertex 66.99725369021687 20.16916366209614 50.0
  endloop
endfacet
facet normal 0.8656637869841849 -6.222770514213231e-18 0.5006258162582109
  outer loop
    vertex 95.91297269021686 77.60126566209617 0.0
    vertex 66.99725369021687 20.16916366209614 50.0
    vertex 95.91297269021686 -0.39873433790384083 0.0
  endloop
endfacet
facet normal 0.8656637869841849 -6.222770514213231e-18 0.5006258162582109
  outer loop
    vertex 66.99725369021687 20.16916366209614 50.0
    vertex 95.91297269021686 77.60126566209617 0.0
    vertex 66.99725369021687 57.03336766209617 50.0
  endloop
endfacet
facet normal 1.452108947765196e-18 0.9248104785728779 0.3804281518523628
  outer loop
    vertex 28.884516690216852 57.03336766209617 50.0
    vertex 95.91297269021686 77.60126566209617 0.0
    vertex -0.08702730978312512 77.60126566209617 0.0
  endloop
endfacet
facet normal 1.452108947765196e-18 0.9248104785728779 0.3804281518523628
  outer loop
    vertex 95.91297269021686 77.60126566209617 0.0
    vertex 28.884516690216852 57.03336766209617 50.0
    vertex 66.99725369021687 57.03336766209617 50.0
  endloop
endfacet
facet normal 1.3982807712532108e-17 -0.9248104785728781 0.38042815185236245
  outer loop
    vertex 66.99725369021687 20.16916366209614 50.0
    vertex -0.08702730978312512 -0.39873433790384083 0.0
    vertex 95.91297269021686 -0.39873433790384083 0.0
  endloop
endfacet
facet normal 1.3982807712532108e-17 -0.9248104785728781 0.38042815185236245
  outer loop
    vertex -0.08702730978312512 -0.39873433790384083 0.0
    vertex 66.99725369021687 20.16916366209614 50.0
    vertex 28.884516690216852 20.16916366209614 50.0
  endloop
endfacet
facet normal -0.8652448254782006 -6.0710115179017554e-18 0.5013495706422798
  outer loop
    vertex 28.884516690216852 20.16916366209614 50.0
    vertex -0.08702730978312512 77.60126566209617 0.0
    vertex -0.08702730978312512 -0.39873433790384083 0.0
  endloop
endfacet
facet normal -0.8652448254782006 -6.0710115179017554e-18 0.5013495706422798
  outer loop
    vertex -0.08702730978312512 77.60126566209617 0.0
    vertex 28.884516690216852 20.16916366209614 50.0
    vertex 28.884516690216852 57.03336766209617 50.0
  endloop
endfacet
facet normal 0.0 0.0 -1.0
  outer loop
    vertex -0.08702730978312512 77.60126566209617 0.0
    vertex 35.930020393508535 45.97856589686474 2.8199664825478975e-15
    vertex -0.08702730978312512 -0.39873433790384083 0.0
  endloop
endfacet
facet normal 0.0 0.0 -1.0
  outer loop
    vertex 35.930020393508535 45.97856589686474 2.8199664825478975e-15
    vertex -0.08702730978312512 77.60126566209617 0.0
    vertex 38.248666489207494 48.83583104468707 2.8199664825478975e-15
  endloop
endfacet
facet normal 0.0 0.0 -1.0
  outer loop
    vertex 38.248666489207494 48.83583104468707 2.8199664825478975e-15
    vertex -0.08702730978312512 77.60126566209617 0.0
    vertex 41.227821272231516 50.99562747510481 2.8199664825478975e-15
  endloop
endfacet
facet normal 0.0 0.0 -1.0
  outer loop
    vertex 41.227821272231516 50.99562747510481 2.8199664825478975e-15
    vertex -0.08702730978312512 77.60126566209617 0.0
    vertex 95.91297269021686 77.60126566209617 0.0
  endloop
endfacet
facet normal 0.0 0.0 -1.0
  outer loop
    vertex -0.08702730978312512 -0.39873433790384083 0.0
    vertex 35.930020393508535 45.97856589686474 2.8199664825478975e-15
    vertex 34.429894884812676 42.618549929608 2.8199664825478975e-15
  endloop
endfacet
facet normal 0.0 0.0 -1.0
  outer loop
    vertex -0.08702730978312512 -0.39873433790384083 0.0
    vertex 34.429894884812676 42.618549929608 2.8199664825478975e-15
    vertex 33.85052103746294 38.98476267839649 2.8199664825478975e-15
  endloop
endfacet
facet normal 0.0 0.0 -1.0
  outer loop
    vertex 41.227821272231516 50.99562747510481 2.8199664825478975e-15
    vertex 95.91297269021686 77.60126566209617 0.0
    vertex 44.66446026740359 52.31076863061738 2.8199664825478975e-15
  endloop
endfacet
facet normal 0.0 0.0 -1.0
  outer loop
    vertex 44.66446026740359 52.31076863061738 2.8199664825478975e-15
    vertex 95.91297269021686 77.60126566209617 0.0
    vertex 48.32438220651719 52.69162981485008 2.8199664825478975e-15
  endloop
endfacet
facet normal 0.0 0.0 -1.0
  outer loop
    vertex 48.32438220651719 52.69162981485008 2.8199664825478975e-15
    vertex 95.91297269021686 77.60126566209617 0.0
    vertex 51.95816945772871 52.11225596750034 2.8199664825478975e-15
  endloop
endfacet
facet normal 0.0 0.0 -1.0
  outer loop
    vertex 51.95816945772871 52.11225596750034 2.8199664825478975e-15
    vertex 95.91297269021686 77.60126566209617 0.0
    vertex 55.31818542498544 50.61213045880449 2.8199664825478975e-15
  endloop
endfacet
facet normal 0.0 0.0 -1.0
  outer loop
    vertex 55.31818542498544 50.61213045880449 2.8199664825478975e-15
    vertex 95.91297269021686 77.60126566209617 0.0
    vertex 58.175450572807776 48.29348436310552 2.8199664825478975e-15
  endloop
endfacet
facet normal 0.0 0.0 -1.0
  outer loop
    vertex 58.175450572807776 48.29348436310552 2.8199664825478975e-15
    vertex 95.91297269021686 77.60126566209617 0.0
    vertex 60.335247003225525 45.3143295800815 2.8199664825478975e-15
  endloop
endfacet
facet normal 0.0 0.0 -1.0
  outer loop
    vertex 60.335247003225525 45.3143295800815 2.8199664825478975e-15
    vertex 95.91297269021686 77.60126566209617 0.0
    vertex 61.650388158738075 41.87769058490943 2.8199664825478975e-15
  endloop
endfacet
facet normal 0.0 0.0 -1.0
  outer loop
    vertex 61.650388158738075 41.87769058490943 2.8199664825478975e-15
    vertex 95.91297269021686 77.60126566209617 0.0
    vertex 62.03124934297078 38.217768645795815 2.8199664825478975e-15
  endloop
endfacet
facet normal 0.0 0.0 -1.0
  outer loop
    vertex -0.08702730978312512 -0.39873433790384083 0.0
    vertex 40.56358495544828 26.590400865387824 2.8199664825478975e-15
    vertex 95.91297269021686 -0.39873433790384083 0.0
  endloop
endfacet
facet normal 0.0 0.0 -1.0
  outer loop
    vertex 40.56358495544828 26.590400865387824 2.8199664825478975e-15
    vertex -0.08702730978312512 -0.39873433790384083 0.0
    vertex 37.706319807625945 28.90904696108679 2.8199664825478975e-15
  endloop
endfacet
facet normal 0.0 0.0 -1.0
  outer loop
    vertex 37.706319807625945 28.90904696108679 2.8199664825478975e-15
    vertex -0.08702730978312512 -0.39873433790384083 0.0
    vertex 35.546523377208196 31.88820174411082 2.8199664825478975e-15
  endloop
endfacet
facet normal 0.0 0.0 -1.0
  outer loop
    vertex 35.546523377208196 31.88820174411082 2.8199664825478975e-15
    vertex -0.08702730978312512 -0.39873433790384083 0.0
    vertex 34.23138222169564 35.324840739282884 2.8199664825478975e-15
  endloop
endfacet
facet normal 0.0 0.0 -1.0
  outer loop
    vertex 34.23138222169564 35.324840739282884 2.8199664825478975e-15
    vertex -0.08702730978312512 -0.39873433790384083 0.0
    vertex 33.85052103746294 38.98476267839649 2.8199664825478975e-15
  endloop
endfacet
facet normal 0.0 0.0 -1.0
  outer loop
    vertex 95.91297269021686 -0.39873433790384083 0.0
    vertex 40.56358495544828 26.590400865387824 2.8199664825478975e-15
    vertex 43.923600922705006 25.090275356691976 2.8199664825478975e-15
  endloop
endfacet
facet normal 0.0 0.0 -1.0
  outer loop
    vertex 95.91297269021686 -0.39873433790384083 0.0
    vertex 43.923600922705006 25.090275356691976 2.8199664825478975e-15
    vertex 47.55738817391653 24.510901509342233 2.8199664825478975e-15
  endloop
endfacet
facet normal 0.0 0.0 -1.0
  outer loop
    vertex 95.91297269021686 -0.39873433790384083 0.0
    vertex 47.55738817391653 24.510901509342233 2.8199664825478975e-15
    vertex 51.21731011303013 24.891762693574936 2.8199664825478975e-15
  endloop
endfacet
facet normal 0.0 0.0 -1.0
  outer loop
    vertex 95.91297269021686 -0.39873433790384083 0.0
    vertex 51.21731011303013 24.891762693574936 2.8199664825478975e-15
    vertex 54.6539491082022 26.206903849087492 2.8199664825478975e-15
  endloop
endfacet
facet normal 0.0 0.0 -1.0
  outer loop
    vertex 95.91297269021686 -0.39873433790384083 0.0
    vertex 54.6539491082022 26.206903849087492 2.8199664825478975e-15
    vertex 57.63310389122623 28.36670027950524 2.8199664825478975e-15
  endloop
endfacet
facet normal 0.0 0.0 -1.0
  outer loop
    vertex 95.91297269021686 -0.39873433790384083 0.0
    vertex 57.63310389122623 28.36670027950524 2.8199664825478975e-15
    vertex 59.9517499869252 31.223965427327578 2.8199664825478975e-15
  endloop
endfacet
facet normal 0.0 0.0 -1.0
  outer loop
    vertex 95.91297269021686 -0.39873433790384083 0.0
    vertex 59.9517499869252 31.223965427327578 2.8199664825478975e-15
    vertex 61.45187549562104 34.583981394584306 2.8199664825478975e-15
  endloop
endfacet
facet normal 0.0 0.0 -1.0
  outer loop
    vertex 95.91297269021686 -0.39873433790384083 0.0
    vertex 61.45187549562104 34.583981394584306 2.8199664825478975e-15
    vertex 62.03124934297078 38.217768645795815 2.8199664825478975e-15
  endloop
endfacet
facet normal 0.0 0.0 -1.0
  outer loop
    vertex 95.91297269021686 -0.39873433790384083 0.0
    vertex 62.03124934297078 38.217768645795815 2.8199664825478975e-15
    vertex 95.91297269021686 77.60126566209617 0.0
  endloop
endfacet
facet normal -0.9585266011296438 0.28500307880241027 0.0
  outer loop
    vertex 61.45187549562104 34.583981394584306 50.0
    vertex 59.9517499869252 31.223965427327578 2.8199664825478975e-15
    vertex 59.9517499869252 31.223965427327578 50.0
  endloop
endfacet
facet normal -0.8521013745092846 0.5233767739968862 0.0
  outer loop
    vertex 59.9517499869252 31.223965427327578 2.8199664825478975e-15
    vertex 61.45187549562104 34.583981394584306 50.0
    vertex 61.45187549562104 34.583981394584306 2.8199664825478975e-15
  endloop
endfacet
facet normal -0.9996298239231216 0.02720689477740896 0.0
  outer loop
    vertex 62.03124934297078 38.217768645795815 50.0
    vertex 61.45187549562104 34.583981394584306 2.8199664825478975e-15
    vertex 61.45187549562104 34.583981394584306 50.0
  endloop
endfacet
facet normal -0.9585266011296438 0.28500307880241027 0.0
  outer loop
    vertex 61.45187549562104 34.583981394584306 2.8199664825478975e-15
    vertex 62.03124934297078 38.217768645795815 50.0
    vertex 62.03124934297078 38.217768645795815 2.8199664825478975e-15
  endloop
endfacet
facet normal -0.9726099261826308 -0.2324433941651547 0.0
  outer loop
    vertex 61.650388158738075 41.87769058490943 50.0
    vertex 62.03124934297078 38.217768645795815 2.8199664825478975e-15
    vertex 62.03124934297078 38.217768645795815 50.0
  endloop
endfacet
facet normal -0.9996298239231216 0.02720689477740896 0.0
  outer loop
    vertex 62.03124934297078 38.217768645795815 2.8199664825478975e-15
    vertex 61.650388158738075 41.87769058490943 50.0
    vertex 61.650388158738075 41.87769058490943 2.8199664825478975e-15
  endloop
endfacet
facet normal -0.8793082692866926 -0.47625304992623546 0.0
  outer loop
    vertex 60.335247003225525 45.3143295800815 50.0
    vertex 61.650388158738075 41.87769058490943 2.8199664825478975e-15
    vertex 61.650388158738075 41.87769058490943 50.0
  endloop
endfacet
facet normal -0.9726099261826308 -0.2324433941651547 0.0
  outer loop
    vertex 61.650388158738075 41.87769058490943 2.8199664825478975e-15
    vertex 60.335247003225525 45.3143295800815 50.0
    vertex 60.335247003225525 45.3143295800815 2.8199664825478975e-15
  endloop
endfacet
facet normal -0.7260832069644877 -0.6876068473802198 0.0
  outer loop
    vertex 58.175450572807776 48.29348436310552 50.0
    vertex 60.335247003225525 45.3143295800815 2.8199664825478975e-15
    vertex 60.335247003225525 45.3143295800815 50.0
  endloop
endfacet
facet normal -0.8793082692866926 -0.47625304992623546 0.0
  outer loop
    vertex 60.335247003225525 45.3143295800815 2.8199664825478975e-15
    vertex 58.175450572807776 48.29348436310552 50.0
    vertex 58.175450572807776 48.29348436310552 2.8199664825478975e-15
  endloop
endfacet
facet normal -0.7260832069644877 -0.6876068473802198 0.0
  outer loop
    vertex 58.175450572807776 48.29348436310552 50.0
    vertex 55.31818542498544 50.61213045880449 2.8199664825478975e-15
    vertex 58.175450572807776 48.29348436310552 2.8199664825478975e-15
  endloop
endfacet
facet normal -0.5233767739968869 -0.8521013745092842 0.0
  outer loop
    vertex 55.31818542498544 50.61213045880449 2.8199664825478975e-15
    vertex 58.175450572807776 48.29348436310552 50.0
    vertex 55.31818542498544 50.61213045880449 50.0
  endloop
endfacet
facet normal -0.5233767739968869 -0.8521013745092842 0.0
  outer loop
    vertex 55.31818542498544 50.61213045880449 50.0
    vertex 51.95816945772871 52.11225596750034 2.8199664825478975e-15
    vertex 55.31818542498544 50.61213045880449 2.8199664825478975e-15
  endloop
endfacet
facet normal -0.2850030788024115 -0.9585266011296434 0.0
  outer loop
    vertex 51.95816945772871 52.11225596750034 2.8199664825478975e-15
    vertex 55.31818542498544 50.61213045880449 50.0
    vertex 51.95816945772871 52.11225596750034 50.0
  endloop
endfacet
facet normal -0.2850030788024115 -0.9585266011296434 0.0
  outer loop
    vertex 51.95816945772871 52.11225596750034 50.0
    vertex 48.32438220651719 52.69162981485008 2.8199664825478975e-15
    vertex 51.95816945772871 52.11225596750034 2.8199664825478975e-15
  endloop
endfacet
facet normal -0.027206894777408692 -0.9996298239231216 0.0
  outer loop
    vertex 48.32438220651719 52.69162981485008 2.8199664825478975e-15
    vertex 51.95816945772871 52.11225596750034 50.0
    vertex 48.32438220651719 52.69162981485008 50.0
  endloop
endfacet
facet normal -0.027206894777408692 -0.9996298239231216 0.0
  outer loop
    vertex 48.32438220651719 52.69162981485008 50.0
    vertex 44.66446026740359 52.31076863061738 2.8199664825478975e-15
    vertex 48.32438220651719 52.69162981485008 2.8199664825478975e-15
  endloop
endfacet
facet normal 0.23244339416515597 -0.9726099261826305 0.0
  outer loop
    vertex 44.66446026740359 52.31076863061738 2.8199664825478975e-15
    vertex 48.32438220651719 52.69162981485008 50.0
    vertex 44.66446026740359 52.31076863061738 50.0
  endloop
endfacet
facet normal 0.23244339416515597 -0.9726099261826305 0.0
  outer loop
    vertex 44.66446026740359 52.31076863061738 50.0
    vertex 41.227821272231516 50.99562747510481 2.8199664825478975e-15
    vertex 44.66446026740359 52.31076863061738 2.8199664825478975e-15
  endloop
endfacet
facet normal 0.4762530499262359 -0.8793082692866924 0.0
  outer loop
    vertex 41.227821272231516 50.99562747510481 2.8199664825478975e-15
    vertex 44.66446026740359 52.31076863061738 50.0
    vertex 41.227821272231516 50.99562747510481 50.0
  endloop
endfacet
facet normal 0.4762530499262359 -0.8793082692866924 0.0
  outer loop
    vertex 41.227821272231516 50.99562747510481 50.0
    vertex 38.248666489207494 48.83583104468707 2.8199664825478975e-15
    vertex 41.227821272231516 50.99562747510481 2.8199664825478975e-15
  endloop
endfacet
facet normal 0.6876068473802194 -0.726083206964488 0.0
  outer loop
    vertex 38.248666489207494 48.83583104468707 2.8199664825478975e-15
    vertex 41.227821272231516 50.99562747510481 50.0
    vertex 38.248666489207494 48.83583104468707 50.0
  endloop
endfacet
facet normal 0.6876068473802194 -0.726083206964488 0.0
  outer loop
    vertex 38.248666489207494 48.83583104468707 2.8199664825478975e-15
    vertex 35.930020393508535 45.97856589686474 50.0
    vertex 35.930020393508535 45.97856589686474 2.8199664825478975e-15
  endloop
endfacet
facet normal 0.8521013745092845 -0.5233767739968865 0.0
  outer loop
    vertex 35.930020393508535 45.97856589686474 50.0
    vertex 38.248666489207494 48.83583104468707 2.8199664825478975e-15
    vertex 38.248666489207494 48.83583104468707 50.0
  endloop
endfacet
facet normal 0.8521013745092845 -0.5233767739968865 0.0
  outer loop
    vertex 35.930020393508535 45.97856589686474 2.8199664825478975e-15
    vertex 34.429894884812676 42.618549929608 50.0
    vertex 34.429894884812676 42.618549929608 2.8199664825478975e-15
  endloop
endfacet
facet normal 0.9585266011296435 -0.28500307880241127 0.0
  outer loop
    vertex 34.429894884812676 42.618549929608 50.0
    vertex 35.930020393508535 45.97856589686474 2.8199664825478975e-15
    vertex 35.930020393508535 45.97856589686474 50.0
  endloop
endfacet
facet normal 0.9585266011296435 -0.28500307880241127 0.0
  outer loop
    vertex 34.429894884812676 42.618549929608 2.8199664825478975e-15
    vertex 33.85052103746294 38.98476267839649 50.0
    vertex 33.85052103746294 38.98476267839649 2.8199664825478975e-15
  endloop
endfacet
facet normal 0.9996298239231216 -0.02720689477740887 0.0
  outer loop
    vertex 33.85052103746294 38.98476267839649 50.0
    vertex 34.429894884812676 42.618549929608 2.8199664825478975e-15
    vertex 34.429894884812676 42.618549929608 50.0
  endloop
endfacet
facet normal 0.9996298239231216 -0.02720689477740887 0.0
  outer loop
    vertex 33.85052103746294 38.98476267839649 2.8199664825478975e-15
    vertex 34.23138222169564 35.324840739282884 50.0
    vertex 34.23138222169564 35.324840739282884 2.8199664825478975e-15
  endloop
endfacet
facet normal 0.9726099261826309 0.23244339416515475 0.0
  outer loop
    vertex 34.23138222169564 35.324840739282884 50.0
    vertex 33.85052103746294 38.98476267839649 2.8199664825478975e-15
    vertex 33.85052103746294 38.98476267839649 50.0
  endloop
endfacet
facet normal 0.9726099261826309 0.23244339416515475 0.0
  outer loop
    vertex 34.23138222169564 35.324840739282884 2.8199664825478975e-15
    vertex 35.546523377208196 31.88820174411082 50.0
    vertex 35.546523377208196 31.88820174411082 2.8199664825478975e-15
  endloop
endfacet
facet normal 0.8793082692866928 0.47625304992623496 0.0
  outer loop
    vertex 35.546523377208196 31.88820174411082 50.0
    vertex 34.23138222169564 35.324840739282884 2.8199664825478975e-15
    vertex 34.23138222169564 35.324840739282884 50.0
  endloop
endfacet
facet normal 0.8793082692866928 0.47625304992623496 0.0
  outer loop
    vertex 35.546523377208196 31.88820174411082 2.8199664825478975e-15
    vertex 37.706319807625945 28.90904696108679 50.0
    vertex 37.706319807625945 28.90904696108679 2.8199664825478975e-15
  endloop
endfacet
facet normal 0.7260832069644885 0.6876068473802192 0.0
  outer loop
    vertex 37.706319807625945 28.90904696108679 50.0
    vertex 35.546523377208196 31.88820174411082 2.8199664825478975e-15
    vertex 35.546523377208196 31.88820174411082 50.0
  endloop
endfacet
facet normal 0.7260832069644885 0.6876068473802192 0.0
  outer loop
    vertex 37.706319807625945 28.90904696108679 50.0
    vertex 40.56358495544828 26.590400865387824 2.8199664825478975e-15
    vertex 37.706319807625945 28.90904696108679 2.8199664825478975e-15
  endloop
endfacet
facet normal 0.5233767739968868 0.8521013745092844 0.0
  outer loop
    vertex 40.56358495544828 26.590400865387824 2.8199664825478975e-15
    vertex 37.706319807625945 28.90904696108679 50.0
    vertex 40.56358495544828 26.590400865387824 50.0
  endloop
endfacet
facet normal 0.5233767739968868 0.8521013745092844 0.0
  outer loop
    vertex 40.56358495544828 26.590400865387824 50.0
    vertex 43.923600922705006 25.090275356691976 2.8199664825478975e-15
    vertex 40.56358495544828 26.590400865387824 2.8199664825478975e-15
  endloop
endfacet
facet normal 0.285003078802411 0.9585266011296434 0.0
  outer loop
    vertex 43.923600922705006 25.090275356691976 2.8199664825478975e-15
    vertex 40.56358495544828 26.590400865387824 50.0
    vertex 43.923600922705006 25.090275356691976 50.0
  endloop
endfacet
facet normal 0.285003078802411 0.9585266011296434 0.0
  outer loop
    vertex 43.923600922705006 25.090275356691976 50.0
    vertex 47.55738817391653 24.510901509342233 2.8199664825478975e-15
    vertex 43.923600922705006 25.090275356691976 2.8199664825478975e-15
  endloop
endfacet
facet normal 0.027206894777408556 0.9996298239231216 0.0
  outer loop
    vertex 47.55738817391653 24.510901509342233 2.8199664825478975e-15
    vertex 43.923600922705006 25.090275356691976 50.0
    vertex 47.55738817391653 24.510901509342233 50.0
  endloop
endfacet
facet normal 0.027206894777408556 0.9996298239231216 0.0
  outer loop
    vertex 47.55738817391653 24.510901509342233 50.0
    vertex 51.21731011303013 24.891762693574936 2.8199664825478975e-15
    vertex 47.55738817391653 24.510901509342233 2.8199664825478975e-15
  endloop
endfacet
facet normal -0.23244339416515525 0.9726099261826308 0.0
  outer loop
    vertex 51.21731011303013 24.891762693574936 2.8199664825478975e-15
    vertex 47.55738817391653 24.510901509342233 50.0
    vertex 51.21731011303013 24.891762693574936 50.0
  endloop
endfacet
facet normal -0.23244339416515525 0.9726099261826308 0.0
  outer loop
    vertex 51.21731011303013 24.891762693574936 50.0
    vertex 54.6539491082022 26.206903849087492 2.8199664825478975e-15
    vertex 51.21731011303013 24.891762693574936 2.8199664825478975e-15
  endloop
endfacet
facet normal -0.47625304992623496 0.8793082692866928 0.0
  outer loop
    vertex 54.6539491082022 26.206903849087492 2.8199664825478975e-15
    vertex 51.21731011303013 24.891762693574936 50.0
    vertex 54.6539491082022 26.206903849087492 50.0
  endloop
endfacet
facet normal -0.47625304992623496 0.8793082692866928 0.0
  outer loop
    vertex 54.6539491082022 26.206903849087492 50.0
    vertex 57.63310389122623 28.36670027950524 2.8199664825478975e-15
    vertex 54.6539491082022 26.206903849087492 2.8199664825478975e-15
  endloop
endfacet
facet normal -0.6876068473802192 0.7260832069644885 0.0
  outer loop
    vertex 57.63310389122623 28.36670027950524 2.8199664825478975e-15
    vertex 54.6539491082022 26.206903849087492 50.0
    vertex 57.63310389122623 28.36670027950524 50.0
  endloop
endfacet
facet normal -0.8521013745092846 0.5233767739968862 0.0
  outer loop
    vertex 59.9517499869252 31.223965427327578 50.0
    vertex 57.63310389122623 28.36670027950524 2.8199664825478975e-15
    vertex 57.63310389122623 28.36670027950524 50.0
  endloop
endfacet
facet normal -0.6876068473802192 0.7260832069644885 0.0
  outer loop
    vertex 57.63310389122623 28.36670027950524 2.8199664825478975e-15
    vertex 59.9517499869252 31.223965427327578 50.0
    vertex 59.9517499869252 31.223965427327578 2.8199664825478975e-15
  endloop
endfacet
endsolid StandBottom
